<!--
    Clove Hitch Sketch Diagram
    Copyright © 2014, Alex Westphal. All rights reserved
-->
<svg version="1.1" baseProfile="full" width="400" height="200" viewBox="0 0 200 100" xmlns="http://www.w3.org/2000/svg">
    <defs>
        <linearGradient id="PipeGradient" x1="0" x2="0" y1="0" y2="1">
            <stop offset="0%" stop-color="#666"/>
            <stop offset="50%" stop-color="#CCC"/>
            <stop offset="100%" stop-color="#888"/>
        </linearGradient>
      </defs>

    <!-- Border Rectangle -->
    <rect x="0" y="0" width="200" height="100" stroke="#888" fill="transparent"/>

    <!-- Horizontal Grid Line -->
    <line x1="0" x2="200" y1="10" y2="10" stroke="#BBB" stroke-width="0.5" fill="transparent"/>
    <line x1="0" x2="200" y1="20" y2="20" stroke="#BBB" stroke-width="0.5" fill="transparent"/>
    <line x1="0" x2="200" y1="30" y2="30" stroke="#BBB" stroke-width="0.5" fill="transparent"/>
    <line x1="0" x2="200" y1="40" y2="40" stroke="#BBB" stroke-width="0.5" fill="transparent"/>
    <line x1="0" x2="200" y1="50" y2="50" stroke="#BBB" stroke-width="0.5" fill="transparent"/>
    <line x1="0" x2="200" y1="60" y2="60" stroke="#BBB" stroke-width="0.5" fill="transparent"/>
    <line x1="0" x2="200" y1="70" y2="70" stroke="#BBB" stroke-width="0.5" fill="transparent"/>
    <line x1="0" x2="200" y1="80" y2="80" stroke="#BBB" stroke-width="0.5" fill="transparent"/>
    <line x1="0" x2="200" y1="90" y2="90" stroke="#BBB" stroke-width="0.5" fill="transparent"/>

    <!-- Vertical Grid Line -->
    <line x1="10" x2="10" y1="0" y2="100" stroke="#BBB" stroke-width="0.5" fill="transparent"/>
    <line x1="20" x2="20" y1="0" y2="100" stroke="#BBB" stroke-width="0.5" fill="transparent"/>
    <line x1="30" x2="30" y1="0" y2="100" stroke="#BBB" stroke-width="0.5" fill="transparent"/>
    <line x1="40" x2="40" y1="0" y2="100" stroke="#BBB" stroke-width="0.5" fill="transparent"/>
    <line x1="50" x2="50" y1="0" y2="100" stroke="#BBB" stroke-width="0.5" fill="transparent"/>
    <line x1="60" x2="60" y1="0" y2="100" stroke="#BBB" stroke-width="0.5" fill="transparent"/>
    <line x1="70" x2="70" y1="0" y2="100" stroke="#BBB" stroke-width="0.5" fill="transparent"/>
    <line x1="80" x2="80" y1="0" y2="100" stroke="#BBB" stroke-width="0.5" fill="transparent"/>
    <line x1="90" x2="90" y1="0" y2="100" stroke="#BBB" stroke-width="0.5" fill="transparent"/>
    <line x1="100" x2="100" y1="0" y2="100" stroke="#BBB" stroke-width="0.5" fill="transparent"/>
    <line x1="110" x2="110" y1="0" y2="100" stroke="#BBB" stroke-width="0.5" fill="transparent"/>
    <line x1="120" x2="120" y1="0" y2="100" stroke="#BBB" stroke-width="0.5" fill="transparent"/>
    <line x1="130" x2="130" y1="0" y2="100" stroke="#BBB" stroke-width="0.5" fill="transparent"/>
    <line x1="140" x2="140" y1="0" y2="100" stroke="#BBB" stroke-width="0.5" fill="transparent"/>
    <line x1="150" x2="150" y1="0" y2="100" stroke="#BBB" stroke-width="0.5" fill="transparent"/>
    <line x1="160" x2="160" y1="0" y2="100" stroke="#BBB" stroke-width="0.5" fill="transparent"/>
    <line x1="170" x2="170" y1="0" y2="100" stroke="#BBB" stroke-width="0.5" fill="transparent"/>
    <line x1="180" x2="180" y1="0" y2="100" stroke="#BBB" stroke-width="0.5" fill="transparent"/>
    <line x1="190" x2="190" y1="0" y2="100" stroke="#BBB" stroke-width="0.5" fill="transparent"/>

    <!-- Pipe -->
    <rect x="0" y="40" width="200" height="20" stroke="black" stroke-width="0.25" fill="url(#PipeGradient)"/>

    <!-- Standing End -->
    <path d="M 105 100 V 50 C 105 30, 122 30, 122 40" stroke="black" fill="transparent"/>

    <!-- Running End -->
    <path d="M 95 20 V 50 C 95 70, 78 70, 78 60" stroke="black" fill="transparent"/>

    <!-- Cross Section -->
    <path d="M 78 40 C 78 15, 122 85, 122 60" stroke="black" fill="transparent"/>

</svg>