<svg version="1.1" xmlns="http://www.w3.org/2000/svg" xmlns:xlink="http://www.w3.org/1999/xlink" height="600" width="1200">

<defs>
    <clipPath id="Canton">
        <path d="M 0,0 L 600,0 L 600,300 L 0,300 z"/>
    </clipPath>

    <clipPath id="Diagonals">
        <path d="M 0,0 L 300,150 L 0,150 z M 300,0 L 600,0 L 300,150 z M 300,150 L 600,150 L 600,300 z M 300,150 L 300,300 L 0,300 z"/>
    </clipPath>


</defs>

<rect fill="#6399ab" x="0" y="0" width="1200" height="600"/>

<g id="Flag_of_the_United_Kingdom">
    <rect fill="#00247d" x="0" y="0" width="600" height="300"/>
    <path id="Saint_Andrews_Cross" stroke="#ffffff" d="M 0,0 L 600,300 M 0,300 L 600,0" stroke-width="60" clip-path="url(#Canton)"/>
    <path id="Saint_Patricks_Cross" stroke="#cc142b" d="M 0,0 L 600,300 M 0,300 L 600,0" stroke-width="40" clip-path="url(#Diagonals)"/>
    <g id="Saint_Georges_Cross">
        <path stroke="#ffffff" d="M 300,0 L 300,300 M 0,150 L 600,150" stroke-width="100" clip-path="url(#Canton)"/>
        <path stroke="#cc142b" d="M 300,0 L 300,300 M 0,150 L 600,150" stroke-width="60" clip-path="url(#Canton)"/>
    </g>
</g>

<g id="Roundel">
    <circle cx="900" cy="300" r="225" fill="#00247d" />
    <circle cx="900" cy="300" r="150" fill="#ffffff" />
    <circle cx="900" cy="300" r="75" fill="#cc142b" />
    <text x="900" y="330" fill="#ffffff" font-size="80" font-weight="bold" font-family="Verdana" text-anchor="middle">NZ</text>
</g>

</svg>
