<?xml version="1.0" encoding="UTF-8" standalone="no"?>
<svg
   xmlns:dc="http://purl.org/dc/elements/1.1/"
   xmlns:cc="http://creativecommons.org/ns#"
   xmlns:rdf="http://www.w3.org/1999/02/22-rdf-syntax-ns#"
   xmlns:svg="http://www.w3.org/2000/svg"
   xmlns="http://www.w3.org/2000/svg"
   xmlns:xlink="http://www.w3.org/1999/xlink"
   xmlns:sodipodi="http://sodipodi.sourceforge.net/DTD/sodipodi-0.dtd"
   xmlns:inkscape="http://www.inkscape.org/namespaces/inkscape"
   version="1.1"
   preserveAspectRatio="xMidYMid meet"
   zoomAndPan="magnify"
   id="Flag_of_New_Zealand"
   viewBox="-15 -7.5 60 30"
   width="2400"
   height="1200"
   inkscape:version="0.48.2 r9819"
   sodipodi:docname="AJAX.svg">
  <metadata
     id="metadata29">
    <rdf:RDF>
      <cc:Work
         rdf:about="">
        <dc:format>image/svg+xml</dc:format>
        <dc:type
           rdf:resource="http://purl.org/dc/dcmitype/StillImage" />
      </cc:Work>
    </rdf:RDF>
  </metadata>
  <sodipodi:namedview
     pagecolor="#ffffff"
     bordercolor="#666666"
     borderopacity="1"
     objecttolerance="10"
     gridtolerance="10"
     guidetolerance="10"
     inkscape:pageopacity="0"
     inkscape:pageshadow="2"
     inkscape:window-width="1280"
     inkscape:window-height="1004"
     id="namedview27"
     showgrid="false"
     inkscape:zoom="2.1466666"
     inkscape:cx="1756.6927"
     inkscape:cy="981.94641"
     inkscape:window-x="-8"
     inkscape:window-y="-8"
     inkscape:window-maximized="1"
     inkscape:current-layer="Flag_of_New_Zealand"
     fit-margin-top="0"
     fit-margin-left="0"
     fit-margin-right="0"
     fit-margin-bottom="0" />
  <defs
     id="defs3">
    <clipPath
       id="border">
      <rect
         x="-15"
         y="-7.5"
         width="30"
         height="15"
         id="rect6" />
    </clipPath>
    <path
       id="star12"
       d="m 0,-0.8746205 0.1963645,0.6043479 0.6354491,0 L 0.3177245,0.103235 0.5140891,0.7075829 0,0.3340753 -0.5140891,0.7075829 -0.3177245,0.103235 l -0.5140891,-0.3735076 0.6354491,0 z"
       inkscape:connector-curvature="0"
       style="fill:#c60c30;stroke:#ffffff;stroke-width:0.125" />
    <clipPath
       id="border-1">
      <rect
         x="-15"
         y="-7.5"
         width="30"
         height="15"
         id="rect6-7" />
    </clipPath>
  </defs>
  <!--The above line is the ensign field color: #C60C30 red and #002776 blue-->
  <path
     inkscape:connector-curvature="0"
     style="fill:#002776;fill-opacity:1"
     d="m -15,-7.5 0,30 60,0 0,-30 z"
     id="rect9"
     sodipodi:nodetypes="ccccc" />
  <g
     id="canton"
     transform="matrix(0.5,0,0,0.5,-7.5,-3.75)">
    <g
       clip-path="url(#border-1)"
       id="g12">
      <circle
         style="fill:#002776"
         sodipodi:ry="20"
         sodipodi:rx="20"
         sodipodi:cy="0"
         sodipodi:cx="0"
         cy="0"
         cx="0"
         r="20"
         id="circle14"
         d="m 20,0 c 0,11.045695 -8.954305,20 -20,20 -11.045695,0 -20,-8.954305 -20,-20 0,-11.045695 8.954305,-20 20,-20 11.045695,0 20,8.954305 20,20 z" />
      <path
         style="stroke:#ffffff;stroke-width:3"
         inkscape:connector-curvature="0"
         d="m -20,-10 40,20 m -40,0 40,-20"
         id="diags_white" />
      <path
         style="stroke:#c60c30;stroke-width:2"
         inkscape:connector-curvature="0"
         d="m -20,-10 40,20 m -40,0 40,-20"
         id="diags_red" />
      <path
         style="fill:#ffffff;stroke:none"
         inkscape:connector-curvature="0"
         d="M 0,0 20,10 H 17 L -3,0 m 3,0 20,-10 h 3 L 3,0 M 0,0 -20,10 h -3 L -3,0 m 3,0 -20,-10 h 3 L 3,0"
         id="eraser_white" />
      <!--I think the above two lines give the simplest way to make the diagonals-->
      <path
         style="stroke:#ffffff;stroke-width:5"
         inkscape:connector-curvature="0"
         d="M -20,0 H 20 M 0,-10 v 20"
         id="cross_white" />
      <path
         style="stroke:#c60c30;stroke-width:3"
         inkscape:connector-curvature="0"
         d="M -20,0 H 20 M 0,-10 v 20"
         id="cross_red" />
    </g>
  </g>
  <path
     style="fill:#c60c30;stroke:#ffffff;stroke-width:0.125"
     inkscape:connector-curvature="0"
     id="star14"
     d="m 7.5,3.493947 0.225873,0.695165 0.730941,0 L 7.86547,4.618748 8.091343,5.313914 7.5,4.884278 6.908657,5.313914 7.13453,4.618748 6.543186,4.189112 l 0.730941,0 z" />
  <use
     height="1052.3622"
     width="744.09448"
     y="0"
     x="0"
     transform="translate(7.5,-4.5)"
     xlink:href="#star12"
     id="use22" />
  <use
     height="1052.3622"
     width="744.09448"
     y="0"
     x="0"
     transform="translate(4.034062,-1.012894)"
     xlink:href="#star12"
     id="use24" />
  <path
     style="fill:#c60c30;stroke:#ffffff;stroke-width:0.125"
     inkscape:connector-curvature="0"
     id="star10"
     d="m 10.4708,-2.660707 0.16686,0.51353 0.53996,0 -0.43684,0.317379 0.16686,0.51353 -0.43684,-0.317379 -0.43683,0.317379 0.16686,-0.51353 -0.43684,-0.317379 0.53996,0 z" />
  <path
     inkscape:connector-curvature="0"
     d="m 29.598777,17.798845 c 0,0 0.06142,0.266707 0.47254,0.225799 0,0 -0.102853,0 -0.328953,0.246675 -0.266732,0.266708 -0.308013,0.595606 -0.308013,0.595606 0,0 -0.267131,-0.102707 -0.451551,-0.164441 -0.164426,-0.04088 -0.47254,-0.06184 -0.47254,-0.06184 0,0 0.184868,-0.266707 0.554285,-0.554281 0.287572,-0.226214 0.534248,-0.287573 0.534248,-0.287573 z"
     id="path4784"
     style="fill:#ffffff;fill-opacity:1;stroke:none;stroke-width:0.04925090000000000;stroke-linecap:butt;stroke-linejoin:miter;stroke-miterlimit:2.61299992000000000;stroke-opacity:1" />
  <path
     inkscape:connector-curvature="0"
     d="m 30.769522,17.798845 c 0,0 -0.06142,0.266707 -0.472539,0.225799 0,0 0.102853,0 0.328803,0.246675 0.266732,0.266708 0.308013,0.595606 0.308013,0.595606 0,0 0.266733,-0.102707 0.431159,-0.164441 0.184868,-0.04088 0.472391,-0.06184 0.472391,-0.06184 0,0 -0.164427,-0.266707 -0.534247,-0.554281 -0.308014,-0.226214 -0.533844,-0.287573 -0.533844,-0.287573 z"
     id="path4778"
     style="fill:#ffffff;stroke:none;stroke-width:0.04925090000000000;stroke-linecap:butt;stroke-linejoin:miter;stroke-miterlimit:2.61299992000000000" />
  <path
     inkscape:connector-curvature="0"
     d="m 27.745068,3.0755282 c 1.836479,-0.6486829 3.05209,-0.6347659 4.888564,0"
     id="path17297"
     style="fill:none;stroke:#ffffff;stroke-width:0.26712367;stroke-linecap:round;stroke-linejoin:miter;stroke-miterlimit:4;stroke-opacity:1" />
  <path
     inkscape:connector-curvature="0"
     d="m 27.462616,6.2762123 c 0,0.205354 -0.102852,0.184489 -0.205309,0.2462611 -0.246691,0.1027092 -0.554684,-0.1027091 -0.575121,-0.3697906 -0.04138,-0.5133718 0.287573,-0.9653982 0.677825,-1.1707494 1.519681,-0.7805079 2.629088,0.5546951 4.005187,0.6573776 0.431158,0.040882 0.94495,-0.1027091 1.314781,-0.1849028 l 0,0.1644416 c -0.924515,0.7805086 -1.437872,1.6019073 -2.115696,2.4850848 -0.06142,-0.082273 -0.122896,-0.1640279 -0.205409,-0.2258001 0,-0.1231456 0,-0.3284845 -0.01994,-0.5133718 0.410718,-0.3902519 0.966722,-0.7217547 1.233848,-1.2355538 -0.560831,0.00434 -0.917973,0.097365 -1.725927,-0.099234 C 29.042679,5.834333 28.686868,5.1600199 27.93222,5.153783 c -0.746745,-0.00618 -1.156516,0.4315228 -1.085056,0.8757646 0.04138,0.246675 0.554279,-0.3284845 0.615986,0.246675 z"
     id="path4804"
     style="fill:#ffffff;stroke:none" />
  <path
     inkscape:connector-curvature="0"
     d="m 32.896256,4.1477241 c 0.672884,0.5995986 1.203394,1.4990878 1.159719,2.8676691 -0.04387,1.3759512 -0.719097,2.7317574 -1.992572,3.2246868 -0.08282,0.06171 -0.308013,0.08227 -0.348996,-0.10271 C 31.549981,9.7471106 32.104684,9.8088826 32.289522,9.6035336 33.295781,8.6176738 33.090497,7.0566767 33.070061,5.6597032 33.050114,5.0232007 32.843812,4.448044 32.330395,4.0782489 31.899236,3.8315739 31.262299,3.7702305 30.769393,3.9342584 30.419999,4.1191611 30.153406,4.5094024 30.091564,4.9409802 29.968667,4.899699 29.352033,4.8382709 29.41374,4.3658366 29.352317,4.0164922 28.735911,4.0164922 28.776783,3.770231 c 0,-0.1439905 0.390276,-0.2258002 0.657388,-0.246675 1.663687,-0.1027091 2.784969,0.02084 3.461941,0.624134 z"
     id="path4790"
     style="fill:#ffffff;stroke:none" />
  <path
     inkscape:connector-curvature="0"
     d="m 30.441043,-2.0630521 c -0.04139,-0.061837 -0.102853,-0.061837 -0.143986,-0.2053489 -0.01995,-0.2262139 -0.01995,-0.3493445 -0.01995,-0.3493445 0,0 0.122897,0 0.328405,0.041281 0.143986,0.020442 0.122896,0.061304 0.184868,0.1435769 l 0,-0.4929213 c -0.06142,0.082273 -0.04139,0.1231456 -0.184868,0.1435818 -0.205409,0.041281 -0.328405,0.041281 -0.328405,0.041281 0,0 0,-0.1231456 0.01995,-0.3493445 0.04139,-0.1435768 0.08147,-0.1540117 0.143986,-0.2053489 l 0,0 -0.49338,0 c 0.06546,0.053959 0.102853,0.061707 0.122896,0.2053489 0.04139,0.2262289 0.01995,0.3493445 0.01995,0.3493445 0,0 -0.102852,0 -0.308013,-0.041281 -0.143986,-0.020442 -0.143986,-0.061303 -0.205259,-0.1435818 l 0,0.4929213 c 0.06142,-0.082273 0.06142,-0.1231456 0.205259,-0.1435769 0.205408,-0.041281 0.308013,-0.041281 0.308013,-0.041281 0,0 0.01995,0.1231456 -0.01995,0.3493445 -0.01995,0.1435767 -0.08282,0.1435767 -0.122896,0.2053489 -0.04139,0.041281 0.534247,0.041281 0.49338,0 z"
     id="path4768"
     style="fill:#ffffff;fill-rule:evenodd;stroke:#ffffff;stroke-width:0.02462546;stroke-linecap:butt;stroke-linejoin:miter;stroke-miterlimit:2.61299992;stroke-opacity:1" />
  <path
     inkscape:connector-curvature="0"
     d="m 30.525869,-0.665245 0.0868,0.78213769 -0.781739,0.006526 0.05878,-0.78868278 c -0.65125,-0.30880612 -1.296623,-0.49608701 -2.013873,-0.57390161 -1.126862,0.60263094 -0.99223,1.67539927 -0.459029,2.6712355 1.4e-5,0 5.592901,0 5.592901,0 0.659931,-1.06538189 0.541058,-2.10687396 -0.573912,-2.6712355 -0.691186,0.016004 -1.280061,0.34398981 -1.909524,0.57390161 z"
     id="path4770"
     style="fill:#c60c30;fill-opacity:1" />
  <path
     inkscape:connector-curvature="0"
     d="m 25.942519,17.757525 c -0.04139,-0.08228 0.205807,-0.43115 0.595551,-0.677827 0.411118,-0.266707 0.801375,-0.34893 0.862679,-0.287572 0.04138,0.08228 -0.205409,0.431568 -0.615987,0.698274 -0.390279,0.246676 -0.780541,0.349345 -0.842243,0.267122 z"
     id="path4864"
     style="fill:#ffffff;fill-opacity:1;fill-rule:evenodd;stroke:#ffffff;stroke-width:0.05885063;stroke-linecap:butt;stroke-linejoin:miter;stroke-miterlimit:2.61299992;stroke-opacity:1" />
  <use
     height="1052.3622"
     width="744.09448"
     y="0"
     x="0"
     transform="matrix(-0.1759635,0.44443313,-0.44443327,-0.1759635,38.113171,-5.7013729)"
     id="use16820"
     xlink:href="#path4864"
     style="fill:#ffffff;fill-opacity:1;stroke:#ffffff;stroke-opacity:1" />
  <use
     height="1052.3622"
     width="744.09448"
     y="0"
     x="0"
     transform="matrix(0.124014,0.68471662,-0.68471698,0.124014,32.47844,-14.352233)"
     id="use16812"
     xlink:href="#path4864"
     style="fill:#ffffff;fill-opacity:1;stroke:#ffffff;stroke-opacity:1" />
  <use
     height="1052.3622"
     width="744.09448"
     y="0"
     x="0"
     transform="matrix(0.2696864,0.7419364,-0.7419368,0.2696864,29.058949,-16.578982)"
     id="use16808"
     xlink:href="#path4864"
     style="fill:#ffffff;fill-opacity:1;stroke:#ffffff;stroke-opacity:1" />
  <use
     height="1052.3622"
     width="744.09448"
     y="0"
     x="0"
     transform="matrix(0.3608669,0.77377632,-0.77377668,0.3608669,27.053671,-18.093885)"
     id="use16806"
     xlink:href="#path4864"
     style="fill:#ffffff;fill-opacity:1;stroke:#ffffff;stroke-opacity:1" />
  <use
     height="1052.3622"
     width="744.09448"
     y="0"
     x="0"
     transform="matrix(0.4494532,0.80384784,-0.80384816,0.4494532,25.166569,-19.54721)"
     id="use16804"
     xlink:href="#path4864"
     style="fill:#ffffff;fill-opacity:1;stroke:#ffffff;stroke-opacity:1" />
  <use
     height="1052.3622"
     width="744.09448"
     y="0"
     x="0"
     transform="matrix(0.5382972,0.75295231,-0.75295269,0.5382972,21.934995,-18.857975)"
     id="use16802"
     xlink:href="#path4864"
     style="fill:#ffffff;fill-opacity:1;stroke:#ffffff;stroke-opacity:1" />
  <use
     height="1052.3622"
     width="744.09448"
     y="0"
     x="0"
     transform="matrix(0.6335479,0.62059911,-0.62059929,0.6335479,17.195419,-16.147154)"
     id="use16800"
     xlink:href="#path4864"
     style="fill:#ffffff;fill-opacity:1;stroke:#ffffff;stroke-opacity:1" />
  <use
     height="1052.3622"
     width="744.09448"
     y="0"
     x="0"
     transform="matrix(0.7138929,0.59712323,-0.59712337,0.7138929,14.774088,-16.115793)"
     id="use16798"
     xlink:href="#path4864"
     style="fill:#ffffff;fill-opacity:1;stroke:#ffffff;stroke-opacity:1" />
  <use
     height="1052.3622"
     width="744.09448"
     y="0"
     x="0"
     transform="matrix(0.7596561,0.50204764,-0.50204776,0.7596561,12.145122,-13.55406)"
     id="use16796"
     xlink:href="#path4864"
     style="fill:#ffffff;fill-opacity:1;stroke:#ffffff;stroke-opacity:1" />
  <use
     height="1052.3622"
     width="744.09448"
     y="0"
     x="0"
     transform="matrix(0.8562009,0.42858312,-0.42858328,0.8562009,8.565619,-12.507937)"
     id="use16794"
     xlink:href="#path4864"
     style="fill:#ffffff;fill-opacity:1;stroke:#ffffff;stroke-opacity:1" />
  <use
     height="1052.3622"
     width="744.09448"
     y="0"
     x="0"
     transform="matrix(0.892244,0.2633903,-0.2633905,0.892244,5.111989,-7.9266399)"
     id="use16792"
     xlink:href="#path4864"
     style="fill:#ffffff;fill-opacity:1;stroke:#ffffff;stroke-opacity:1" />
  <use
     height="1052.3622"
     width="744.09448"
     y="0"
     x="0"
     transform="matrix(0.9119239,0.17507038,-0.17507042,0.9119239,3.5427042,-5.0966647)"
     id="use16790"
     xlink:href="#path4864"
     style="fill:#ffffff;fill-opacity:1;stroke:#ffffff;stroke-opacity:1" />
  <use
     height="1052.3622"
     width="744.09448"
     y="0"
     x="0"
     transform="matrix(-0.4064686,-0.25152972,0.25152988,-0.4064686,32.817908,17.291585)"
     id="use17112"
     xlink:href="#path4864"
     style="fill:#ffffff;fill-opacity:1;stroke:#ffffff;stroke-opacity:1" />
  <path
     inkscape:connector-curvature="0"
     d="m 26.189179,3.2360123 c -1.191235,1.4378754 -1.992566,3.5535783 -2.033474,5.8950839 -0.08282,4.1283158 2.136158,7.5587688 5.052816,8.0925978 0.267131,0.06184 3.183781,0.513385 3.183781,0.513385 l 0,0.308018 c 0,0 -2.875764,-0.4516 -3.204228,-0.533833 -3.019341,-0.534248 -5.319939,-4.046507 -5.258167,-8.2365941 0.04139,-2.444182 0.883104,-4.6007882 2.177054,-6.0795669 l 0.08282,0.040882 z"
     id="path4774"
     style="fill:#ffffff;fill-rule:evenodd;stroke:#ffffff;stroke-width:0.0492509;stroke-linecap:butt;stroke-linejoin:miter;stroke-miterlimit:2.61299992;stroke-opacity:1" />
  <use
     height="1052.3622"
     width="744.09448"
     y="0"
     x="0"
     transform="matrix(-0.99999991,0,0,0.99999998,60.364371,0.00483429)"
     id="use16946"
     xlink:href="#path4864" />
  <path
     inkscape:connector-curvature="0"
     d="m 34.179105,3.2360123 c 1.191236,1.4378754 1.992164,3.5535783 2.033475,5.8950839 0.06142,4.1283158 -2.136144,7.5587688 -5.073262,8.0925978 -0.24669,0.06184 -3.039776,0.533834 -3.039776,0.533834 l 0.01995,0.287571 c 0,0 2.752199,-0.47206 3.060233,-0.533833 3.019326,-0.534248 5.319922,-4.046506 5.258166,-8.2365941 C 36.3965,6.8304905 35.55465,4.6738842 34.26082,3.1951055 L 34.178,3.2359875 z"
     id="path4780"
     style="fill:#ffffff;fill-rule:evenodd;stroke:#ffffff;stroke-width:0.0492509;stroke-linecap:butt;stroke-linejoin:miter;stroke-miterlimit:2.61299992;stroke-opacity:1" />
  <path
     inkscape:connector-curvature="0"
     d="m 29.886345,16.997892 c -0.164428,-0.267121 -0.267132,-0.472475 -0.225851,-0.719151 0.04139,-0.184903 0.369438,-0.246675 0.595552,-0.266707 0,0 -0.369836,-0.103111 -0.554684,-0.103111 -0.287572,0 -0.492981,0.14399 -0.492981,0.369791 0,0.287572 0.533848,0.842281 0.842241,0.924075 l -0.164427,-0.204941 z"
     id="path4786"
     style="fill:#ffffff;fill-rule:evenodd;stroke:none;stroke-width:0.04925090000000000;stroke-linecap:butt;stroke-linejoin:miter;stroke-miterlimit:2.61299992000000000" />
  <path
     inkscape:connector-curvature="0"
     d="m 30.091698,6.3580189 0,1.2942945 C 29.804127,7.302969 29.516579,7.1798384 29.41387,7.0771559 l 0,-0.9245014 c 0.205408,0.061707 0.431557,0.1644416 0.677828,0.2053489 z"
     id="path4792"
     style="fill:#ffffff;stroke:none" />
  <path
     inkscape:connector-curvature="0"
     d="m 32.638548,6.9127173 c 0.124193,0.4107028 -0.308014,0.3080184 -0.348847,0.5956056 l 0,1.807675 c -0.08282,0.102709 -0.226247,0.1849028 -0.349394,0.2053538 0,-0.6369296 0,-1.3556524 0,-2.0539296 C 31.898917,7.2825193 31.488309,7.158975 31.652735,6.9127267 l 0.985818,0 z"
     id="path4794"
     style="fill:#ffffff;stroke:none" />
  <path
     inkscape:connector-curvature="0"
     d="m 30.050786,9.5622506 c 0,0.226228 -0.02144,0.2875719 0.04139,0.4929244 0.267131,0.08227 0.739532,-0.102709 0.739532,0.36979 -0.205409,-0.02044 -0.636957,0 -0.698659,0 -0.143586,0.02044 -0.122896,0.677827 -0.122896,0.677827 l 0,1.068081 -0.698261,-0.513372 0,-2.8757568 c 0.22585,0.246675 0.513412,0.5751577 0.739667,0.7805084 z"
     id="path4796"
     style="fill:#ffffff;stroke:none" />
  <path
     inkscape:connector-curvature="0"
     d="m 28.284017,11.410833 -0.266733,0.06184 c -0.02144,-0.102707 0,-0.431577 0,-0.431577 0,0 0.122896,-0.143577 0.266733,-0.164029 0,0 0,0.410703 0,0.533834 z"
     id="path4798"
     style="fill:#ffffff;stroke:none" />
  <path
     inkscape:connector-curvature="0"
     d="m 28.407565,13.033609 c 0.122897,0.205349 0.390278,0.225801 0.308015,0.554282 -0.20541,0.226229 -0.431559,0 -0.698266,0 -0.184868,0 -0.349394,0.143996 -0.513811,0 -0.06142,-0.410703 0.410717,-0.472061 0.47254,-0.86273 l 0,-0.266707 c 0,0 0.267131,0.02044 0.349394,0.102707 0,0 -0.01995,0.390257 0.08282,0.472475 z"
     id="path4800"
     style="fill:#ffffff;stroke:none" />
  <path
     inkscape:connector-curvature="0"
     d="m 30.009475,13.546988 c -0.01995,0.965398 0.595556,0.965398 0.472539,1.417424 -0.184867,0.0613 -0.554683,-0.123145 -0.84224,-0.164456 -0.390277,-0.0617 -0.698259,-0.02044 -0.760102,-0.123145 0.143986,-0.493351 0.47254,-0.965399 0.47254,-1.5201 0.226249,0.123145 0.47254,0.246674 0.657388,0.390256 z"
     id="path4802"
     style="fill:#ffffff;stroke:none" />
  <path
     inkscape:connector-curvature="0"
     d="M 31.817142,12.417137 C 31.590893,12.191338 31.694246,11.698401 31.550011,11.267251 30.974891,9.4595708 29.721868,9.5008917 28.674662,7.3647372 28.613239,7.3438976 28.571809,7.2411928 28.489396,7.2411928 28.345809,7.1384837 28.386543,9.06932 28.386543,9.06932 l -0.328952,0.3902568 c 0,0 0,-1.6841323 0,-2.4850854 0,-0.2875723 -0.410718,-0.2875723 -0.513413,-0.5546953 0.06142,-0.1231456 0.08282,-0.1027092 0.122897,-0.1231456 0.205408,-0.020442 0.47254,0.020442 0.69826,0.020442 0.24669,0.020442 0.390277,-0.1027091 0.431558,0.020442 -0.06142,1.0063085 0.595551,0.9449501 0.985817,1.3556525 1.026825,0.8218196 1.334818,1.9512546 1.930808,2.957981 0.205408,0.02044 0.308013,-0.328899 0.492981,-0.164457 l 0,1.68413 -0.390277,0.246261 z"
     id="path4808"
     style="fill:#ffffff;stroke:none" />
  <path
     inkscape:connector-curvature="0"
     d="m 32.227845,12.417137 c 0.164427,0.0617 0.22585,0.08228 0.328455,0.308019 0.06142,0.185316 0.06142,0.431563 0,0.596019 -0.102853,0.266713 -0.451601,0.492921 -0.780534,0.492921 -1.86904,0.02044 -3.122009,-2.218378 -5.13504,-1.581456 -0.08147,-0.0617 -0.01995,-0.184902 -0.04139,-0.267121 0.924515,-1.06808 1.52011,-2.3210564 2.546865,-3.3478142 l 0,1.2116598 c -0.554683,0.7391874 -1.704583,1.0680834 -2.115286,1.9925784 0.143587,0.143576 0.718696,-0.08268 1.170272,-0.143995 0.595949,-0.08228 0.986221,0.164457 1.150368,0.287571 1.150234,0.821407 1.684547,2.156607 2.896204,1.499232 0.06142,-0.0613 0.164427,-0.123146 0.122896,-0.2258 -0.102852,-0.184902 -0.411116,-0.123146 -0.411116,-0.369806 -0.04139,-0.184903 0.01995,-0.410702 0.267131,-0.452028 z"
     id="path4810"
     style="fill:#ffffff;stroke:none" />
  <use
     height="1052.3622"
     width="744.09448"
     y="0"
     x="0"
     transform="translate(0.02292134,-0.53388568)"
     id="use17247"
     xlink:href="#use17245"
     style="fill:#ffffff;fill-opacity:1" />
  <use
     height="1052.3622"
     width="744.09448"
     y="0"
     x="0"
     transform="translate(-0.18217623,-0.53291378)"
     id="use17245"
     xlink:href="#use17243"
     style="fill:#ffffff;fill-opacity:1" />
  <use
     height="1052.3622"
     width="744.09448"
     y="0"
     x="0"
     transform="matrix(0.2031957,0.72028681,-0.72028719,0.2031957,30.667911,-15.737285)"
     id="use16810"
     xlink:href="#path4864"
     style="fill:#ffffff;fill-opacity:1;stroke:#ffffff;stroke-opacity:1" />
  <use
     height="1052.3622"
     width="744.09448"
     y="0"
     x="0"
     transform="matrix(0.0375582,0.6374796,-0.6374798,0.0375582,34.355136,-12.439505)"
     id="use16814"
     xlink:href="#path4864"
     style="fill:#ffffff;fill-opacity:1;stroke:#ffffff;stroke-opacity:1" />
  <use
     height="1052.3622"
     width="744.09448"
     y="0"
     x="0"
     transform="matrix(-0.03313882,0.57362584,-0.57362596,-0.03313882,35.566677,-10.33299)"
     id="use16816"
     xlink:href="#path4864"
     style="fill:#ffffff;fill-opacity:1;stroke:#ffffff;stroke-opacity:1" />
  <use
     height="1052.3622"
     width="744.09448"
     y="0"
     x="0"
     transform="matrix(-0.09811271,0.50517322,-0.50369538,-0.09840061,36.566414,-8.0350829)"
     id="use16818"
     xlink:href="#path4864"
     style="fill:#ffffff;fill-opacity:1;stroke:#ffffff;stroke-opacity:1" />
  <path
     inkscape:connector-curvature="0"
     d="m 26.086859,3.2898872 c -0.0349,-0.044621 0.07344,-0.2836037 0.278498,-0.4778995 0.215978,-0.2088488 0.441033,-0.3042393 0.485106,-0.2745647 0.03489,0.044621 -0.07214,0.2838081 -0.288373,0.4926021 -0.205657,0.1943308 -0.428466,0.3020506 -0.475231,0.2598571 z"
     id="use17158"
     style="fill:#ffffff;fill-opacity:1;fill-rule:evenodd;stroke:#ffffff;stroke-width:0.03607596;stroke-linecap:butt;stroke-linejoin:miter;stroke-miterlimit:2.61299992;stroke-opacity:1" />
  <path
     inkscape:connector-curvature="0"
     d="m 28.308969,15.04658 c 0.07748,0.04567 0.06277,0.465116 -0.125538,0.877247 -0.194989,0.440048 -0.471992,0.717134 -0.555351,0.699584 -0.07748,-0.04542 -0.06277,-0.465235 0.132219,-0.905042 0.188607,-0.412358 0.454491,-0.706261 0.549473,-0.671776 z"
     id="path17134"
     style="fill:#ffffff;fill-opacity:1;fill-rule:evenodd;stroke:#ffffff;stroke-width:0.05780379;stroke-linecap:butt;stroke-linejoin:miter;stroke-miterlimit:2.61299992;stroke-opacity:1" />
  <use
     height="1052.3622"
     width="744.09448"
     y="0"
     x="0"
     transform="matrix(0.9507289,0.03511429,-0.03511431,0.9507289,1.2849223,-0.60606394)"
     id="use16786"
     xlink:href="#path4864"
     style="fill:#ffffff;fill-opacity:1;stroke:#ffffff;stroke-opacity:1" />
  <use
     height="1052.3622"
     width="744.09448"
     y="0"
     x="0"
     transform="matrix(0.9255256,0.08451297,-0.08451291,0.9255256,2.157851,-2.1792606)"
     id="use16788"
     xlink:href="#path4864"
     style="fill:#ffffff;fill-opacity:1;stroke:#ffffff;stroke-opacity:1" />
  <use
     height="1052.3622"
     width="744.09448"
     y="0"
     x="0"
     transform="matrix(0.1759635,0.44443313,0.44443327,-0.1759635,22.251189,-5.6965369)"
     id="use16948"
     xlink:href="#path4864"
     style="fill:#ffffff;fill-opacity:1;stroke:#ffffff;stroke-opacity:1" />
  <use
     height="1052.3622"
     width="744.09448"
     y="0"
     x="0"
     transform="matrix(0.4064686,-0.25152972,-0.25152988,-0.4064686,27.538292,17.291585)"
     id="use17030"
     xlink:href="#path4864"
     style="fill:#ffffff;fill-opacity:1;stroke:#ffffff;stroke-opacity:1" />
  <path
     inkscape:connector-curvature="0"
     d="M 34.282054,3.2898872 C 34.316964,3.2452662 34.208614,3.0062835 34.003556,2.8119877 33.787578,2.6031389 33.562523,2.5077484 33.51845,2.537423 c -0.03489,0.044621 0.07214,0.2838081 0.288372,0.4926021 0.205658,0.1943308 0.428467,0.3020506 0.475232,0.2598571 z"
     id="use17164"
     style="fill:#ffffff;fill-opacity:1;fill-rule:evenodd;stroke:#ffffff;stroke-width:0.03607596;stroke-linecap:butt;stroke-linejoin:miter;stroke-miterlimit:2.61299992;stroke-opacity:1" />
  <use
     height="1052.3622"
     width="744.09448"
     y="0"
     x="0"
     transform="matrix(0.7640298,6.9577303e-4,6.8831669e-4,-0.7723067,15.276421,22.843662)"
     id="use17042"
     xlink:href="#path4864"
     style="fill:#ffffff;fill-opacity:1;stroke:#ffffff;stroke-opacity:1" />
  <use
     height="1052.3622"
     width="744.09448"
     y="0"
     x="0"
     transform="matrix(0.7992523,0.05167681,0.05167683,-0.7992523,13.381778,22.697479)"
     id="use17044"
     xlink:href="#path4864"
     style="fill:#ffffff;fill-opacity:1;stroke:#ffffff;stroke-opacity:1" />
  <use
     height="1052.3622"
     width="744.09448"
     y="0"
     x="0"
     transform="matrix(0.8253097,0.10853594,0.10853606,-0.8253097,11.572975,22.362821)"
     id="use17046"
     xlink:href="#path4864"
     style="fill:#ffffff;fill-opacity:1;stroke:#ffffff;stroke-opacity:1" />
  <use
     height="1052.3622"
     width="744.09448"
     y="0"
     x="0"
     transform="matrix(0.8372931,0.12352035,0.12352045,-0.8372931,10.811074,22.859533)"
     id="use17048"
     xlink:href="#path4864"
     style="fill:#ffffff;fill-opacity:1;stroke:#ffffff;stroke-opacity:1" />
  <use
     height="1052.3622"
     width="744.09448"
     y="0"
     x="0"
     transform="matrix(0.8357628,0.13129985,0.13129995,-0.8357628,10.505579,23.300527)"
     id="use17050"
     xlink:href="#path4864"
     style="fill:#ffffff;fill-opacity:1;stroke:#ffffff;stroke-opacity:1" />
  <use
     height="1052.3622"
     width="744.09448"
     y="0"
     x="0"
     transform="matrix(0.8598048,0.15335148,0.15335152,-0.8598048,9.2082957,23.76816)"
     id="use17052"
     xlink:href="#path4864"
     style="fill:#ffffff;fill-opacity:1;stroke:#ffffff;stroke-opacity:1" />
  <use
     height="1052.3622"
     width="744.09448"
     y="0"
     x="0"
     transform="matrix(0.8435017,0.18001549,0.18001551,-0.8435017,8.8526241,23.376353)"
     id="use17054"
     xlink:href="#path4864"
     style="fill:#ffffff;fill-opacity:1;stroke:#ffffff;stroke-opacity:1" />
  <use
     height="1052.3622"
     width="744.09448"
     y="0"
     x="0"
     transform="matrix(0.8765505,0.30645399,0.30645421,-0.8765505,5.4221934,21.217023)"
     id="use17056"
     xlink:href="#path4864"
     style="fill:#ffffff;fill-opacity:1;stroke:#ffffff;stroke-opacity:1" />
  <use
     height="1052.3622"
     width="744.09448"
     y="0"
     x="0"
     transform="matrix(0.8408447,0.36258003,0.36258017,-0.8408447,4.9060018,19.679551)"
     id="use17068"
     xlink:href="#path4864"
     style="fill:#ffffff;fill-opacity:1;stroke:#ffffff;stroke-opacity:1" />
  <use
     height="1052.3622"
     width="744.09448"
     y="0"
     x="0"
     transform="matrix(0.8450975,0.47097311,0.47097329,-0.8450975,2.3712364,17.426271)"
     id="use17066"
     xlink:href="#path4864"
     style="fill:#ffffff;fill-opacity:1;stroke:#ffffff;stroke-opacity:1" />
  <path
     inkscape:connector-curvature="0"
     d="m 32.04723,15.04658 c -0.07748,0.04567 -0.06277,0.465116 0.125538,0.877247 0.19499,0.440048 0.471992,0.717134 0.555352,0.699584 0.07748,-0.04542 0.06277,-0.465235 -0.13222,-0.905042 -0.188607,-0.412358 -0.454491,-0.706261 -0.549473,-0.671776 z"
     id="path17034"
     style="fill:#ffffff;fill-opacity:1;fill-rule:evenodd;stroke:#ffffff;stroke-width:0.05780379;stroke-linecap:butt;stroke-linejoin:miter;stroke-miterlimit:2.61299992;stroke-opacity:1" />
  <path
     inkscape:connector-curvature="0"
     d="m 34.421842,17.762359 c 0.04139,-0.08228 -0.205807,-0.431149 -0.595551,-0.677826 -0.411118,-0.266707 -0.801375,-0.348931 -0.862679,-0.287572 -0.04138,0.08228 0.205259,0.431563 0.615987,0.698275 0.390279,0.246675 0.780536,0.349344 0.842243,0.267121 z"
     id="path16944"
     style="fill:#ffffff;fill-opacity:1;fill-rule:evenodd;stroke:#ffffff;stroke-width:0.05885063;stroke-linecap:butt;stroke-linejoin:miter;stroke-miterlimit:2.61299992;stroke-opacity:1" />
  <use
     height="1052.3622"
     width="744.09448"
     y="0"
     x="0"
     transform="matrix(0.7644352,0.03035057,0.03035057,-0.7644352,14.766784,21.107271)"
     id="use17040"
     xlink:href="#path4864"
     style="fill:#ffffff;fill-opacity:1;stroke:#ffffff;stroke-opacity:1" />
  <use
     height="1052.3622"
     width="744.09448"
     y="0"
     x="0"
     transform="matrix(0.7166032,-0.00527678,-0.00527678,-0.7166032,16.596076,20.424411)"
     id="use17038"
     xlink:href="#path4864"
     style="fill:#ffffff;fill-opacity:1;stroke:#ffffff;stroke-opacity:1" />
  <use
     height="1052.3622"
     width="744.09448"
     y="0"
     x="0"
     transform="matrix(0.7172488,-0.05658987,-0.05658989,-0.7172488,17.371355,20.986419)"
     id="use17058"
     xlink:href="#path4864"
     style="fill:#ffffff;fill-opacity:1;stroke:#ffffff;stroke-opacity:1" />
  <use
     height="1052.3622"
     width="744.09448"
     y="0"
     x="0"
     transform="matrix(0.6675966,-0.12115995,-0.12116005,-0.6675966,19.618041,21.05916)"
     id="use17036"
     xlink:href="#path4864"
     style="fill:#ffffff;fill-opacity:1;stroke:#ffffff;stroke-opacity:1" />
  <use
     height="1052.3622"
     width="744.09448"
     y="0"
     x="0"
     transform="matrix(0.5848277,-0.16276058,-0.16276062,-0.5848277,22.332227,19.965758)"
     id="use17060"
     xlink:href="#path4864"
     style="fill:#ffffff;fill-opacity:1;stroke:#ffffff;stroke-opacity:1" />
  <use
     height="1052.3622"
     width="744.09448"
     y="0"
     x="0"
     transform="matrix(0.5162633,-0.25222441,-0.25222459,-0.5162633,25.351151,20.428359)"
     id="use17062"
     xlink:href="#path4864"
     style="fill:#ffffff;fill-opacity:1;stroke:#ffffff;stroke-opacity:1" />
  <path
     inkscape:connector-curvature="0"
     d="m 30.411084,-1.5313106 c -0.161485,-0.01765 -0.440881,0.050221 -0.563497,0.052225 0.04138,0.062241 0.101507,0.1495097 0.08282,0.2399992 l -0.333889,1.34605196 -0.01043,0.0208396 0.02144,0.0104165 c 0.281141,0.18078955 0.36515,0.42077381 0.36515,0.53216321 0.0031,0.025626 -0.0025,0.046865 -0.01043,0.052225 -0.008,0.00528 -0.02543,-0.00443 -0.05211,-0.031261 l -0.04138,0.36520833 0.667808,0 c -0.232382,-0.00623 -0.04687,-0.21245811 -0.07344,-0.35476843 -0.01596,0.024978 -0.0334,0.023931 -0.04139,0.02084 -0.008,-0.00307 -0.02144,-0.01735 -0.02144,-0.052225 0.01995,-0.1210068 0.07479,-0.35150836 0.375568,-0.53216371 l 0.02144,-0.0104164 -0.01043,-0.0208396 -0.323469,-1.35648676 c -0.01745,-0.043824 -0.0065,-0.086147 0.01043,-0.1252794 0.01745,-0.039137 0.03988,-0.067451 0.05211,-0.1043103 -0.01596,-0.030163 -0.06142,-0.046366 -0.114869,-0.052225 z m -0.219169,0.323474 0.260849,1.06432726 -0.260849,0.25042914 -0.260849,-0.25042914 0.260849,-1.06432726 z"
     id="path4984"
     style="fill:#ffffff;stroke-width:0.14750001;stroke-linecap:butt;stroke-linejoin:miter;stroke-miterlimit:2.61299992" />
  <path
     inkscape:connector-curvature="0"
     d="m 29.783665,-1.7550252 c 0,-0.2258001 0.184868,-0.431149 0.410718,-0.431149 0.225849,0 0.410717,0.2053489 0.410717,0.431149 0,0.246675 -0.184868,0.431149 -0.410717,0.431149 -0.22585,0 -0.410718,-0.1844889 -0.410718,-0.431149 z"
     id="path4986"
     style="fill:#ffffff;fill-opacity:1;fill-rule:evenodd;stroke:#ffffff;stroke-width:0.0492509;stroke-linecap:butt;stroke-linejoin:miter;stroke-miterlimit:2.61299992;stroke-opacity:1" />
  <use
     height="1052.3622"
     width="744.09448"
     y="0"
     x="0"
     transform="translate(0.48909169,-0.21434192)"
     id="use17253"
     xlink:href="#use17251"
     style="fill:#ffffff;fill-opacity:1" />
  <use
     height="1052.3622"
     width="744.09448"
     y="0"
     x="0"
     transform="translate(0.551662,-0.01822194)"
     id="use17255"
     xlink:href="#use17253"
     style="fill:#ffffff;fill-opacity:1" />
  <use
     height="1052.3622"
     width="744.09448"
     y="0"
     x="0"
     transform="translate(0.51908621,0.14190152)"
     id="use17257"
     xlink:href="#use17255"
     style="fill:#ffffff;fill-opacity:1" />
  <use
     height="1052.3622"
     width="744.09448"
     y="0"
     x="0"
     transform="translate(0.32498382,-0.40413232)"
     id="use17251"
     xlink:href="#use17249"
     style="fill:#ffffff;fill-opacity:1" />
  <use
     height="1052.3622"
     width="744.09448"
     y="0"
     x="0"
     transform="translate(0.20357313,-0.5137583)"
     id="use17249"
     xlink:href="#use17247"
     style="fill:#ffffff;fill-opacity:1" />
  <use
     height="1052.3622"
     width="744.09448"
     y="0"
     x="0"
     transform="translate(0.5478454,0.02029043)"
     id="use17265"
     xlink:href="#use17263" />
  <path
     inkscape:connector-curvature="0"
     d="m 28.23941,-1.421747 c -0.0048,0.087882 -0.03988,0.099104 -0.102853,0.099104 -0.06142,1.6e-6 -0.09348,-0.01391 -0.09348,-0.083475 l -0.354729,0.083475 c 0.04139,0.071988 0.02393,0.1081831 -0.02941,0.1395584 -0.05345,0.031659 -0.09882,-0.020042 -0.149969,-0.082139 l -0.247737,0.2452042 c 0.04936,0.0438242 0.0668,0.0898865 0.02792,0.13695575 -0.03739,0.0470142 -0.109536,5.18e-5 -0.163081,-0.024829 l -0.16308,0.30651271 c 0.05339,0.0426267 0.09752,0.0610388 0.06945,0.14217564 -0.02941,0.0822731 -0.08282,0.058636 -0.151315,0.0470142 l -0.07613,0.34695128 c 0.09348,0.01695108 0.100162,0.03754178 0.100162,0.09910428 0,0.0615725 -0.03589,0.0821386 -0.104198,0.0834751 l -0.0039,0.35476871 c 0.08011,0.00524 0.144783,0.029515 0.155203,0.080808 0.01043,0.051287 0.01,0.099903 -0.05076,0.1304894 L 27.01368,1.0029664 c 0.122896,0 0.121551,0.037542 0.163081,0.1369558 0.04288,0.1005709 0.06013,0.1247459 0.01745,0.1826044 l 0.06681,0.3286839 c 0.118857,0.00228 0.183372,0.1307586 0.242552,0.3104266 0.05878,0.1785609 -0.0085,0.2276297 -0.06013,0.3365113 l 0.09882,0.2817342 c 0.01995,0.020442 0.04139,0.042229 0.04139,0.083475 0,0.061303 -0.01895,0.124746 0.08282,0.083475 0.304773,-0.1016428 1.093467,-0.4918393 2.483422,-0.4799935 0.871621,-0.026423 1.739199,0.1572575 2.546022,0.4799935 0.03091,0.010316 0.06013,0.011367 0.07344,0.010416 0.03489,-0.019244 0.007,-0.064244 0.01043,-0.093895 0,-0.041281 0.02144,-0.063044 0.06277,-0.083475 l 0.08949,-0.2908579 C 32.885177,2.2258467 32.835877,2.10691 32.889167,1.9238069 32.941277,1.7419105 33.031159,1.6835983 33.134411,1.6512065 L 33.23991,1.3525212 c -0.0708,-0.073593 -0.0868,-0.091357 -0.04288,-0.212603 0.04387,-0.1216748 0.08147,-0.1304894 0.152661,-0.1369558 l 0.129577,-0.31173223 c -0.04138,-0.040882 -0.06676,-0.075063 -0.04138,-0.1460746 0.02543,-0.072257 0.06277,-0.082139 0.124193,-0.082139 l 0.02293,-0.34564509 c -0.07214,-0.0208396 -0.102852,0.007681 -0.104198,-0.0834751 -0.0016,-0.09242379 0.04288,-0.078 0.08814,-0.10297819 l -0.0668,-0.34564502 c -0.06411,5.3148e-4 -0.105499,0.0397855 -0.143438,-0.0456687 -0.03889,-0.0881519 0.02543,-0.11152436 0.06012,-0.13825203 l -0.163081,-0.30913017 c -0.07214,0.0300631 -0.117561,0.0699887 -0.161734,0.0130626 -0.04387,-0.0563632 0.0021,-0.10391105 0.0334,-0.15521327 l -0.272658,-0.2217403 c -0.05076,0.047962 -0.04936,0.1169982 -0.129577,0.082139 -0.08011,-0.03445 -0.0334,-0.089353 -0.03739,-0.133027 l -0.341767,-0.088685 c -0.02393,0.056632 -0.01595,0.098168 -0.108189,0.088685 -0.09083,-0.00932 -0.07479,-0.046217 -0.09348,-0.1043103 l -0.344309,0.041829 c -0.0055,0.087484 0.01147,0.1059148 -0.06411,0.1330271 -0.07479,0.026972 -0.09752,-0.032207 -0.134363,-0.074396 l -0.318284,0.1447783 c 0.02144,0.07306 0.02792,0.1012391 -0.03988,0.1343483 -0.0681,0.032606 -0.113523,-0.042877 -0.142091,-0.076934 L 30.77915,-1.001607 c 0.0085,0.10217531 -0.128231,0.12781693 -0.251775,0.12781693 l -0.03091,0.26085901 c 0.413111,-0.005685 1.267103,-0.70089204 1.863577,-0.55239794 0.60423,0.150442 0.92037,0.65879371 0.922509,1.19933124 0.0021,0.54051111 -0.173102,0.91472474 -0.354728,1.34605166 l -1.231307,-0.3860736 -3.015575,0 -1.231306,0.3860736 C 27.238481,0.9518164 27.114637,0.59850377 27.105314,0.03400128 c -0.0094,-0.5645125 0.428616,-1.19950528 0.991296,-1.22083538 0.562831,-0.021388 1.192444,0.38293773 1.79474,0.57390208 L 29.84997,-0.8737912 c -0.102853,0 -0.250429,-0.0426278 -0.250429,-0.10431023 l -0.31305,-0.14086947 c -0.04139,0.045021 -0.06546,0.1003062 -0.135708,0.067849 -0.0708,-0.032706 -0.0708,-0.076934 -0.04687,-0.1343484 L 28.780502,-1.325021 c -0.0334,0.061039 -0.03889,0.105382 -0.128231,0.080808 -0.08949,-0.02443 -0.05608,-0.073459 -0.06142,-0.1369556 l -0.349543,-0.040484 z"
     id="path5002"
     style="fill:#ffffff;fill-opacity:1;stroke:none" />
  <path
     inkscape:connector-curvature="0"
     d="m 29.616137,-1.032436 c 1.1e-4,0.10044073 -0.08147,0.18187147 -0.181627,0.18187147 -0.100162,0 -0.181777,-0.0814759 -0.181628,-0.18187147 -8.9e-5,-0.1004364 0.08147,-0.1818715 0.181628,-0.1818715 0.100161,0 0.181776,0.081476 0.181627,0.1818715 z"
     id="path17237"
     style="fill:#ffffff;fill-opacity:1;fill-rule:nonzero" />
  <path
     inkscape:connector-curvature="0"
     d="M 28.777676,1.530043 29.20026,1.798261 28.958505,2.2110728 28.543549,1.9556879 28.777676,1.530053 z"
     id="path5008"
     style="fill:#002776;fill-opacity:1;stroke:none" />
  <path
     inkscape:connector-curvature="0"
     d="m 28.313362,-0.43164536 -0.01043,0.0208396 c 0,0 -0.251077,0.2887489 -0.14613,0.75128487 0.101507,0.46863112 0.52623,0.87165119 0.553079,0.89736159 l 0.0521,0.010416 c 0,0 0.188308,-0.59209233 0.08416,-1.07475792 -0.12553,-0.4832784 -0.511265,-0.59476346 -0.511265,-0.59476346 l -0.02144,-0.0104164 z"
     id="path5006"
     style="fill:#ffffff;fill-opacity:1;stroke:none" />
  <use
     height="1052.3622"
     width="744.09448"
     y="0"
     x="0"
     transform="translate(1.3768373,-0.3339045)"
     id="use17194"
     xlink:href="#path5018"
     style="fill:#c60c30;fill-opacity:1" />
  <path
     inkscape:connector-curvature="0"
     d="m 29.586368,0.39268168 c -0.14224,-0.050888 -0.29904,-0.043674 -0.448609,0.031261 C 28.9322,0.52678628 28.803471,0.73594454 28.793451,0.956106 l 0,0.031261 c 0.375967,-0.0873488 0.759563,-0.1356292 1.147831,-0.16695396 0.0681,0.00917 -0.0075,-0.087349 -0.01043,-0.12514476 -0.07478,-0.1492563 -0.202066,-0.2517513 -0.344307,-0.30259989 z"
     id="path5024"
     style="fill:#ffffff;fill-opacity:1;stroke:none" />
  <path
     inkscape:connector-curvature="0"
     d="m 29.968568,-1.7550252 c 0,-0.1231455 0.102852,-0.2462611 0.225849,-0.2462611 0.122898,0 0.225851,0.1231455 0.225851,0.2462611 0,0.1439906 -0.102852,0.246675 -0.225851,0.246675 -0.122896,0 -0.225849,-0.1027091 -0.225849,-0.246675"
     id="path5028"
     style="fill:#ffffff" />
  <use
     height="1052.3622"
     width="744.09448"
     y="0"
     x="0"
     transform="translate(-1.8597424,3.4473875)"
     id="use17239"
     xlink:href="#path17237" />
  <use
     height="1052.3622"
     width="744.09448"
     y="0"
     x="0"
     transform="translate(-5.5302315,0.92512941)"
     id="use17154"
     xlink:href="#use17152"
     style="fill:#002776;fill-opacity:1;stroke:none" />
  <use
     height="1052.3622"
     width="744.09448"
     y="0"
     x="0"
     transform="translate(0.52385842,-0.14756632)"
     id="use17263"
     xlink:href="#use17261" />
  <use
     height="1052.3622"
     width="744.09448"
     y="0"
     x="0"
     transform="translate(0.50172711,-0.19921464)"
     id="use17261"
     xlink:href="#use17259" />
  <use
     height="1052.3622"
     width="744.09448"
     y="0"
     x="0"
     transform="translate(2.0124816,0.20426231)"
     id="use17259"
     xlink:href="#use17257" />
  <use
     height="1052.3622"
     width="744.09448"
     y="0"
     x="0"
     transform="translate(0.47220656,0.21028198)"
     id="use17267"
     xlink:href="#use17265" />
  <use
     height="1052.3622"
     width="744.09448"
     y="0"
     x="0"
     transform="translate(0.34862079,0.40580735)"
     id="use17269"
     xlink:href="#use17267" />
  <use
     height="1052.3622"
     width="744.09448"
     y="0"
     x="0"
     transform="translate(-0.17523118,0.54230618)"
     id="use17275"
     xlink:href="#use17273" />
  <use
     height="1052.3622"
     width="744.09448"
     y="0"
     x="0"
     transform="matrix(-0.99999991,0,0,0.99999998,60.380868,-2.0420984e-8)"
     id="use17205"
     xlink:href="#path5006" />
  <use
     height="1052.3622"
     width="744.09448"
     y="0"
     x="0"
     transform="translate(2.9670512,-0.3339045)"
     id="use17196"
     xlink:href="#path5018"
     style="fill:#c60c30;fill-opacity:1" />
  <path
     inkscape:connector-curvature="0"
     d="m 30.19382,1.4961291 c 0.159989,0 0.302229,0.1414928 0.302229,0.323833 0,0.1596205 -0.14224,0.3022351 -0.302229,0.3022351 -0.15999,0 -0.302231,-0.1426295 -0.302231,-0.3022351 0,-0.1823252 0.142241,-0.323833 0.302231,-0.323833 z"
     id="path5066"
     style="fill:#002776;fill-opacity:1;stroke:none" />
  <use
     height="1052.3622"
     width="744.09448"
     y="0"
     x="0"
     transform="matrix(-0.99999992,0,0,1,60.386103,0)"
     id="use17192"
     xlink:href="#path5018"
     style="fill:#c60c30;fill-opacity:1" />
  <use
     height="1052.3622"
     width="744.09448"
     y="0"
     x="0"
     transform="matrix(-0.9797666,-0.20014363,-0.20014357,0.9797666,61.359031,6.2344647)"
     id="use17219"
     xlink:href="#path5024" />
  <use
     height="1052.3622"
     width="744.09448"
     y="0"
     x="0"
     transform="matrix(-0.99999991,0,0,0.99999998,60.382215,-2.0420984e-8)"
     id="use17215"
     xlink:href="#path5024" />
  <path
     inkscape:connector-curvature="0"
     d="m 29.968568,-1.7550252 c 0,-0.1231455 0.102852,-0.2462611 0.225849,-0.2462611 0.122898,0 0.225851,0.1231455 0.225851,0.2462611 0,0.1439906 -0.102852,0.246675 -0.225851,0.246675 -0.122896,0 -0.225849,-0.1027091 -0.225849,-0.246675"
     id="path5084"
     style="fill:#002776;fill-opacity:1;stroke:none" />
  <use
     height="1052.3622"
     width="744.09448"
     y="0"
     x="0"
     transform="translate(-0.25640008,0.64929186)"
     id="use17277"
     xlink:href="#use17275"
     style="fill:none" />
  <use
     height="1052.3622"
     width="744.09448"
     y="0"
     x="0"
     transform="translate(0.31033239,-0.92480472)"
     id="use17152"
     xlink:href="#use17150"
     style="fill:#002776;fill-opacity:1;stroke:none" />
  <use
     height="1052.3622"
     width="744.09448"
     y="0"
     x="0"
     transform="translate(-0.31910733,0.92782352)"
     id="use17279"
     xlink:href="#use17277" />
  <use
     height="1052.3622"
     width="744.09448"
     y="0"
     x="0"
     transform="translate(5.5462107,0.92480481)"
     id="use17150"
     xlink:href="#path5034"
     style="fill:#002776;fill-opacity:1;stroke:none" />
  <use
     height="1052.3622"
     width="744.09448"
     y="0"
     x="0"
     transform="translate(0.1918336,0.51279296)"
     id="use17271"
     xlink:href="#use17269" />
  <use
     height="1052.3622"
     width="744.09448"
     y="0"
     x="0"
     transform="translate(0.02398636,0.52939416)"
     id="use17273"
     xlink:href="#use17271" />
  <use
     height="1052.3622"
     width="744.09448"
     y="0"
     x="0"
     transform="matrix(0.8805247,0.47400021,-0.47400039,0.8805247,6.9837327,-13.463966)"
     id="use16843"
     xlink:href="#path5008"
     style="fill:#002776;fill-opacity:1;stroke:none" />
  <use
     height="1052.3622"
     width="744.09448"
     y="0"
     x="0"
     transform="matrix(-0.124014,0.68471662,0.68471698,0.124014,27.885931,-14.347397)"
     id="use16950"
     xlink:href="#path4864"
     style="fill:#ffffff;fill-opacity:1;stroke:#ffffff;stroke-opacity:1" />
  <use
     height="1052.3622"
     width="744.09448"
     y="0"
     x="0"
     transform="matrix(-0.2696864,0.7419364,0.7419368,0.2696864,31.305407,-16.574146)"
     id="use16952"
     xlink:href="#path4864"
     style="fill:#ffffff;fill-opacity:1;stroke:#ffffff;stroke-opacity:1" />
  <use
     height="1052.3622"
     width="744.09448"
     y="0"
     x="0"
     transform="matrix(-0.3608669,0.77377632,0.77377668,0.3608669,33.31069,-18.089063)"
     id="use16954"
     xlink:href="#path4864"
     style="fill:#ffffff;fill-opacity:1;stroke:#ffffff;stroke-opacity:1" />
  <use
     height="1052.3622"
     width="744.09448"
     y="0"
     x="0"
     transform="matrix(-0.4494532,0.80384784,0.80384816,0.4494532,35.197787,-19.542374)"
     id="use16956"
     xlink:href="#path4864"
     style="fill:#ffffff;fill-opacity:1;stroke:#ffffff;stroke-opacity:1" />
  <use
     height="1052.3622"
     width="744.09448"
     y="0"
     x="0"
     transform="matrix(-0.5382972,0.75295231,0.75295269,0.5382972,38.429365,-18.853139)"
     id="use16958"
     xlink:href="#path4864"
     style="fill:#ffffff;fill-opacity:1;stroke:#ffffff;stroke-opacity:1" />
  <use
     height="1052.3622"
     width="744.09448"
     y="0"
     x="0"
     transform="matrix(-0.6335479,0.62059911,0.62059929,0.6335479,43.168942,-16.142323)"
     id="use16960"
     xlink:href="#path4864"
     style="fill:#ffffff;fill-opacity:1;stroke:#ffffff;stroke-opacity:1" />
  <use
     height="1052.3622"
     width="744.09448"
     y="0"
     x="0"
     transform="matrix(-0.7138929,0.59712323,0.59712337,0.7138929,45.590259,-16.110961)"
     id="use16962"
     xlink:href="#path4864"
     style="fill:#ffffff;fill-opacity:1;stroke:#ffffff;stroke-opacity:1" />
  <use
     height="1052.3622"
     width="744.09448"
     y="0"
     x="0"
     transform="matrix(-0.7596561,0.50204764,0.50204776,0.7596561,48.21924,-13.549224)"
     id="use16964"
     xlink:href="#path4864"
     style="fill:#ffffff;fill-opacity:1;stroke:#ffffff;stroke-opacity:1" />
  <use
     height="1052.3622"
     width="744.09448"
     y="0"
     x="0"
     transform="matrix(-0.8562009,0.42858312,0.42858328,0.8562009,51.798735,-12.503102)"
     id="use16966"
     xlink:href="#path4864"
     style="fill:#ffffff;fill-opacity:1;stroke:#ffffff;stroke-opacity:1" />
  <use
     height="1052.3622"
     width="744.09448"
     y="0"
     x="0"
     transform="matrix(-0.892244,0.2633903,0.2633905,0.892244,55.252371,-7.921805)"
     id="use16968"
     xlink:href="#path4864"
     style="fill:#ffffff;fill-opacity:1;stroke:#ffffff;stroke-opacity:1" />
  <use
     height="1052.3622"
     width="744.09448"
     y="0"
     x="0"
     transform="matrix(-0.9119239,0.17507038,0.17507042,0.9119239,56.821672,-5.091832)"
     id="use16970"
     xlink:href="#path4864"
     style="fill:#ffffff;fill-opacity:1;stroke:#ffffff;stroke-opacity:1" />
  <use
     height="1052.3622"
     width="744.09448"
     y="0"
     x="0"
     transform="matrix(-0.2031957,0.72028681,0.72028719,0.2031957,29.69645,-15.732455)"
     id="use16972"
     xlink:href="#path4864"
     style="fill:#ffffff;fill-opacity:1;stroke:#ffffff;stroke-opacity:1" />
  <use
     height="1052.3622"
     width="744.09448"
     y="0"
     x="0"
     transform="matrix(-0.0375582,0.6374796,0.6374798,0.0375582,26.009225,-12.434669)"
     id="use16974"
     xlink:href="#path4864"
     style="fill:#ffffff;fill-opacity:1;stroke:#ffffff;stroke-opacity:1" />
  <use
     height="1052.3622"
     width="744.09448"
     y="0"
     x="0"
     transform="matrix(0.03313882,0.57362584,0.57362596,-0.03313882,24.79768,-10.328154)"
     id="use16976"
     xlink:href="#path4864"
     style="fill:#ffffff;fill-opacity:1;stroke:#ffffff;stroke-opacity:1" />
  <use
     height="1052.3622"
     width="744.09448"
     y="0"
     x="0"
     transform="matrix(0.09811271,0.50517322,0.50369538,-0.09840061,23.797947,-8.0302492)"
     id="use16978"
     xlink:href="#path4864"
     style="fill:#ffffff;fill-opacity:1;stroke:#ffffff;stroke-opacity:1" />
  <use
     height="1052.3622"
     width="744.09448"
     y="0"
     x="0"
     transform="matrix(-0.9507289,0.03511429,0.03511431,0.9507289,59.079445,-0.60123033)"
     id="use16980"
     xlink:href="#path4864"
     style="fill:#ffffff;fill-opacity:1;stroke:#ffffff;stroke-opacity:1" />
  <use
     height="1052.3622"
     width="744.09448"
     y="0"
     x="0"
     transform="matrix(-0.9255256,0.08451297,0.08451291,0.9255256,58.206523,-2.174426)"
     id="use16982"
     xlink:href="#path4864"
     style="fill:#ffffff;fill-opacity:1;stroke:#ffffff;stroke-opacity:1" />
  <use
     height="1052.3622"
     width="744.09448"
     y="0"
     x="0"
     transform="matrix(0.4469332,-0.25510161,-0.25489989,-0.445441,26.883926,18.641258)"
     id="use17064"
     xlink:href="#path4864"
     style="fill:#ffffff;fill-opacity:1;stroke:#ffffff;stroke-opacity:1" />
  <use
     height="1052.3622"
     width="744.09448"
     y="0"
     x="0"
     transform="matrix(-0.7640298,6.9577303e-4,-6.8831669e-4,-0.7723067,45.079779,22.843662)"
     id="use17114"
     xlink:href="#path4864"
     style="fill:#ffffff;fill-opacity:1;stroke:#ffffff;stroke-opacity:1" />
  <use
     height="1052.3622"
     width="744.09448"
     y="0"
     x="0"
     transform="matrix(-0.7992523,0.05167681,-0.05167683,-0.7992523,46.974422,22.697479)"
     id="use17116"
     xlink:href="#path4864"
     style="fill:#ffffff;fill-opacity:1;stroke:#ffffff;stroke-opacity:1" />
  <use
     height="1052.3622"
     width="744.09448"
     y="0"
     x="0"
     transform="matrix(-0.8253097,0.10853594,-0.10853606,-0.8253097,48.783223,22.362821)"
     id="use17118"
     xlink:href="#path4864"
     style="fill:#ffffff;fill-opacity:1;stroke:#ffffff;stroke-opacity:1" />
  <use
     height="1052.3622"
     width="744.09448"
     y="0"
     x="0"
     transform="matrix(-0.8372931,0.12352035,-0.12352045,-0.8372931,49.545122,22.859533)"
     id="use17120"
     xlink:href="#path4864"
     style="fill:#ffffff;fill-opacity:1;stroke:#ffffff;stroke-opacity:1" />
  <use
     height="1052.3622"
     width="744.09448"
     y="0"
     x="0"
     transform="matrix(-0.8357628,0.13129985,-0.13129995,-0.8357628,49.850631,23.300527)"
     id="use17122"
     xlink:href="#path4864"
     style="fill:#ffffff;fill-opacity:1;stroke:#ffffff;stroke-opacity:1" />
  <use
     height="1052.3622"
     width="744.09448"
     y="0"
     x="0"
     transform="matrix(-0.8598048,0.15335148,-0.15335152,-0.8598048,51.1479,23.76816)"
     id="use17124"
     xlink:href="#path4864"
     style="fill:#ffffff;fill-opacity:1;stroke:#ffffff;stroke-opacity:1" />
  <use
     height="1052.3622"
     width="744.09448"
     y="0"
     x="0"
     transform="matrix(-0.8435017,0.18001549,-0.18001551,-0.8435017,51.503574,23.376353)"
     id="use17126"
     xlink:href="#path4864"
     style="fill:#ffffff;fill-opacity:1;stroke:#ffffff;stroke-opacity:1" />
  <use
     height="1052.3622"
     width="744.09448"
     y="0"
     x="0"
     transform="matrix(-0.8765505,0.30645399,-0.30645421,-0.8765505,54.934006,21.217023)"
     id="use17128"
     xlink:href="#path4864"
     style="fill:#ffffff;fill-opacity:1;stroke:#ffffff;stroke-opacity:1" />
  <use
     height="1052.3622"
     width="744.09448"
     y="0"
     x="0"
     transform="matrix(-0.8408447,0.36258003,-0.36258017,-0.8408447,55.450196,19.679551)"
     id="use17130"
     xlink:href="#path4864"
     style="fill:#ffffff;fill-opacity:1;stroke:#ffffff;stroke-opacity:1" />
  <use
     height="1052.3622"
     width="744.09448"
     y="0"
     x="0"
     transform="matrix(-0.8450975,0.47097311,-0.47097329,-0.8450975,57.984981,17.426271)"
     id="use17132"
     xlink:href="#path4864"
     style="fill:#ffffff;fill-opacity:1;stroke:#ffffff;stroke-opacity:1" />
  <use
     height="1052.3622"
     width="744.09448"
     y="0"
     x="0"
     transform="matrix(-0.7644352,0.03035057,-0.03035057,-0.7644352,45.589412,21.107271)"
     id="use17136"
     xlink:href="#path4864"
     style="fill:#ffffff;fill-opacity:1;stroke:#ffffff;stroke-opacity:1" />
  <use
     height="1052.3622"
     width="744.09448"
     y="0"
     x="0"
     transform="matrix(-0.7166032,-0.00527678,0.00527678,-0.7166032,43.760113,20.424411)"
     id="use17138"
     xlink:href="#path4864"
     style="fill:#ffffff;fill-opacity:1;stroke:#ffffff;stroke-opacity:1" />
  <use
     height="1052.3622"
     width="744.09448"
     y="0"
     x="0"
     transform="matrix(-0.7172488,-0.05658987,0.05658989,-0.7172488,42.984837,20.986419)"
     id="use17140"
     xlink:href="#path4864"
     style="fill:#ffffff;fill-opacity:1;stroke:#ffffff;stroke-opacity:1" />
  <use
     height="1052.3622"
     width="744.09448"
     y="0"
     x="0"
     transform="matrix(-0.6675966,-0.12115995,0.12116005,-0.6675966,40.738146,21.05916)"
     id="use17142"
     xlink:href="#path4864"
     style="fill:#ffffff;fill-opacity:1;stroke:#ffffff;stroke-opacity:1" />
  <use
     height="1052.3622"
     width="744.09448"
     y="0"
     x="0"
     transform="matrix(-0.5848277,-0.16276058,0.16276062,-0.5848277,38.02397,19.965758)"
     id="use17144"
     xlink:href="#path4864"
     style="fill:#ffffff;fill-opacity:1;stroke:#ffffff;stroke-opacity:1" />
  <use
     height="1052.3622"
     width="744.09448"
     y="0"
     x="0"
     transform="matrix(-0.5162633,-0.25222441,0.25222459,-0.5162633,35.005034,20.428359)"
     id="use17146"
     xlink:href="#path4864"
     style="fill:#ffffff;fill-opacity:1;stroke:#ffffff;stroke-opacity:1" />
  <use
     height="1052.3622"
     width="744.09448"
     y="0"
     x="0"
     transform="matrix(-0.4469332,-0.25510161,0.25489989,-0.445441,33.472273,18.641258)"
     id="use17148"
     xlink:href="#path4864"
     style="fill:#ffffff;fill-opacity:1;stroke:#ffffff;stroke-opacity:1" />
  <path
     inkscape:connector-curvature="0"
     d="m 27.44739,1.3050516 c 0,-0.3262659 0.264588,-0.59125115 0.570572,-0.59125115 0.305571,0 0.570179,0.26498675 0.570179,0.59125115 0,0.3461388 -0.264589,0.6111255 -0.570179,0.6111255 -0.305969,0 -0.570572,-0.2649873 -0.570572,-0.6111255 z"
     id="path5018"
     style="fill:#c60c30;fill-opacity:1" />
  <use
     height="1052.3622"
     width="744.09448"
     y="0"
     x="0"
     transform="matrix(0.9797666,-0.20014363,0.20014357,0.9797666,-0.97149874,6.236311)"
     id="use17217"
     xlink:href="#path5024"
     style="fill:#ffffff;fill-opacity:1;stroke:none" />
  <use
     height="1052.3622"
     width="744.09448"
     y="0"
     x="0"
     transform="translate(-0.2617124,-0.64888276)"
     id="use17243"
     xlink:href="#use17241"
     style="fill:#ffffff;fill-opacity:1" />
  <use
     height="1052.3622"
     width="744.09448"
     y="0"
     x="0"
     transform="translate(-0.30943765,-0.93663696)"
     id="use17241"
     xlink:href="#use17239"
     style="fill:#ffffff;fill-opacity:1" />
  <path
     inkscape:connector-curvature="0"
     d="m 27.175044,1.490108 c 0,-0.061303 0.04138,-0.1027091 0.08282,-0.1027091 0.04138,0 0.08282,0.041281 0.08282,0.1027091 0,0.041281 -0.04139,0.082273 -0.08282,0.082273 -0.04139,0 -0.08282,-0.040882 -0.08282,-0.082273"
     id="path5034"
     style="fill:#002776;fill-opacity:1;stroke:none" />
  <path
     inkscape:connector-curvature="0"
     d="m 30.79967,17.175374 -0.09751,0.768661 c -0.228393,0.168102 -0.712156,0.158055 -0.922515,0.04956 -0.212388,-0.109659 -0.205409,-0.196735 -0.21892,-0.463447 -0.01347,-0.266787 0.129528,-0.440726 0.343511,-0.49669 0.211542,-0.0553 0.407078,-0.0732 0.700933,-0.03554 0,0 0.112177,0.03391 0.19459,0.17748 z"
     id="path4788"
     style="fill:#002776;fill-opacity:1;fill-rule:evenodd;stroke:#ffffff;stroke-width:0.05885063;stroke-linecap:butt;stroke-linejoin:miter;stroke-miterlimit:2.61299992;stroke-opacity:1" />
  <path
     inkscape:connector-curvature="0"
     d="m 30.35882,17.51127 c 0,-0.246676 0.122896,-0.452024 0.267131,-0.452024 0.143587,0 0.266732,0.205348 0.266732,0.452024 0,0.246246 -0.122896,0.4516 -0.266732,0.4516 -0.143986,0 -0.267131,-0.205354 -0.267131,-0.4516 z"
     id="path4982"
     style="fill:#002776;fill-opacity:1;stroke:#ffffff;stroke-width:0.05885063;stroke-linecap:butt;stroke-linejoin:miter;stroke-miterlimit:2.61299992;stroke-opacity:1" />
  <path
     inkscape:connector-curvature="0"
     d="m 30.605081,16.997892 c 0.164426,-0.267121 0.246689,-0.513799 0.205308,-0.719151 -0.01995,-0.2258 -0.451599,-0.205354 -0.698264,-0.2258 0,0 -0.184868,-0.02084 -0.390277,-0.143991 0.06142,0 0.308013,0.02084 0.513412,0.02084 0.246691,0 0.49338,-0.04129 0.554683,-0.04129 0.287573,0 0.554684,0.123546 0.554684,0.390253 -0.01995,0.287573 -0.606774,0.844124 -0.9153,0.92593 l 0.175644,-0.206779 z"
     id="path5096"
     style="fill:#ffffff;fill-opacity:1;fill-rule:evenodd;stroke:none;stroke-width:0.04925090000000000;stroke-linecap:butt;stroke-linejoin:miter;stroke-miterlimit:2.61299992000000000;stroke-opacity:1" />
  <path
     inkscape:connector-curvature="0"
     d="m 30.691123,17.631824 c 0.02941,0.120473 -0.0044,0.271035 -0.05878,0.338152 -0.100162,-0.05089 -0.223307,-0.144674 -0.251925,-0.227176 -0.02792,-0.08133 -0.02543,-0.276459 -0.0045,-0.400234 0.21209,0.03501 0.284731,0.165295 0.315194,0.289244 z"
     id="path3482"
     style="fill:#ffffff;fill-rule:nonzero;stroke:none" />
</svg>
