<?xml version="1.0" encoding="UTF-8" standalone="no"?>
<svg
   xmlns:dc="http://purl.org/dc/elements/1.1/"
   xmlns:cc="http://creativecommons.org/ns#"
   xmlns:rdf="http://www.w3.org/1999/02/22-rdf-syntax-ns#"
   xmlns:svg="http://www.w3.org/2000/svg"
   xmlns="http://www.w3.org/2000/svg"
   xmlns:xlink="http://www.w3.org/1999/xlink"
   xmlns:sodipodi="http://sodipodi.sourceforge.net/DTD/sodipodi-0.dtd"
   xmlns:inkscape="http://www.inkscape.org/namespaces/inkscape"
   version="1.1"
   preserveAspectRatio="xMidYMid meet"
   zoomAndPan="magnify"
   id="Flag_of_New_Zealand"
   viewBox="-15 -7.5 60 30"
   width="2400"
   height="1200"
   inkscape:version="0.48.2 r9819"
   sodipodi:docname="AJAX.svg">
  <metadata
     id="metadata29">
    <rdf:RDF>
      <cc:Work
         rdf:about="">
        <dc:format>image/svg+xml</dc:format>
        <dc:type
           rdf:resource="http://purl.org/dc/dcmitype/StillImage" />
      </cc:Work>
    </rdf:RDF>
  </metadata>
  <sodipodi:namedview
     pagecolor="#ffffff"
     bordercolor="#666666"
     borderopacity="1"
     objecttolerance="10"
     gridtolerance="10"
     guidetolerance="10"
     inkscape:pageopacity="0"
     inkscape:pageshadow="2"
     inkscape:window-width="1280"
     inkscape:window-height="1004"
     id="namedview27"
     showgrid="false"
     inkscape:zoom="2.1466666"
     inkscape:cx="1756.6927"
     inkscape:cy="981.94641"
     inkscape:window-x="-8"
     inkscape:window-y="-8"
     inkscape:window-maximized="1"
     inkscape:current-layer="Flag_of_New_Zealand"
     fit-margin-top="0"
     fit-margin-left="0"
     fit-margin-right="0"
     fit-margin-bottom="0" />
  <defs
     id="defs3">
    <clipPath
       id="border">
      <rect
         x="-15"
         y="-7.5"
         width="30"
         height="15"
         id="rect6" />
    </clipPath>
    <path
       id="star12"
       d="m 0,-0.8746205 0.1963645,0.6043479 0.6354491,0 L 0.3177245,0.103235 0.5140891,0.7075829 0,0.3340753 -0.5140891,0.7075829 -0.3177245,0.103235 l -0.5140891,-0.3735076 0.6354491,0 z"
       inkscape:connector-curvature="0"
       style="fill:#c60c30;stroke:#ffffff;stroke-width:0.125" />
    <clipPath
       id="border-1">
      <rect
         x="-15"
         y="-7.5"
         width="30"
         height="15"
         id="rect6-7" />
    </clipPath>
  </defs>
  <!--The above line is the ensign field color: #C60C30 red and #002776 blue-->
  <path
     inkscape:connector-curvature="0"
     style="fill:#002776;fill-opacity:1"
     d="m -15,-7.5 0,30 60,0 0,-30 z"
     id="rect9"
     sodipodi:nodetypes="ccccc" />
  <g id="canton" transform="translate(-15, -7.5) scale(0.025)">
      <path fill="#000000" d="M 0 0 L 0 600 L 138.0625 425.6875 L 335.53125 305.09375 L 528.25 232.21875 L 664.75 140.1875 L 741.1875 59.375 L 775.375 0 L 0 0 z"/>
      <path fill="#ffffff" d="M 775 0 C 771.401 0 762.99352 10.673695 761 19.75 C 757.75394 34.529252 750.69432 37.278454 753.625 22.625 C 755.3665 13.917499 754.9832 11.954343 752.0625 14.875 C 749.90426 17.033287 747.40304 26.334064 746.25 35.5 C 744.85774 46.567434 745.167 47.018108 743.125 50.6875 C 740.97586 54.549432 739.8698 44.537316 741.0625 35.625 C 742.60136 24.126066 741.94144 21.956178 738.5 25.1875 C 736.11544 27.426446 733.19354 38.231912 732 49.1875 C 730.80646 60.143026 728.0461 69.697872 725.8125 70.4375 C 723.45298 71.218862 722.27682 69.20276 723 65.5625 C 723.68456 62.1165 725.05412 53.120656 726.0625 45.625 C 727.7121 33.362224 727.35968 32.577762 722.5625 37.375 C 719.63018 40.3073 715.29216 54.150274 712.9375 68.125 C 710.58288 82.09973 706.97254 94.071608 704.9375 94.75 C 702.40654 95.593636 702.15738 91.23895 704.125 81.0625 C 707.89732 61.552454 708.0382 50.625 704.4375 50.625 C 699.36004 50.625 693.33248 68.004938 691.125 89.125 C 689.9509 100.35809 686.7439 111.41027 684 113.6875 C 679.77796 117.19144 679.29968 115.9673 680.875 105.875 C 681.89884 99.315978 683.66052 86.15964 684.75 76.625 L 686.6875 59.25 L 679.9375 67.125 C 673.06568 75.10714 665.6875 102.17927 665.6875 119.4375 C 665.68752 128.72842 660.33558 137.3125 654.5 137.3125 C 652.9073 137.31249 653.02144 134.58712 654.75 131.25 C 656.47856 127.91287 658.67566 113.76993 659.625 99.875 C 661.2632 75.896068 660.99878 74.92835 655.1875 80.1875 C 647.55008 87.099226 641.4375 110.73968 641.4375 133.25 C 641.43746 147.96802 640.15594 151.19485 632.25 156.375 C 623.3879 162.18171 623.14302 162.19481 625.5625 155.9375 C 628.711 147.79465 630.21542 137.96527 632.625 109.875 C 634.50436 87.965256 634.41108 87.72773 627.6875 93.8125 C 618.90096 101.76418 610.25 131.77886 610.25 154.1875 C 610.25 167.9872 608.77418 172.48981 603.5 175.3125 C 593.4118 180.71155 592.86794 179.88586 597.9375 167.625 C 600.50006 161.42746 603.1269 143.60386 603.8125 128 C 605.01402 100.65298 604.82662 99.819236 598.6875 105.375 C 588.01932 115.02958 581.94172 134.14434 579.9375 164.3125 C 578.36032 188.05223 576.87286 193.71167 571.3125 196.6875 C 562.22652 201.55018 560.0444 198.39226 564.4375 186.8125 C 566.4502 181.50726 569.0481 162.39792 570.25 144.375 L 572.4375 111.625 L 565.0625 118.3125 C 560.9937 121.99473 555.60492 129.87723 553.125 135.8125 C 547.06264 150.32183 539.74108 194.92438 542 203.5625 C 543.337 208.67532 540.91994 212.31686 532.8125 217.25 C 521.52732 224.11674 516.00786 220.96498 523.5 211.9375 C 527.56648 207.03768 535.42762 138.49657 533.1875 127.5 C 532.19926 122.64897 530.44988 123.31587 523 131.25 C 512.10924 142.84863 503.55588 171.90087 500.5625 207.3125 C 498.5834 230.72512 497.41834 234.12 490 237.5 C 476.72614 243.54798 475.48686 242.14862 482.0625 228.3125 C 488.67902 214.39046 495.39098 133.8125 489.9375 133.8125 C 484.78802 133.8125 473.4239 151.50987 466.875 169.75 C 463.36302 179.53149 459.70892 201.74984 458.6875 219.0625 C 456.84216 250.34048 456.7185 250.525 446.1875 254.5 C 440.35848 256.70022 435.06496 258.0025 434.4375 257.375 C 433.80996 256.7475 435.48762 250.92788 438.125 244.4375 C 440.76238 237.94718 443.91982 215.77944 445.1875 195.1875 C 446.45514 174.59552 448.38994 152.79259 449.4375 146.6875 L 451.3125 135.5625 L 439.125 148.25 C 423.41436 164.60974 415.90596 189.06289 413.5625 231.4375 C 411.8389 262.60462 411.12438 265.12814 403.3125 268.6875 C 387.79376 275.7583 384.97754 273.7213 391.75 260.4375 C 396.02908 252.04432 398.5733 236.08698 400.1875 207.625 C 401.46126 185.16693 403.3374 162.09579 404.3125 156.375 L 406.0625 145.9375 L 393.9375 158.6875 C 377.70292 175.72035 370.41492 200.51376 368.4375 245.1875 L 366.8125 282 L 354.9375 287.625 C 337.80394 295.7954 336.40734 294.84212 343.8125 279.875 C 348.75934 269.87656 351.31718 253.4385 353.875 215.25 C 355.76158 187.08248 356.57616 163.26367 355.625 162.3125 C 354.67388 161.36138 349.19304 165.65121 343.4375 171.8125 C 328.38746 187.9237 318.74044 221.70184 316.4375 266.625 L 314.5 304.0625 L 301.3125 310.8125 C 283.7934 319.75008 283.12546 319.49134 290.3125 306.3125 C 295.37806 297.02388 296.61072 284.39082 297.5625 234.375 L 298.75 173.6875 L 288.0625 183.875 C 267.78344 203.21494 253.95838 261.18062 258.375 308.3125 L 260.6875 333.25 L 246.3125 341.375 C 229.2753 350.9505 225.9338 349.50212 234.625 336.25 C 240.01438 328.03244 241.315 316.38046 243.0625 258.8125 C 244.19398 221.53848 244.53724 190.36459 243.875 189.5625 C 243.21276 188.76043 238.58134 191.88407 233.5625 196.5 C 212.356 216.00408 200.44246 262.51174 200.5625 325.25 L 200.625 369.3125 L 189.1875 376.375 C 182.8942 380.26444 176.89691 383.4375 175.875 383.4375 C 174.8531 383.43752 177.17206 375.26138 181 365.25 C 187.49471 348.2641 187.70459 344.06032 184.125 302 C 182.01517 277.2099 180.30692 245.34516 180.3125 231.1875 L 180.3125 205.4375 L 171.4375 213.75 C 156.94404 227.36588 149.58877 242.11938 144 268.6875 C 137.8061 298.13228 137.07384 361.5534 142.625 387.4375 L 146.5 405.5625 L 131.3125 418.6875 C 114.7573 432.9996 108.81153 435.3519 112.875 425.9375 C 123.2139 401.98372 121.69761 348.44932 107.8125 243.0625 L 105.5625 225.6875 L 92.6875 243.0625 C 77.092074 264.08502 73.733374 275.31584 69.25 321.625 C 65.432048 361.06092 67.505498 403.45802 75.0625 440.5625 L 80 464.6875 L 40 504.6875 L 0 544.625 L 0 600 L 104.25 473.5625 C 105.51625 473.5625 117.31334 480.82892 130.4375 489.6875 C 195.79338 533.80172 279.43826 556.09214 316.3125 539.25 C 325.52982 535.03994 324.20612 534.13868 264.25 501.875 C 168.71995 450.46834 170.84467 451.3797 150.3125 451.1875 C 140.10568 451.09188 131.75184 450.0026 131.75 448.75 C 131.74811 447.49738 139.54576 439.9679 149.0625 432 L 166.375 417.5 L 185.1875 433.5625 C 210.5799 455.2559 252.04948 478.44324 285.4375 489.5625 C 307.46124 496.89708 317.067 498.30832 333.5625 496.8125 C 354.22364 494.93908 362.87126 491.40024 354.1875 488.3125 C 351.63558 487.4052 325.11566 470.27736 295.25 450.25 C 233.85674 409.08058 224.3479 404.1875 204.6875 404.1875 C 196.99861 404.1875 190.70932 403.05506 190.75 401.625 C 190.86186 397.69654 217.05816 379.9375 222.75 379.9375 C 225.48686 379.93752 230.74238 383.27256 234.375 387.3125 C 244.48382 398.55482 280.17366 422.97558 303.375 434.5625 C 337.87018 451.7897 360.5087 457.59942 379.375 454.0625 L 395.75 451 L 358.4375 425 C 337.91 410.69816 311.44486 392.18988 299.625 383.875 C 284.28492 373.08392 273.53532 368.2861 262.125 367 C 253.33302 366.009 246.18562 364.18218 246.1875 363 C 246.18948 361.81782 253.56916 356.73784 262.625 351.6875 L 279.125 342.5 L 298.1875 359.8125 C 337.28268 395.2902 393.67014 421.61504 418.125 415.8125 L 430.5 412.875 L 407.375 395.9375 C 394.67102 386.61208 373.10528 369.75346 359.4375 358.5 C 344.61196 346.29322 328.60332 336.411 319.8125 334 C 311.70812 331.77724 305.125 329.03322 305.125 327.875 C 305.125 326.7167 310.6968 323.08648 317.5625 319.8125 L 330.0625 313.875 L 354.875 337.375 C 387.38682 368.21746 423.6415 387.65912 445.875 386.1875 L 461.875 385.125 L 439.8125 367 C 427.69424 357.02384 409.39112 341.06954 399.125 331.5 C 388.81762 321.89206 374.46506 312.28042 367.0625 310.0625 C 359.68974 307.85362 353.66812 305.12836 353.6875 304 C 353.70688 302.8717 359.70718 299.39994 367.0625 296.3125 L 380.4375 290.6875 L 400.875 312.3125 C 427.4599 340.44272 457.47248 359.62818 478.1875 361.75 L 494.0625 363.375 L 457.875 326.6875 C 434.99972 303.52996 418.07836 289.2863 411.9375 287.9375 C 398.89944 285.07388 399.65444 281.35454 414.25 276.875 C 426.10562 273.23642 426.72652 273.52472 448.4375 294.8125 C 472.79974 318.69982 507.62838 338.3125 525.6875 338.3125 C 537.14578 338.31248 537.16524 338.33068 505.875 308 C 488.66168 291.3145 468.81644 275.02678 461.8125 271.8125 L 449.125 266 L 458.8125 262.3125 C 473.01638 256.9122 474.17364 257.24998 491.8125 272.9375 C 513.81472 292.50568 553.77556 311.36158 570.1875 309.9375 L 582.8125 308.875 L 550.5625 283.1875 C 532.83364 269.05196 513.25998 255.91646 507.0625 254 C 500.86504 252.08356 495.8125 249.41812 495.8125 248.0625 C 495.81252 243.37432 517.2929 236.50606 521.625 239.8125 C 558.64426 268.06678 596.37758 285.37446 612.3125 281.375 C 620.31106 279.36752 618.38268 277.21284 588.25 255 C 567.44978 239.66678 552.17332 230.875 546.4375 230.875 C 534.93664 230.875 534.8569 226.191 546.25 221 C 558.4425 215.44472 560.58224 215.82304 573.1875 225.4375 C 592.94234 240.50528 621.12326 251.59656 639.6875 251.625 L 657 251.625 L 625.8125 230.875 C 608.65034 219.44156 591.17796 210.06652 587 210.0625 C 575.47718 210.05142 574.20302 204.05282 584.5625 198.625 C 593.09948 194.152 595.21308 194.61521 612.5625 205.0625 C 634.36392 218.19058 661.77272 225.71962 675.3125 222.25 C 684.11418 219.9946 682.69362 218.71174 655.3125 204.6875 C 639.1038 196.38563 622.36552 189.53324 618.1875 189.4375 C 606.73308 189.17494 605.69638 183.81577 615.8125 177.1875 C 624.5118 171.48744 625.45422 171.5903 641.25 180.1875 C 661.47708 191.19647 689.29106 197.52399 700 193.5625 C 706.94132 190.99476 704.3495 189.01571 679 177.75 C 663.10484 170.686 647.0108 164.92202 643.25 164.9375 C 636.64762 164.96473 636.6412 164.73381 643.875 157.5 L 651.375 150 L 674.1875 157.5 C 697.4576 165.13901 719.44152 167.04403 727.1875 162.125 C 731.84808 159.16529 689.88696 144.1875 676.9375 144.1875 C 667.4273 144.1875 664.39014 139.15318 670.75 133.875 C 674.53176 130.73637 681.57706 130.65667 699.5 133.4375 C 716.78226 136.11896 726.93448 136.00645 736.9375 133.125 L 750.625 129.1875 L 729.8125 124.6875 C 718.37106 122.22176 704.40268 120.14569 698.75 120.0625 C 689.13554 119.92101 688.8148 119.56011 694.25 114.125 C 698.51024 109.86474 705.47086 108.46024 720.1875 108.875 C 731.22574 109.18606 744.90426 107.34336 750.625 104.8125 L 761.0625 100.25 L 741.8125 97.75 C 731.2352 96.402198 719.5369 96.446878 715.8125 97.8125 C 709.35292 100.18091 709.3179 99.992154 715 93.5 C 718.37114 89.648226 726.18012 86.334274 733 85.875 C 746.53548 84.963424 768.05386 76.849934 771.4375 71.375 C 774.05552 67.139078 747.34996 70.46312 737.3125 75.625 C 732.20796 78.250058 731.18336 77.659704 732.125 72.875 C 732.82042 69.34156 739.00922 65.242692 747.25 62.8125 C 762.31454 58.369972 781.38 47.19249 778.625 44.4375 C 777.69114 43.503622 770.5314 44.970132 763 48.3125 C 753.15232 52.682814 749.48547 53.956082 747.625 54.375 C 745.5694 54.837864 748.80504 49.75748 751.8125 46.75 C 754.41984 44.142672 757.1928 42.393382 760.6875 40.1875 C 762.7101 38.910822 768.8145 36.012308 773.4375 30.9375 C 781.83856 21.715346 776.82954 22.72544 765.375 32.5625 C 756.9082 39.833652 757.77118 35.730922 767.9375 20.75 C 772.70486 13.725087 776.625 5.6398116 776.625 2.75 C 776.625 1.0889434 776.14138 0.20963736 775.375 0 L 775 0 z"/>
  </g>
  <path
     style="fill:#c60c30;stroke:#ffffff;stroke-width:0.125"
     inkscape:connector-curvature="0"
     id="star14"
     d="m 7.5,3.493947 0.225873,0.695165 0.730941,0 L 7.86547,4.618748 8.091343,5.313914 7.5,4.884278 6.908657,5.313914 7.13453,4.618748 6.543186,4.189112 l 0.730941,0 z" />
  <use
     height="1052.3622"
     width="744.09448"
     y="0"
     x="0"
     transform="translate(7.5,-4.5)"
     xlink:href="#star12"
     id="use22" />
  <use
     height="1052.3622"
     width="744.09448"
     y="0"
     x="0"
     transform="translate(4.034062,-1.012894)"
     xlink:href="#star12"
     id="use24" />
  <path
     style="fill:#c60c30;stroke:#ffffff;stroke-width:0.125"
     inkscape:connector-curvature="0"
     id="star10"
     d="m 10.4708,-2.660707 0.16686,0.51353 0.53996,0 -0.43684,0.317379 0.16686,0.51353 -0.43684,-0.317379 -0.43683,0.317379 0.16686,-0.51353 -0.43684,-0.317379 0.53996,0 z" />
  <path
     inkscape:connector-curvature="0"
     d="m 29.598777,17.798845 c 0,0 0.06142,0.266707 0.47254,0.225799 0,0 -0.102853,0 -0.328953,0.246675 -0.266732,0.266708 -0.308013,0.595606 -0.308013,0.595606 0,0 -0.267131,-0.102707 -0.451551,-0.164441 -0.164426,-0.04088 -0.47254,-0.06184 -0.47254,-0.06184 0,0 0.184868,-0.266707 0.554285,-0.554281 0.287572,-0.226214 0.534248,-0.287573 0.534248,-0.287573 z"
     id="path4784"
     style="fill:#ffffff;fill-opacity:1;stroke:none;stroke-width:0.04925090000000000;stroke-linecap:butt;stroke-linejoin:miter;stroke-miterlimit:2.61299992000000000;stroke-opacity:1" />
  <path
     inkscape:connector-curvature="0"
     d="m 30.769522,17.798845 c 0,0 -0.06142,0.266707 -0.472539,0.225799 0,0 0.102853,0 0.328803,0.246675 0.266732,0.266708 0.308013,0.595606 0.308013,0.595606 0,0 0.266733,-0.102707 0.431159,-0.164441 0.184868,-0.04088 0.472391,-0.06184 0.472391,-0.06184 0,0 -0.164427,-0.266707 -0.534247,-0.554281 -0.308014,-0.226214 -0.533844,-0.287573 -0.533844,-0.287573 z"
     id="path4778"
     style="fill:#ffffff;stroke:none;stroke-width:0.04925090000000000;stroke-linecap:butt;stroke-linejoin:miter;stroke-miterlimit:2.61299992000000000" />
  <path
     inkscape:connector-curvature="0"
     d="m 27.745068,3.0755282 c 1.836479,-0.6486829 3.05209,-0.6347659 4.888564,0"
     id="path17297"
     style="fill:none;stroke:#ffffff;stroke-width:0.26712367;stroke-linecap:round;stroke-linejoin:miter;stroke-miterlimit:4;stroke-opacity:1" />
  <path
     inkscape:connector-curvature="0"
     d="m 27.462616,6.2762123 c 0,0.205354 -0.102852,0.184489 -0.205309,0.2462611 -0.246691,0.1027092 -0.554684,-0.1027091 -0.575121,-0.3697906 -0.04138,-0.5133718 0.287573,-0.9653982 0.677825,-1.1707494 1.519681,-0.7805079 2.629088,0.5546951 4.005187,0.6573776 0.431158,0.040882 0.94495,-0.1027091 1.314781,-0.1849028 l 0,0.1644416 c -0.924515,0.7805086 -1.437872,1.6019073 -2.115696,2.4850848 -0.06142,-0.082273 -0.122896,-0.1640279 -0.205409,-0.2258001 0,-0.1231456 0,-0.3284845 -0.01994,-0.5133718 0.410718,-0.3902519 0.966722,-0.7217547 1.233848,-1.2355538 -0.560831,0.00434 -0.917973,0.097365 -1.725927,-0.099234 C 29.042679,5.834333 28.686868,5.1600199 27.93222,5.153783 c -0.746745,-0.00618 -1.156516,0.4315228 -1.085056,0.8757646 0.04138,0.246675 0.554279,-0.3284845 0.615986,0.246675 z"
     id="path4804"
     style="fill:#ffffff;stroke:none" />
  <path
     inkscape:connector-curvature="0"
     d="m 32.896256,4.1477241 c 0.672884,0.5995986 1.203394,1.4990878 1.159719,2.8676691 -0.04387,1.3759512 -0.719097,2.7317574 -1.992572,3.2246868 -0.08282,0.06171 -0.308013,0.08227 -0.348996,-0.10271 C 31.549981,9.7471106 32.104684,9.8088826 32.289522,9.6035336 33.295781,8.6176738 33.090497,7.0566767 33.070061,5.6597032 33.050114,5.0232007 32.843812,4.448044 32.330395,4.0782489 31.899236,3.8315739 31.262299,3.7702305 30.769393,3.9342584 30.419999,4.1191611 30.153406,4.5094024 30.091564,4.9409802 29.968667,4.899699 29.352033,4.8382709 29.41374,4.3658366 29.352317,4.0164922 28.735911,4.0164922 28.776783,3.770231 c 0,-0.1439905 0.390276,-0.2258002 0.657388,-0.246675 1.663687,-0.1027091 2.784969,0.02084 3.461941,0.624134 z"
     id="path4790"
     style="fill:#ffffff;stroke:none" />
  <path
     inkscape:connector-curvature="0"
     d="m 30.441043,-2.0630521 c -0.04139,-0.061837 -0.102853,-0.061837 -0.143986,-0.2053489 -0.01995,-0.2262139 -0.01995,-0.3493445 -0.01995,-0.3493445 0,0 0.122897,0 0.328405,0.041281 0.143986,0.020442 0.122896,0.061304 0.184868,0.1435769 l 0,-0.4929213 c -0.06142,0.082273 -0.04139,0.1231456 -0.184868,0.1435818 -0.205409,0.041281 -0.328405,0.041281 -0.328405,0.041281 0,0 0,-0.1231456 0.01995,-0.3493445 0.04139,-0.1435768 0.08147,-0.1540117 0.143986,-0.2053489 l 0,0 -0.49338,0 c 0.06546,0.053959 0.102853,0.061707 0.122896,0.2053489 0.04139,0.2262289 0.01995,0.3493445 0.01995,0.3493445 0,0 -0.102852,0 -0.308013,-0.041281 -0.143986,-0.020442 -0.143986,-0.061303 -0.205259,-0.1435818 l 0,0.4929213 c 0.06142,-0.082273 0.06142,-0.1231456 0.205259,-0.1435769 0.205408,-0.041281 0.308013,-0.041281 0.308013,-0.041281 0,0 0.01995,0.1231456 -0.01995,0.3493445 -0.01995,0.1435767 -0.08282,0.1435767 -0.122896,0.2053489 -0.04139,0.041281 0.534247,0.041281 0.49338,0 z"
     id="path4768"
     style="fill:#ffffff;fill-rule:evenodd;stroke:#ffffff;stroke-width:0.02462546;stroke-linecap:butt;stroke-linejoin:miter;stroke-miterlimit:2.61299992;stroke-opacity:1" />
  <path
     inkscape:connector-curvature="0"
     d="m 30.525869,-0.665245 0.0868,0.78213769 -0.781739,0.006526 0.05878,-0.78868278 c -0.65125,-0.30880612 -1.296623,-0.49608701 -2.013873,-0.57390161 -1.126862,0.60263094 -0.99223,1.67539927 -0.459029,2.6712355 1.4e-5,0 5.592901,0 5.592901,0 0.659931,-1.06538189 0.541058,-2.10687396 -0.573912,-2.6712355 -0.691186,0.016004 -1.280061,0.34398981 -1.909524,0.57390161 z"
     id="path4770"
     style="fill:#c60c30;fill-opacity:1" />
  <path
     inkscape:connector-curvature="0"
     d="m 25.942519,17.757525 c -0.04139,-0.08228 0.205807,-0.43115 0.595551,-0.677827 0.411118,-0.266707 0.801375,-0.34893 0.862679,-0.287572 0.04138,0.08228 -0.205409,0.431568 -0.615987,0.698274 -0.390279,0.246676 -0.780541,0.349345 -0.842243,0.267122 z"
     id="path4864"
     style="fill:#ffffff;fill-opacity:1;fill-rule:evenodd;stroke:#ffffff;stroke-width:0.05885063;stroke-linecap:butt;stroke-linejoin:miter;stroke-miterlimit:2.61299992;stroke-opacity:1" />
  <use
     height="1052.3622"
     width="744.09448"
     y="0"
     x="0"
     transform="matrix(-0.1759635,0.44443313,-0.44443327,-0.1759635,38.113171,-5.7013729)"
     id="use16820"
     xlink:href="#path4864"
     style="fill:#ffffff;fill-opacity:1;stroke:#ffffff;stroke-opacity:1" />
  <use
     height="1052.3622"
     width="744.09448"
     y="0"
     x="0"
     transform="matrix(0.124014,0.68471662,-0.68471698,0.124014,32.47844,-14.352233)"
     id="use16812"
     xlink:href="#path4864"
     style="fill:#ffffff;fill-opacity:1;stroke:#ffffff;stroke-opacity:1" />
  <use
     height="1052.3622"
     width="744.09448"
     y="0"
     x="0"
     transform="matrix(0.2696864,0.7419364,-0.7419368,0.2696864,29.058949,-16.578982)"
     id="use16808"
     xlink:href="#path4864"
     style="fill:#ffffff;fill-opacity:1;stroke:#ffffff;stroke-opacity:1" />
  <use
     height="1052.3622"
     width="744.09448"
     y="0"
     x="0"
     transform="matrix(0.3608669,0.77377632,-0.77377668,0.3608669,27.053671,-18.093885)"
     id="use16806"
     xlink:href="#path4864"
     style="fill:#ffffff;fill-opacity:1;stroke:#ffffff;stroke-opacity:1" />
  <use
     height="1052.3622"
     width="744.09448"
     y="0"
     x="0"
     transform="matrix(0.4494532,0.80384784,-0.80384816,0.4494532,25.166569,-19.54721)"
     id="use16804"
     xlink:href="#path4864"
     style="fill:#ffffff;fill-opacity:1;stroke:#ffffff;stroke-opacity:1" />
  <use
     height="1052.3622"
     width="744.09448"
     y="0"
     x="0"
     transform="matrix(0.5382972,0.75295231,-0.75295269,0.5382972,21.934995,-18.857975)"
     id="use16802"
     xlink:href="#path4864"
     style="fill:#ffffff;fill-opacity:1;stroke:#ffffff;stroke-opacity:1" />
  <use
     height="1052.3622"
     width="744.09448"
     y="0"
     x="0"
     transform="matrix(0.6335479,0.62059911,-0.62059929,0.6335479,17.195419,-16.147154)"
     id="use16800"
     xlink:href="#path4864"
     style="fill:#ffffff;fill-opacity:1;stroke:#ffffff;stroke-opacity:1" />
  <use
     height="1052.3622"
     width="744.09448"
     y="0"
     x="0"
     transform="matrix(0.7138929,0.59712323,-0.59712337,0.7138929,14.774088,-16.115793)"
     id="use16798"
     xlink:href="#path4864"
     style="fill:#ffffff;fill-opacity:1;stroke:#ffffff;stroke-opacity:1" />
  <use
     height="1052.3622"
     width="744.09448"
     y="0"
     x="0"
     transform="matrix(0.7596561,0.50204764,-0.50204776,0.7596561,12.145122,-13.55406)"
     id="use16796"
     xlink:href="#path4864"
     style="fill:#ffffff;fill-opacity:1;stroke:#ffffff;stroke-opacity:1" />
  <use
     height="1052.3622"
     width="744.09448"
     y="0"
     x="0"
     transform="matrix(0.8562009,0.42858312,-0.42858328,0.8562009,8.565619,-12.507937)"
     id="use16794"
     xlink:href="#path4864"
     style="fill:#ffffff;fill-opacity:1;stroke:#ffffff;stroke-opacity:1" />
  <use
     height="1052.3622"
     width="744.09448"
     y="0"
     x="0"
     transform="matrix(0.892244,0.2633903,-0.2633905,0.892244,5.111989,-7.9266399)"
     id="use16792"
     xlink:href="#path4864"
     style="fill:#ffffff;fill-opacity:1;stroke:#ffffff;stroke-opacity:1" />
  <use
     height="1052.3622"
     width="744.09448"
     y="0"
     x="0"
     transform="matrix(0.9119239,0.17507038,-0.17507042,0.9119239,3.5427042,-5.0966647)"
     id="use16790"
     xlink:href="#path4864"
     style="fill:#ffffff;fill-opacity:1;stroke:#ffffff;stroke-opacity:1" />
  <use
     height="1052.3622"
     width="744.09448"
     y="0"
     x="0"
     transform="matrix(-0.4064686,-0.25152972,0.25152988,-0.4064686,32.817908,17.291585)"
     id="use17112"
     xlink:href="#path4864"
     style="fill:#ffffff;fill-opacity:1;stroke:#ffffff;stroke-opacity:1" />
  <path
     inkscape:connector-curvature="0"
     d="m 26.189179,3.2360123 c -1.191235,1.4378754 -1.992566,3.5535783 -2.033474,5.8950839 -0.08282,4.1283158 2.136158,7.5587688 5.052816,8.0925978 0.267131,0.06184 3.183781,0.513385 3.183781,0.513385 l 0,0.308018 c 0,0 -2.875764,-0.4516 -3.204228,-0.533833 -3.019341,-0.534248 -5.319939,-4.046507 -5.258167,-8.2365941 0.04139,-2.444182 0.883104,-4.6007882 2.177054,-6.0795669 l 0.08282,0.040882 z"
     id="path4774"
     style="fill:#ffffff;fill-rule:evenodd;stroke:#ffffff;stroke-width:0.0492509;stroke-linecap:butt;stroke-linejoin:miter;stroke-miterlimit:2.61299992;stroke-opacity:1" />
  <use
     height="1052.3622"
     width="744.09448"
     y="0"
     x="0"
     transform="matrix(-0.99999991,0,0,0.99999998,60.364371,0.00483429)"
     id="use16946"
     xlink:href="#path4864" />
  <path
     inkscape:connector-curvature="0"
     d="m 34.179105,3.2360123 c 1.191236,1.4378754 1.992164,3.5535783 2.033475,5.8950839 0.06142,4.1283158 -2.136144,7.5587688 -5.073262,8.0925978 -0.24669,0.06184 -3.039776,0.533834 -3.039776,0.533834 l 0.01995,0.287571 c 0,0 2.752199,-0.47206 3.060233,-0.533833 3.019326,-0.534248 5.319922,-4.046506 5.258166,-8.2365941 C 36.3965,6.8304905 35.55465,4.6738842 34.26082,3.1951055 L 34.178,3.2359875 z"
     id="path4780"
     style="fill:#ffffff;fill-rule:evenodd;stroke:#ffffff;stroke-width:0.0492509;stroke-linecap:butt;stroke-linejoin:miter;stroke-miterlimit:2.61299992;stroke-opacity:1" />
  <path
     inkscape:connector-curvature="0"
     d="m 29.886345,16.997892 c -0.164428,-0.267121 -0.267132,-0.472475 -0.225851,-0.719151 0.04139,-0.184903 0.369438,-0.246675 0.595552,-0.266707 0,0 -0.369836,-0.103111 -0.554684,-0.103111 -0.287572,0 -0.492981,0.14399 -0.492981,0.369791 0,0.287572 0.533848,0.842281 0.842241,0.924075 l -0.164427,-0.204941 z"
     id="path4786"
     style="fill:#ffffff;fill-rule:evenodd;stroke:none;stroke-width:0.04925090000000000;stroke-linecap:butt;stroke-linejoin:miter;stroke-miterlimit:2.61299992000000000" />
  <path
     inkscape:connector-curvature="0"
     d="m 30.091698,6.3580189 0,1.2942945 C 29.804127,7.302969 29.516579,7.1798384 29.41387,7.0771559 l 0,-0.9245014 c 0.205408,0.061707 0.431557,0.1644416 0.677828,0.2053489 z"
     id="path4792"
     style="fill:#ffffff;stroke:none" />
  <path
     inkscape:connector-curvature="0"
     d="m 32.638548,6.9127173 c 0.124193,0.4107028 -0.308014,0.3080184 -0.348847,0.5956056 l 0,1.807675 c -0.08282,0.102709 -0.226247,0.1849028 -0.349394,0.2053538 0,-0.6369296 0,-1.3556524 0,-2.0539296 C 31.898917,7.2825193 31.488309,7.158975 31.652735,6.9127267 l 0.985818,0 z"
     id="path4794"
     style="fill:#ffffff;stroke:none" />
  <path
     inkscape:connector-curvature="0"
     d="m 30.050786,9.5622506 c 0,0.226228 -0.02144,0.2875719 0.04139,0.4929244 0.267131,0.08227 0.739532,-0.102709 0.739532,0.36979 -0.205409,-0.02044 -0.636957,0 -0.698659,0 -0.143586,0.02044 -0.122896,0.677827 -0.122896,0.677827 l 0,1.068081 -0.698261,-0.513372 0,-2.8757568 c 0.22585,0.246675 0.513412,0.5751577 0.739667,0.7805084 z"
     id="path4796"
     style="fill:#ffffff;stroke:none" />
  <path
     inkscape:connector-curvature="0"
     d="m 28.284017,11.410833 -0.266733,0.06184 c -0.02144,-0.102707 0,-0.431577 0,-0.431577 0,0 0.122896,-0.143577 0.266733,-0.164029 0,0 0,0.410703 0,0.533834 z"
     id="path4798"
     style="fill:#ffffff;stroke:none" />
  <path
     inkscape:connector-curvature="0"
     d="m 28.407565,13.033609 c 0.122897,0.205349 0.390278,0.225801 0.308015,0.554282 -0.20541,0.226229 -0.431559,0 -0.698266,0 -0.184868,0 -0.349394,0.143996 -0.513811,0 -0.06142,-0.410703 0.410717,-0.472061 0.47254,-0.86273 l 0,-0.266707 c 0,0 0.267131,0.02044 0.349394,0.102707 0,0 -0.01995,0.390257 0.08282,0.472475 z"
     id="path4800"
     style="fill:#ffffff;stroke:none" />
  <path
     inkscape:connector-curvature="0"
     d="m 30.009475,13.546988 c -0.01995,0.965398 0.595556,0.965398 0.472539,1.417424 -0.184867,0.0613 -0.554683,-0.123145 -0.84224,-0.164456 -0.390277,-0.0617 -0.698259,-0.02044 -0.760102,-0.123145 0.143986,-0.493351 0.47254,-0.965399 0.47254,-1.5201 0.226249,0.123145 0.47254,0.246674 0.657388,0.390256 z"
     id="path4802"
     style="fill:#ffffff;stroke:none" />
  <path
     inkscape:connector-curvature="0"
     d="M 31.817142,12.417137 C 31.590893,12.191338 31.694246,11.698401 31.550011,11.267251 30.974891,9.4595708 29.721868,9.5008917 28.674662,7.3647372 28.613239,7.3438976 28.571809,7.2411928 28.489396,7.2411928 28.345809,7.1384837 28.386543,9.06932 28.386543,9.06932 l -0.328952,0.3902568 c 0,0 0,-1.6841323 0,-2.4850854 0,-0.2875723 -0.410718,-0.2875723 -0.513413,-0.5546953 0.06142,-0.1231456 0.08282,-0.1027092 0.122897,-0.1231456 0.205408,-0.020442 0.47254,0.020442 0.69826,0.020442 0.24669,0.020442 0.390277,-0.1027091 0.431558,0.020442 -0.06142,1.0063085 0.595551,0.9449501 0.985817,1.3556525 1.026825,0.8218196 1.334818,1.9512546 1.930808,2.957981 0.205408,0.02044 0.308013,-0.328899 0.492981,-0.164457 l 0,1.68413 -0.390277,0.246261 z"
     id="path4808"
     style="fill:#ffffff;stroke:none" />
  <path
     inkscape:connector-curvature="0"
     d="m 32.227845,12.417137 c 0.164427,0.0617 0.22585,0.08228 0.328455,0.308019 0.06142,0.185316 0.06142,0.431563 0,0.596019 -0.102853,0.266713 -0.451601,0.492921 -0.780534,0.492921 -1.86904,0.02044 -3.122009,-2.218378 -5.13504,-1.581456 -0.08147,-0.0617 -0.01995,-0.184902 -0.04139,-0.267121 0.924515,-1.06808 1.52011,-2.3210564 2.546865,-3.3478142 l 0,1.2116598 c -0.554683,0.7391874 -1.704583,1.0680834 -2.115286,1.9925784 0.143587,0.143576 0.718696,-0.08268 1.170272,-0.143995 0.595949,-0.08228 0.986221,0.164457 1.150368,0.287571 1.150234,0.821407 1.684547,2.156607 2.896204,1.499232 0.06142,-0.0613 0.164427,-0.123146 0.122896,-0.2258 -0.102852,-0.184902 -0.411116,-0.123146 -0.411116,-0.369806 -0.04139,-0.184903 0.01995,-0.410702 0.267131,-0.452028 z"
     id="path4810"
     style="fill:#ffffff;stroke:none" />
  <use
     height="1052.3622"
     width="744.09448"
     y="0"
     x="0"
     transform="translate(0.02292134,-0.53388568)"
     id="use17247"
     xlink:href="#use17245"
     style="fill:#ffffff;fill-opacity:1" />
  <use
     height="1052.3622"
     width="744.09448"
     y="0"
     x="0"
     transform="translate(-0.18217623,-0.53291378)"
     id="use17245"
     xlink:href="#use17243"
     style="fill:#ffffff;fill-opacity:1" />
  <use
     height="1052.3622"
     width="744.09448"
     y="0"
     x="0"
     transform="matrix(0.2031957,0.72028681,-0.72028719,0.2031957,30.667911,-15.737285)"
     id="use16810"
     xlink:href="#path4864"
     style="fill:#ffffff;fill-opacity:1;stroke:#ffffff;stroke-opacity:1" />
  <use
     height="1052.3622"
     width="744.09448"
     y="0"
     x="0"
     transform="matrix(0.0375582,0.6374796,-0.6374798,0.0375582,34.355136,-12.439505)"
     id="use16814"
     xlink:href="#path4864"
     style="fill:#ffffff;fill-opacity:1;stroke:#ffffff;stroke-opacity:1" />
  <use
     height="1052.3622"
     width="744.09448"
     y="0"
     x="0"
     transform="matrix(-0.03313882,0.57362584,-0.57362596,-0.03313882,35.566677,-10.33299)"
     id="use16816"
     xlink:href="#path4864"
     style="fill:#ffffff;fill-opacity:1;stroke:#ffffff;stroke-opacity:1" />
  <use
     height="1052.3622"
     width="744.09448"
     y="0"
     x="0"
     transform="matrix(-0.09811271,0.50517322,-0.50369538,-0.09840061,36.566414,-8.0350829)"
     id="use16818"
     xlink:href="#path4864"
     style="fill:#ffffff;fill-opacity:1;stroke:#ffffff;stroke-opacity:1" />
  <path
     inkscape:connector-curvature="0"
     d="m 26.086859,3.2898872 c -0.0349,-0.044621 0.07344,-0.2836037 0.278498,-0.4778995 0.215978,-0.2088488 0.441033,-0.3042393 0.485106,-0.2745647 0.03489,0.044621 -0.07214,0.2838081 -0.288373,0.4926021 -0.205657,0.1943308 -0.428466,0.3020506 -0.475231,0.2598571 z"
     id="use17158"
     style="fill:#ffffff;fill-opacity:1;fill-rule:evenodd;stroke:#ffffff;stroke-width:0.03607596;stroke-linecap:butt;stroke-linejoin:miter;stroke-miterlimit:2.61299992;stroke-opacity:1" />
  <path
     inkscape:connector-curvature="0"
     d="m 28.308969,15.04658 c 0.07748,0.04567 0.06277,0.465116 -0.125538,0.877247 -0.194989,0.440048 -0.471992,0.717134 -0.555351,0.699584 -0.07748,-0.04542 -0.06277,-0.465235 0.132219,-0.905042 0.188607,-0.412358 0.454491,-0.706261 0.549473,-0.671776 z"
     id="path17134"
     style="fill:#ffffff;fill-opacity:1;fill-rule:evenodd;stroke:#ffffff;stroke-width:0.05780379;stroke-linecap:butt;stroke-linejoin:miter;stroke-miterlimit:2.61299992;stroke-opacity:1" />
  <use
     height="1052.3622"
     width="744.09448"
     y="0"
     x="0"
     transform="matrix(0.9507289,0.03511429,-0.03511431,0.9507289,1.2849223,-0.60606394)"
     id="use16786"
     xlink:href="#path4864"
     style="fill:#ffffff;fill-opacity:1;stroke:#ffffff;stroke-opacity:1" />
  <use
     height="1052.3622"
     width="744.09448"
     y="0"
     x="0"
     transform="matrix(0.9255256,0.08451297,-0.08451291,0.9255256,2.157851,-2.1792606)"
     id="use16788"
     xlink:href="#path4864"
     style="fill:#ffffff;fill-opacity:1;stroke:#ffffff;stroke-opacity:1" />
  <use
     height="1052.3622"
     width="744.09448"
     y="0"
     x="0"
     transform="matrix(0.1759635,0.44443313,0.44443327,-0.1759635,22.251189,-5.6965369)"
     id="use16948"
     xlink:href="#path4864"
     style="fill:#ffffff;fill-opacity:1;stroke:#ffffff;stroke-opacity:1" />
  <use
     height="1052.3622"
     width="744.09448"
     y="0"
     x="0"
     transform="matrix(0.4064686,-0.25152972,-0.25152988,-0.4064686,27.538292,17.291585)"
     id="use17030"
     xlink:href="#path4864"
     style="fill:#ffffff;fill-opacity:1;stroke:#ffffff;stroke-opacity:1" />
  <path
     inkscape:connector-curvature="0"
     d="M 34.282054,3.2898872 C 34.316964,3.2452662 34.208614,3.0062835 34.003556,2.8119877 33.787578,2.6031389 33.562523,2.5077484 33.51845,2.537423 c -0.03489,0.044621 0.07214,0.2838081 0.288372,0.4926021 0.205658,0.1943308 0.428467,0.3020506 0.475232,0.2598571 z"
     id="use17164"
     style="fill:#ffffff;fill-opacity:1;fill-rule:evenodd;stroke:#ffffff;stroke-width:0.03607596;stroke-linecap:butt;stroke-linejoin:miter;stroke-miterlimit:2.61299992;stroke-opacity:1" />
  <use
     height="1052.3622"
     width="744.09448"
     y="0"
     x="0"
     transform="matrix(0.7640298,6.9577303e-4,6.8831669e-4,-0.7723067,15.276421,22.843662)"
     id="use17042"
     xlink:href="#path4864"
     style="fill:#ffffff;fill-opacity:1;stroke:#ffffff;stroke-opacity:1" />
  <use
     height="1052.3622"
     width="744.09448"
     y="0"
     x="0"
     transform="matrix(0.7992523,0.05167681,0.05167683,-0.7992523,13.381778,22.697479)"
     id="use17044"
     xlink:href="#path4864"
     style="fill:#ffffff;fill-opacity:1;stroke:#ffffff;stroke-opacity:1" />
  <use
     height="1052.3622"
     width="744.09448"
     y="0"
     x="0"
     transform="matrix(0.8253097,0.10853594,0.10853606,-0.8253097,11.572975,22.362821)"
     id="use17046"
     xlink:href="#path4864"
     style="fill:#ffffff;fill-opacity:1;stroke:#ffffff;stroke-opacity:1" />
  <use
     height="1052.3622"
     width="744.09448"
     y="0"
     x="0"
     transform="matrix(0.8372931,0.12352035,0.12352045,-0.8372931,10.811074,22.859533)"
     id="use17048"
     xlink:href="#path4864"
     style="fill:#ffffff;fill-opacity:1;stroke:#ffffff;stroke-opacity:1" />
  <use
     height="1052.3622"
     width="744.09448"
     y="0"
     x="0"
     transform="matrix(0.8357628,0.13129985,0.13129995,-0.8357628,10.505579,23.300527)"
     id="use17050"
     xlink:href="#path4864"
     style="fill:#ffffff;fill-opacity:1;stroke:#ffffff;stroke-opacity:1" />
  <use
     height="1052.3622"
     width="744.09448"
     y="0"
     x="0"
     transform="matrix(0.8598048,0.15335148,0.15335152,-0.8598048,9.2082957,23.76816)"
     id="use17052"
     xlink:href="#path4864"
     style="fill:#ffffff;fill-opacity:1;stroke:#ffffff;stroke-opacity:1" />
  <use
     height="1052.3622"
     width="744.09448"
     y="0"
     x="0"
     transform="matrix(0.8435017,0.18001549,0.18001551,-0.8435017,8.8526241,23.376353)"
     id="use17054"
     xlink:href="#path4864"
     style="fill:#ffffff;fill-opacity:1;stroke:#ffffff;stroke-opacity:1" />
  <use
     height="1052.3622"
     width="744.09448"
     y="0"
     x="0"
     transform="matrix(0.8765505,0.30645399,0.30645421,-0.8765505,5.4221934,21.217023)"
     id="use17056"
     xlink:href="#path4864"
     style="fill:#ffffff;fill-opacity:1;stroke:#ffffff;stroke-opacity:1" />
  <use
     height="1052.3622"
     width="744.09448"
     y="0"
     x="0"
     transform="matrix(0.8408447,0.36258003,0.36258017,-0.8408447,4.9060018,19.679551)"
     id="use17068"
     xlink:href="#path4864"
     style="fill:#ffffff;fill-opacity:1;stroke:#ffffff;stroke-opacity:1" />
  <use
     height="1052.3622"
     width="744.09448"
     y="0"
     x="0"
     transform="matrix(0.8450975,0.47097311,0.47097329,-0.8450975,2.3712364,17.426271)"
     id="use17066"
     xlink:href="#path4864"
     style="fill:#ffffff;fill-opacity:1;stroke:#ffffff;stroke-opacity:1" />
  <path
     inkscape:connector-curvature="0"
     d="m 32.04723,15.04658 c -0.07748,0.04567 -0.06277,0.465116 0.125538,0.877247 0.19499,0.440048 0.471992,0.717134 0.555352,0.699584 0.07748,-0.04542 0.06277,-0.465235 -0.13222,-0.905042 -0.188607,-0.412358 -0.454491,-0.706261 -0.549473,-0.671776 z"
     id="path17034"
     style="fill:#ffffff;fill-opacity:1;fill-rule:evenodd;stroke:#ffffff;stroke-width:0.05780379;stroke-linecap:butt;stroke-linejoin:miter;stroke-miterlimit:2.61299992;stroke-opacity:1" />
  <path
     inkscape:connector-curvature="0"
     d="m 34.421842,17.762359 c 0.04139,-0.08228 -0.205807,-0.431149 -0.595551,-0.677826 -0.411118,-0.266707 -0.801375,-0.348931 -0.862679,-0.287572 -0.04138,0.08228 0.205259,0.431563 0.615987,0.698275 0.390279,0.246675 0.780536,0.349344 0.842243,0.267121 z"
     id="path16944"
     style="fill:#ffffff;fill-opacity:1;fill-rule:evenodd;stroke:#ffffff;stroke-width:0.05885063;stroke-linecap:butt;stroke-linejoin:miter;stroke-miterlimit:2.61299992;stroke-opacity:1" />
  <use
     height="1052.3622"
     width="744.09448"
     y="0"
     x="0"
     transform="matrix(0.7644352,0.03035057,0.03035057,-0.7644352,14.766784,21.107271)"
     id="use17040"
     xlink:href="#path4864"
     style="fill:#ffffff;fill-opacity:1;stroke:#ffffff;stroke-opacity:1" />
  <use
     height="1052.3622"
     width="744.09448"
     y="0"
     x="0"
     transform="matrix(0.7166032,-0.00527678,-0.00527678,-0.7166032,16.596076,20.424411)"
     id="use17038"
     xlink:href="#path4864"
     style="fill:#ffffff;fill-opacity:1;stroke:#ffffff;stroke-opacity:1" />
  <use
     height="1052.3622"
     width="744.09448"
     y="0"
     x="0"
     transform="matrix(0.7172488,-0.05658987,-0.05658989,-0.7172488,17.371355,20.986419)"
     id="use17058"
     xlink:href="#path4864"
     style="fill:#ffffff;fill-opacity:1;stroke:#ffffff;stroke-opacity:1" />
  <use
     height="1052.3622"
     width="744.09448"
     y="0"
     x="0"
     transform="matrix(0.6675966,-0.12115995,-0.12116005,-0.6675966,19.618041,21.05916)"
     id="use17036"
     xlink:href="#path4864"
     style="fill:#ffffff;fill-opacity:1;stroke:#ffffff;stroke-opacity:1" />
  <use
     height="1052.3622"
     width="744.09448"
     y="0"
     x="0"
     transform="matrix(0.5848277,-0.16276058,-0.16276062,-0.5848277,22.332227,19.965758)"
     id="use17060"
     xlink:href="#path4864"
     style="fill:#ffffff;fill-opacity:1;stroke:#ffffff;stroke-opacity:1" />
  <use
     height="1052.3622"
     width="744.09448"
     y="0"
     x="0"
     transform="matrix(0.5162633,-0.25222441,-0.25222459,-0.5162633,25.351151,20.428359)"
     id="use17062"
     xlink:href="#path4864"
     style="fill:#ffffff;fill-opacity:1;stroke:#ffffff;stroke-opacity:1" />
  <path
     inkscape:connector-curvature="0"
     d="m 30.411084,-1.5313106 c -0.161485,-0.01765 -0.440881,0.050221 -0.563497,0.052225 0.04138,0.062241 0.101507,0.1495097 0.08282,0.2399992 l -0.333889,1.34605196 -0.01043,0.0208396 0.02144,0.0104165 c 0.281141,0.18078955 0.36515,0.42077381 0.36515,0.53216321 0.0031,0.025626 -0.0025,0.046865 -0.01043,0.052225 -0.008,0.00528 -0.02543,-0.00443 -0.05211,-0.031261 l -0.04138,0.36520833 0.667808,0 c -0.232382,-0.00623 -0.04687,-0.21245811 -0.07344,-0.35476843 -0.01596,0.024978 -0.0334,0.023931 -0.04139,0.02084 -0.008,-0.00307 -0.02144,-0.01735 -0.02144,-0.052225 0.01995,-0.1210068 0.07479,-0.35150836 0.375568,-0.53216371 l 0.02144,-0.0104164 -0.01043,-0.0208396 -0.323469,-1.35648676 c -0.01745,-0.043824 -0.0065,-0.086147 0.01043,-0.1252794 0.01745,-0.039137 0.03988,-0.067451 0.05211,-0.1043103 -0.01596,-0.030163 -0.06142,-0.046366 -0.114869,-0.052225 z m -0.219169,0.323474 0.260849,1.06432726 -0.260849,0.25042914 -0.260849,-0.25042914 0.260849,-1.06432726 z"
     id="path4984"
     style="fill:#ffffff;stroke-width:0.14750001;stroke-linecap:butt;stroke-linejoin:miter;stroke-miterlimit:2.61299992" />
  <path
     inkscape:connector-curvature="0"
     d="m 29.783665,-1.7550252 c 0,-0.2258001 0.184868,-0.431149 0.410718,-0.431149 0.225849,0 0.410717,0.2053489 0.410717,0.431149 0,0.246675 -0.184868,0.431149 -0.410717,0.431149 -0.22585,0 -0.410718,-0.1844889 -0.410718,-0.431149 z"
     id="path4986"
     style="fill:#ffffff;fill-opacity:1;fill-rule:evenodd;stroke:#ffffff;stroke-width:0.0492509;stroke-linecap:butt;stroke-linejoin:miter;stroke-miterlimit:2.61299992;stroke-opacity:1" />
  <use
     height="1052.3622"
     width="744.09448"
     y="0"
     x="0"
     transform="translate(0.48909169,-0.21434192)"
     id="use17253"
     xlink:href="#use17251"
     style="fill:#ffffff;fill-opacity:1" />
  <use
     height="1052.3622"
     width="744.09448"
     y="0"
     x="0"
     transform="translate(0.551662,-0.01822194)"
     id="use17255"
     xlink:href="#use17253"
     style="fill:#ffffff;fill-opacity:1" />
  <use
     height="1052.3622"
     width="744.09448"
     y="0"
     x="0"
     transform="translate(0.51908621,0.14190152)"
     id="use17257"
     xlink:href="#use17255"
     style="fill:#ffffff;fill-opacity:1" />
  <use
     height="1052.3622"
     width="744.09448"
     y="0"
     x="0"
     transform="translate(0.32498382,-0.40413232)"
     id="use17251"
     xlink:href="#use17249"
     style="fill:#ffffff;fill-opacity:1" />
  <use
     height="1052.3622"
     width="744.09448"
     y="0"
     x="0"
     transform="translate(0.20357313,-0.5137583)"
     id="use17249"
     xlink:href="#use17247"
     style="fill:#ffffff;fill-opacity:1" />
  <use
     height="1052.3622"
     width="744.09448"
     y="0"
     x="0"
     transform="translate(0.5478454,0.02029043)"
     id="use17265"
     xlink:href="#use17263" />
  <path
     inkscape:connector-curvature="0"
     d="m 28.23941,-1.421747 c -0.0048,0.087882 -0.03988,0.099104 -0.102853,0.099104 -0.06142,1.6e-6 -0.09348,-0.01391 -0.09348,-0.083475 l -0.354729,0.083475 c 0.04139,0.071988 0.02393,0.1081831 -0.02941,0.1395584 -0.05345,0.031659 -0.09882,-0.020042 -0.149969,-0.082139 l -0.247737,0.2452042 c 0.04936,0.0438242 0.0668,0.0898865 0.02792,0.13695575 -0.03739,0.0470142 -0.109536,5.18e-5 -0.163081,-0.024829 l -0.16308,0.30651271 c 0.05339,0.0426267 0.09752,0.0610388 0.06945,0.14217564 -0.02941,0.0822731 -0.08282,0.058636 -0.151315,0.0470142 l -0.07613,0.34695128 c 0.09348,0.01695108 0.100162,0.03754178 0.100162,0.09910428 0,0.0615725 -0.03589,0.0821386 -0.104198,0.0834751 l -0.0039,0.35476871 c 0.08011,0.00524 0.144783,0.029515 0.155203,0.080808 0.01043,0.051287 0.01,0.099903 -0.05076,0.1304894 L 27.01368,1.0029664 c 0.122896,0 0.121551,0.037542 0.163081,0.1369558 0.04288,0.1005709 0.06013,0.1247459 0.01745,0.1826044 l 0.06681,0.3286839 c 0.118857,0.00228 0.183372,0.1307586 0.242552,0.3104266 0.05878,0.1785609 -0.0085,0.2276297 -0.06013,0.3365113 l 0.09882,0.2817342 c 0.01995,0.020442 0.04139,0.042229 0.04139,0.083475 0,0.061303 -0.01895,0.124746 0.08282,0.083475 0.304773,-0.1016428 1.093467,-0.4918393 2.483422,-0.4799935 0.871621,-0.026423 1.739199,0.1572575 2.546022,0.4799935 0.03091,0.010316 0.06013,0.011367 0.07344,0.010416 0.03489,-0.019244 0.007,-0.064244 0.01043,-0.093895 0,-0.041281 0.02144,-0.063044 0.06277,-0.083475 l 0.08949,-0.2908579 C 32.885177,2.2258467 32.835877,2.10691 32.889167,1.9238069 32.941277,1.7419105 33.031159,1.6835983 33.134411,1.6512065 L 33.23991,1.3525212 c -0.0708,-0.073593 -0.0868,-0.091357 -0.04288,-0.212603 0.04387,-0.1216748 0.08147,-0.1304894 0.152661,-0.1369558 l 0.129577,-0.31173223 c -0.04138,-0.040882 -0.06676,-0.075063 -0.04138,-0.1460746 0.02543,-0.072257 0.06277,-0.082139 0.124193,-0.082139 l 0.02293,-0.34564509 c -0.07214,-0.0208396 -0.102852,0.007681 -0.104198,-0.0834751 -0.0016,-0.09242379 0.04288,-0.078 0.08814,-0.10297819 l -0.0668,-0.34564502 c -0.06411,5.3148e-4 -0.105499,0.0397855 -0.143438,-0.0456687 -0.03889,-0.0881519 0.02543,-0.11152436 0.06012,-0.13825203 l -0.163081,-0.30913017 c -0.07214,0.0300631 -0.117561,0.0699887 -0.161734,0.0130626 -0.04387,-0.0563632 0.0021,-0.10391105 0.0334,-0.15521327 l -0.272658,-0.2217403 c -0.05076,0.047962 -0.04936,0.1169982 -0.129577,0.082139 -0.08011,-0.03445 -0.0334,-0.089353 -0.03739,-0.133027 l -0.341767,-0.088685 c -0.02393,0.056632 -0.01595,0.098168 -0.108189,0.088685 -0.09083,-0.00932 -0.07479,-0.046217 -0.09348,-0.1043103 l -0.344309,0.041829 c -0.0055,0.087484 0.01147,0.1059148 -0.06411,0.1330271 -0.07479,0.026972 -0.09752,-0.032207 -0.134363,-0.074396 l -0.318284,0.1447783 c 0.02144,0.07306 0.02792,0.1012391 -0.03988,0.1343483 -0.0681,0.032606 -0.113523,-0.042877 -0.142091,-0.076934 L 30.77915,-1.001607 c 0.0085,0.10217531 -0.128231,0.12781693 -0.251775,0.12781693 l -0.03091,0.26085901 c 0.413111,-0.005685 1.267103,-0.70089204 1.863577,-0.55239794 0.60423,0.150442 0.92037,0.65879371 0.922509,1.19933124 0.0021,0.54051111 -0.173102,0.91472474 -0.354728,1.34605166 l -1.231307,-0.3860736 -3.015575,0 -1.231306,0.3860736 C 27.238481,0.9518164 27.114637,0.59850377 27.105314,0.03400128 c -0.0094,-0.5645125 0.428616,-1.19950528 0.991296,-1.22083538 0.562831,-0.021388 1.192444,0.38293773 1.79474,0.57390208 L 29.84997,-0.8737912 c -0.102853,0 -0.250429,-0.0426278 -0.250429,-0.10431023 l -0.31305,-0.14086947 c -0.04139,0.045021 -0.06546,0.1003062 -0.135708,0.067849 -0.0708,-0.032706 -0.0708,-0.076934 -0.04687,-0.1343484 L 28.780502,-1.325021 c -0.0334,0.061039 -0.03889,0.105382 -0.128231,0.080808 -0.08949,-0.02443 -0.05608,-0.073459 -0.06142,-0.1369556 l -0.349543,-0.040484 z"
     id="path5002"
     style="fill:#ffffff;fill-opacity:1;stroke:none" />
  <path
     inkscape:connector-curvature="0"
     d="m 29.616137,-1.032436 c 1.1e-4,0.10044073 -0.08147,0.18187147 -0.181627,0.18187147 -0.100162,0 -0.181777,-0.0814759 -0.181628,-0.18187147 -8.9e-5,-0.1004364 0.08147,-0.1818715 0.181628,-0.1818715 0.100161,0 0.181776,0.081476 0.181627,0.1818715 z"
     id="path17237"
     style="fill:#ffffff;fill-opacity:1;fill-rule:nonzero" />
  <path
     inkscape:connector-curvature="0"
     d="M 28.777676,1.530043 29.20026,1.798261 28.958505,2.2110728 28.543549,1.9556879 28.777676,1.530053 z"
     id="path5008"
     style="fill:#002776;fill-opacity:1;stroke:none" />
  <path
     inkscape:connector-curvature="0"
     d="m 28.313362,-0.43164536 -0.01043,0.0208396 c 0,0 -0.251077,0.2887489 -0.14613,0.75128487 0.101507,0.46863112 0.52623,0.87165119 0.553079,0.89736159 l 0.0521,0.010416 c 0,0 0.188308,-0.59209233 0.08416,-1.07475792 -0.12553,-0.4832784 -0.511265,-0.59476346 -0.511265,-0.59476346 l -0.02144,-0.0104164 z"
     id="path5006"
     style="fill:#ffffff;fill-opacity:1;stroke:none" />
  <use
     height="1052.3622"
     width="744.09448"
     y="0"
     x="0"
     transform="translate(1.3768373,-0.3339045)"
     id="use17194"
     xlink:href="#path5018"
     style="fill:#c60c30;fill-opacity:1" />
  <path
     inkscape:connector-curvature="0"
     d="m 29.586368,0.39268168 c -0.14224,-0.050888 -0.29904,-0.043674 -0.448609,0.031261 C 28.9322,0.52678628 28.803471,0.73594454 28.793451,0.956106 l 0,0.031261 c 0.375967,-0.0873488 0.759563,-0.1356292 1.147831,-0.16695396 0.0681,0.00917 -0.0075,-0.087349 -0.01043,-0.12514476 -0.07478,-0.1492563 -0.202066,-0.2517513 -0.344307,-0.30259989 z"
     id="path5024"
     style="fill:#ffffff;fill-opacity:1;stroke:none" />
  <path
     inkscape:connector-curvature="0"
     d="m 29.968568,-1.7550252 c 0,-0.1231455 0.102852,-0.2462611 0.225849,-0.2462611 0.122898,0 0.225851,0.1231455 0.225851,0.2462611 0,0.1439906 -0.102852,0.246675 -0.225851,0.246675 -0.122896,0 -0.225849,-0.1027091 -0.225849,-0.246675"
     id="path5028"
     style="fill:#ffffff" />
  <use
     height="1052.3622"
     width="744.09448"
     y="0"
     x="0"
     transform="translate(-1.8597424,3.4473875)"
     id="use17239"
     xlink:href="#path17237" />
  <use
     height="1052.3622"
     width="744.09448"
     y="0"
     x="0"
     transform="translate(-5.5302315,0.92512941)"
     id="use17154"
     xlink:href="#use17152"
     style="fill:#002776;fill-opacity:1;stroke:none" />
  <use
     height="1052.3622"
     width="744.09448"
     y="0"
     x="0"
     transform="translate(0.52385842,-0.14756632)"
     id="use17263"
     xlink:href="#use17261" />
  <use
     height="1052.3622"
     width="744.09448"
     y="0"
     x="0"
     transform="translate(0.50172711,-0.19921464)"
     id="use17261"
     xlink:href="#use17259" />
  <use
     height="1052.3622"
     width="744.09448"
     y="0"
     x="0"
     transform="translate(2.0124816,0.20426231)"
     id="use17259"
     xlink:href="#use17257" />
  <use
     height="1052.3622"
     width="744.09448"
     y="0"
     x="0"
     transform="translate(0.47220656,0.21028198)"
     id="use17267"
     xlink:href="#use17265" />
  <use
     height="1052.3622"
     width="744.09448"
     y="0"
     x="0"
     transform="translate(0.34862079,0.40580735)"
     id="use17269"
     xlink:href="#use17267" />
  <use
     height="1052.3622"
     width="744.09448"
     y="0"
     x="0"
     transform="translate(-0.17523118,0.54230618)"
     id="use17275"
     xlink:href="#use17273" />
  <use
     height="1052.3622"
     width="744.09448"
     y="0"
     x="0"
     transform="matrix(-0.99999991,0,0,0.99999998,60.380868,-2.0420984e-8)"
     id="use17205"
     xlink:href="#path5006" />
  <use
     height="1052.3622"
     width="744.09448"
     y="0"
     x="0"
     transform="translate(2.9670512,-0.3339045)"
     id="use17196"
     xlink:href="#path5018"
     style="fill:#c60c30;fill-opacity:1" />
  <path
     inkscape:connector-curvature="0"
     d="m 30.19382,1.4961291 c 0.159989,0 0.302229,0.1414928 0.302229,0.323833 0,0.1596205 -0.14224,0.3022351 -0.302229,0.3022351 -0.15999,0 -0.302231,-0.1426295 -0.302231,-0.3022351 0,-0.1823252 0.142241,-0.323833 0.302231,-0.323833 z"
     id="path5066"
     style="fill:#002776;fill-opacity:1;stroke:none" />
  <use
     height="1052.3622"
     width="744.09448"
     y="0"
     x="0"
     transform="matrix(-0.99999992,0,0,1,60.386103,0)"
     id="use17192"
     xlink:href="#path5018"
     style="fill:#c60c30;fill-opacity:1" />
  <use
     height="1052.3622"
     width="744.09448"
     y="0"
     x="0"
     transform="matrix(-0.9797666,-0.20014363,-0.20014357,0.9797666,61.359031,6.2344647)"
     id="use17219"
     xlink:href="#path5024" />
  <use
     height="1052.3622"
     width="744.09448"
     y="0"
     x="0"
     transform="matrix(-0.99999991,0,0,0.99999998,60.382215,-2.0420984e-8)"
     id="use17215"
     xlink:href="#path5024" />
  <path
     inkscape:connector-curvature="0"
     d="m 29.968568,-1.7550252 c 0,-0.1231455 0.102852,-0.2462611 0.225849,-0.2462611 0.122898,0 0.225851,0.1231455 0.225851,0.2462611 0,0.1439906 -0.102852,0.246675 -0.225851,0.246675 -0.122896,0 -0.225849,-0.1027091 -0.225849,-0.246675"
     id="path5084"
     style="fill:#002776;fill-opacity:1;stroke:none" />
  <use
     height="1052.3622"
     width="744.09448"
     y="0"
     x="0"
     transform="translate(-0.25640008,0.64929186)"
     id="use17277"
     xlink:href="#use17275"
     style="fill:none" />
  <use
     height="1052.3622"
     width="744.09448"
     y="0"
     x="0"
     transform="translate(0.31033239,-0.92480472)"
     id="use17152"
     xlink:href="#use17150"
     style="fill:#002776;fill-opacity:1;stroke:none" />
  <use
     height="1052.3622"
     width="744.09448"
     y="0"
     x="0"
     transform="translate(-0.31910733,0.92782352)"
     id="use17279"
     xlink:href="#use17277" />
  <use
     height="1052.3622"
     width="744.09448"
     y="0"
     x="0"
     transform="translate(5.5462107,0.92480481)"
     id="use17150"
     xlink:href="#path5034"
     style="fill:#002776;fill-opacity:1;stroke:none" />
  <use
     height="1052.3622"
     width="744.09448"
     y="0"
     x="0"
     transform="translate(0.1918336,0.51279296)"
     id="use17271"
     xlink:href="#use17269" />
  <use
     height="1052.3622"
     width="744.09448"
     y="0"
     x="0"
     transform="translate(0.02398636,0.52939416)"
     id="use17273"
     xlink:href="#use17271" />
  <use
     height="1052.3622"
     width="744.09448"
     y="0"
     x="0"
     transform="matrix(0.8805247,0.47400021,-0.47400039,0.8805247,6.9837327,-13.463966)"
     id="use16843"
     xlink:href="#path5008"
     style="fill:#002776;fill-opacity:1;stroke:none" />
  <use
     height="1052.3622"
     width="744.09448"
     y="0"
     x="0"
     transform="matrix(-0.124014,0.68471662,0.68471698,0.124014,27.885931,-14.347397)"
     id="use16950"
     xlink:href="#path4864"
     style="fill:#ffffff;fill-opacity:1;stroke:#ffffff;stroke-opacity:1" />
  <use
     height="1052.3622"
     width="744.09448"
     y="0"
     x="0"
     transform="matrix(-0.2696864,0.7419364,0.7419368,0.2696864,31.305407,-16.574146)"
     id="use16952"
     xlink:href="#path4864"
     style="fill:#ffffff;fill-opacity:1;stroke:#ffffff;stroke-opacity:1" />
  <use
     height="1052.3622"
     width="744.09448"
     y="0"
     x="0"
     transform="matrix(-0.3608669,0.77377632,0.77377668,0.3608669,33.31069,-18.089063)"
     id="use16954"
     xlink:href="#path4864"
     style="fill:#ffffff;fill-opacity:1;stroke:#ffffff;stroke-opacity:1" />
  <use
     height="1052.3622"
     width="744.09448"
     y="0"
     x="0"
     transform="matrix(-0.4494532,0.80384784,0.80384816,0.4494532,35.197787,-19.542374)"
     id="use16956"
     xlink:href="#path4864"
     style="fill:#ffffff;fill-opacity:1;stroke:#ffffff;stroke-opacity:1" />
  <use
     height="1052.3622"
     width="744.09448"
     y="0"
     x="0"
     transform="matrix(-0.5382972,0.75295231,0.75295269,0.5382972,38.429365,-18.853139)"
     id="use16958"
     xlink:href="#path4864"
     style="fill:#ffffff;fill-opacity:1;stroke:#ffffff;stroke-opacity:1" />
  <use
     height="1052.3622"
     width="744.09448"
     y="0"
     x="0"
     transform="matrix(-0.6335479,0.62059911,0.62059929,0.6335479,43.168942,-16.142323)"
     id="use16960"
     xlink:href="#path4864"
     style="fill:#ffffff;fill-opacity:1;stroke:#ffffff;stroke-opacity:1" />
  <use
     height="1052.3622"
     width="744.09448"
     y="0"
     x="0"
     transform="matrix(-0.7138929,0.59712323,0.59712337,0.7138929,45.590259,-16.110961)"
     id="use16962"
     xlink:href="#path4864"
     style="fill:#ffffff;fill-opacity:1;stroke:#ffffff;stroke-opacity:1" />
  <use
     height="1052.3622"
     width="744.09448"
     y="0"
     x="0"
     transform="matrix(-0.7596561,0.50204764,0.50204776,0.7596561,48.21924,-13.549224)"
     id="use16964"
     xlink:href="#path4864"
     style="fill:#ffffff;fill-opacity:1;stroke:#ffffff;stroke-opacity:1" />
  <use
     height="1052.3622"
     width="744.09448"
     y="0"
     x="0"
     transform="matrix(-0.8562009,0.42858312,0.42858328,0.8562009,51.798735,-12.503102)"
     id="use16966"
     xlink:href="#path4864"
     style="fill:#ffffff;fill-opacity:1;stroke:#ffffff;stroke-opacity:1" />
  <use
     height="1052.3622"
     width="744.09448"
     y="0"
     x="0"
     transform="matrix(-0.892244,0.2633903,0.2633905,0.892244,55.252371,-7.921805)"
     id="use16968"
     xlink:href="#path4864"
     style="fill:#ffffff;fill-opacity:1;stroke:#ffffff;stroke-opacity:1" />
  <use
     height="1052.3622"
     width="744.09448"
     y="0"
     x="0"
     transform="matrix(-0.9119239,0.17507038,0.17507042,0.9119239,56.821672,-5.091832)"
     id="use16970"
     xlink:href="#path4864"
     style="fill:#ffffff;fill-opacity:1;stroke:#ffffff;stroke-opacity:1" />
  <use
     height="1052.3622"
     width="744.09448"
     y="0"
     x="0"
     transform="matrix(-0.2031957,0.72028681,0.72028719,0.2031957,29.69645,-15.732455)"
     id="use16972"
     xlink:href="#path4864"
     style="fill:#ffffff;fill-opacity:1;stroke:#ffffff;stroke-opacity:1" />
  <use
     height="1052.3622"
     width="744.09448"
     y="0"
     x="0"
     transform="matrix(-0.0375582,0.6374796,0.6374798,0.0375582,26.009225,-12.434669)"
     id="use16974"
     xlink:href="#path4864"
     style="fill:#ffffff;fill-opacity:1;stroke:#ffffff;stroke-opacity:1" />
  <use
     height="1052.3622"
     width="744.09448"
     y="0"
     x="0"
     transform="matrix(0.03313882,0.57362584,0.57362596,-0.03313882,24.79768,-10.328154)"
     id="use16976"
     xlink:href="#path4864"
     style="fill:#ffffff;fill-opacity:1;stroke:#ffffff;stroke-opacity:1" />
  <use
     height="1052.3622"
     width="744.09448"
     y="0"
     x="0"
     transform="matrix(0.09811271,0.50517322,0.50369538,-0.09840061,23.797947,-8.0302492)"
     id="use16978"
     xlink:href="#path4864"
     style="fill:#ffffff;fill-opacity:1;stroke:#ffffff;stroke-opacity:1" />
  <use
     height="1052.3622"
     width="744.09448"
     y="0"
     x="0"
     transform="matrix(-0.9507289,0.03511429,0.03511431,0.9507289,59.079445,-0.60123033)"
     id="use16980"
     xlink:href="#path4864"
     style="fill:#ffffff;fill-opacity:1;stroke:#ffffff;stroke-opacity:1" />
  <use
     height="1052.3622"
     width="744.09448"
     y="0"
     x="0"
     transform="matrix(-0.9255256,0.08451297,0.08451291,0.9255256,58.206523,-2.174426)"
     id="use16982"
     xlink:href="#path4864"
     style="fill:#ffffff;fill-opacity:1;stroke:#ffffff;stroke-opacity:1" />
  <use
     height="1052.3622"
     width="744.09448"
     y="0"
     x="0"
     transform="matrix(0.4469332,-0.25510161,-0.25489989,-0.445441,26.883926,18.641258)"
     id="use17064"
     xlink:href="#path4864"
     style="fill:#ffffff;fill-opacity:1;stroke:#ffffff;stroke-opacity:1" />
  <use
     height="1052.3622"
     width="744.09448"
     y="0"
     x="0"
     transform="matrix(-0.7640298,6.9577303e-4,-6.8831669e-4,-0.7723067,45.079779,22.843662)"
     id="use17114"
     xlink:href="#path4864"
     style="fill:#ffffff;fill-opacity:1;stroke:#ffffff;stroke-opacity:1" />
  <use
     height="1052.3622"
     width="744.09448"
     y="0"
     x="0"
     transform="matrix(-0.7992523,0.05167681,-0.05167683,-0.7992523,46.974422,22.697479)"
     id="use17116"
     xlink:href="#path4864"
     style="fill:#ffffff;fill-opacity:1;stroke:#ffffff;stroke-opacity:1" />
  <use
     height="1052.3622"
     width="744.09448"
     y="0"
     x="0"
     transform="matrix(-0.8253097,0.10853594,-0.10853606,-0.8253097,48.783223,22.362821)"
     id="use17118"
     xlink:href="#path4864"
     style="fill:#ffffff;fill-opacity:1;stroke:#ffffff;stroke-opacity:1" />
  <use
     height="1052.3622"
     width="744.09448"
     y="0"
     x="0"
     transform="matrix(-0.8372931,0.12352035,-0.12352045,-0.8372931,49.545122,22.859533)"
     id="use17120"
     xlink:href="#path4864"
     style="fill:#ffffff;fill-opacity:1;stroke:#ffffff;stroke-opacity:1" />
  <use
     height="1052.3622"
     width="744.09448"
     y="0"
     x="0"
     transform="matrix(-0.8357628,0.13129985,-0.13129995,-0.8357628,49.850631,23.300527)"
     id="use17122"
     xlink:href="#path4864"
     style="fill:#ffffff;fill-opacity:1;stroke:#ffffff;stroke-opacity:1" />
  <use
     height="1052.3622"
     width="744.09448"
     y="0"
     x="0"
     transform="matrix(-0.8598048,0.15335148,-0.15335152,-0.8598048,51.1479,23.76816)"
     id="use17124"
     xlink:href="#path4864"
     style="fill:#ffffff;fill-opacity:1;stroke:#ffffff;stroke-opacity:1" />
  <use
     height="1052.3622"
     width="744.09448"
     y="0"
     x="0"
     transform="matrix(-0.8435017,0.18001549,-0.18001551,-0.8435017,51.503574,23.376353)"
     id="use17126"
     xlink:href="#path4864"
     style="fill:#ffffff;fill-opacity:1;stroke:#ffffff;stroke-opacity:1" />
  <use
     height="1052.3622"
     width="744.09448"
     y="0"
     x="0"
     transform="matrix(-0.8765505,0.30645399,-0.30645421,-0.8765505,54.934006,21.217023)"
     id="use17128"
     xlink:href="#path4864"
     style="fill:#ffffff;fill-opacity:1;stroke:#ffffff;stroke-opacity:1" />
  <use
     height="1052.3622"
     width="744.09448"
     y="0"
     x="0"
     transform="matrix(-0.8408447,0.36258003,-0.36258017,-0.8408447,55.450196,19.679551)"
     id="use17130"
     xlink:href="#path4864"
     style="fill:#ffffff;fill-opacity:1;stroke:#ffffff;stroke-opacity:1" />
  <use
     height="1052.3622"
     width="744.09448"
     y="0"
     x="0"
     transform="matrix(-0.8450975,0.47097311,-0.47097329,-0.8450975,57.984981,17.426271)"
     id="use17132"
     xlink:href="#path4864"
     style="fill:#ffffff;fill-opacity:1;stroke:#ffffff;stroke-opacity:1" />
  <use
     height="1052.3622"
     width="744.09448"
     y="0"
     x="0"
     transform="matrix(-0.7644352,0.03035057,-0.03035057,-0.7644352,45.589412,21.107271)"
     id="use17136"
     xlink:href="#path4864"
     style="fill:#ffffff;fill-opacity:1;stroke:#ffffff;stroke-opacity:1" />
  <use
     height="1052.3622"
     width="744.09448"
     y="0"
     x="0"
     transform="matrix(-0.7166032,-0.00527678,0.00527678,-0.7166032,43.760113,20.424411)"
     id="use17138"
     xlink:href="#path4864"
     style="fill:#ffffff;fill-opacity:1;stroke:#ffffff;stroke-opacity:1" />
  <use
     height="1052.3622"
     width="744.09448"
     y="0"
     x="0"
     transform="matrix(-0.7172488,-0.05658987,0.05658989,-0.7172488,42.984837,20.986419)"
     id="use17140"
     xlink:href="#path4864"
     style="fill:#ffffff;fill-opacity:1;stroke:#ffffff;stroke-opacity:1" />
  <use
     height="1052.3622"
     width="744.09448"
     y="0"
     x="0"
     transform="matrix(-0.6675966,-0.12115995,0.12116005,-0.6675966,40.738146,21.05916)"
     id="use17142"
     xlink:href="#path4864"
     style="fill:#ffffff;fill-opacity:1;stroke:#ffffff;stroke-opacity:1" />
  <use
     height="1052.3622"
     width="744.09448"
     y="0"
     x="0"
     transform="matrix(-0.5848277,-0.16276058,0.16276062,-0.5848277,38.02397,19.965758)"
     id="use17144"
     xlink:href="#path4864"
     style="fill:#ffffff;fill-opacity:1;stroke:#ffffff;stroke-opacity:1" />
  <use
     height="1052.3622"
     width="744.09448"
     y="0"
     x="0"
     transform="matrix(-0.5162633,-0.25222441,0.25222459,-0.5162633,35.005034,20.428359)"
     id="use17146"
     xlink:href="#path4864"
     style="fill:#ffffff;fill-opacity:1;stroke:#ffffff;stroke-opacity:1" />
  <use
     height="1052.3622"
     width="744.09448"
     y="0"
     x="0"
     transform="matrix(-0.4469332,-0.25510161,0.25489989,-0.445441,33.472273,18.641258)"
     id="use17148"
     xlink:href="#path4864"
     style="fill:#ffffff;fill-opacity:1;stroke:#ffffff;stroke-opacity:1" />
  <path
     inkscape:connector-curvature="0"
     d="m 27.44739,1.3050516 c 0,-0.3262659 0.264588,-0.59125115 0.570572,-0.59125115 0.305571,0 0.570179,0.26498675 0.570179,0.59125115 0,0.3461388 -0.264589,0.6111255 -0.570179,0.6111255 -0.305969,0 -0.570572,-0.2649873 -0.570572,-0.6111255 z"
     id="path5018"
     style="fill:#c60c30;fill-opacity:1" />
  <use
     height="1052.3622"
     width="744.09448"
     y="0"
     x="0"
     transform="matrix(0.9797666,-0.20014363,0.20014357,0.9797666,-0.97149874,6.236311)"
     id="use17217"
     xlink:href="#path5024"
     style="fill:#ffffff;fill-opacity:1;stroke:none" />
  <use
     height="1052.3622"
     width="744.09448"
     y="0"
     x="0"
     transform="translate(-0.2617124,-0.64888276)"
     id="use17243"
     xlink:href="#use17241"
     style="fill:#ffffff;fill-opacity:1" />
  <use
     height="1052.3622"
     width="744.09448"
     y="0"
     x="0"
     transform="translate(-0.30943765,-0.93663696)"
     id="use17241"
     xlink:href="#use17239"
     style="fill:#ffffff;fill-opacity:1" />
  <path
     inkscape:connector-curvature="0"
     d="m 27.175044,1.490108 c 0,-0.061303 0.04138,-0.1027091 0.08282,-0.1027091 0.04138,0 0.08282,0.041281 0.08282,0.1027091 0,0.041281 -0.04139,0.082273 -0.08282,0.082273 -0.04139,0 -0.08282,-0.040882 -0.08282,-0.082273"
     id="path5034"
     style="fill:#002776;fill-opacity:1;stroke:none" />
  <path
     inkscape:connector-curvature="0"
     d="m 30.79967,17.175374 -0.09751,0.768661 c -0.228393,0.168102 -0.712156,0.158055 -0.922515,0.04956 -0.212388,-0.109659 -0.205409,-0.196735 -0.21892,-0.463447 -0.01347,-0.266787 0.129528,-0.440726 0.343511,-0.49669 0.211542,-0.0553 0.407078,-0.0732 0.700933,-0.03554 0,0 0.112177,0.03391 0.19459,0.17748 z"
     id="path4788"
     style="fill:#002776;fill-opacity:1;fill-rule:evenodd;stroke:#ffffff;stroke-width:0.05885063;stroke-linecap:butt;stroke-linejoin:miter;stroke-miterlimit:2.61299992;stroke-opacity:1" />
  <path
     inkscape:connector-curvature="0"
     d="m 30.35882,17.51127 c 0,-0.246676 0.122896,-0.452024 0.267131,-0.452024 0.143587,0 0.266732,0.205348 0.266732,0.452024 0,0.246246 -0.122896,0.4516 -0.266732,0.4516 -0.143986,0 -0.267131,-0.205354 -0.267131,-0.4516 z"
     id="path4982"
     style="fill:#002776;fill-opacity:1;stroke:#ffffff;stroke-width:0.05885063;stroke-linecap:butt;stroke-linejoin:miter;stroke-miterlimit:2.61299992;stroke-opacity:1" />
  <path
     inkscape:connector-curvature="0"
     d="m 30.605081,16.997892 c 0.164426,-0.267121 0.246689,-0.513799 0.205308,-0.719151 -0.01995,-0.2258 -0.451599,-0.205354 -0.698264,-0.2258 0,0 -0.184868,-0.02084 -0.390277,-0.143991 0.06142,0 0.308013,0.02084 0.513412,0.02084 0.246691,0 0.49338,-0.04129 0.554683,-0.04129 0.287573,0 0.554684,0.123546 0.554684,0.390253 -0.01995,0.287573 -0.606774,0.844124 -0.9153,0.92593 l 0.175644,-0.206779 z"
     id="path5096"
     style="fill:#ffffff;fill-opacity:1;fill-rule:evenodd;stroke:none;stroke-width:0.04925090000000000;stroke-linecap:butt;stroke-linejoin:miter;stroke-miterlimit:2.61299992000000000;stroke-opacity:1" />
  <path
     inkscape:connector-curvature="0"
     d="m 30.691123,17.631824 c 0.02941,0.120473 -0.0044,0.271035 -0.05878,0.338152 -0.100162,-0.05089 -0.223307,-0.144674 -0.251925,-0.227176 -0.02792,-0.08133 -0.02543,-0.276459 -0.0045,-0.400234 0.21209,0.03501 0.284731,0.165295 0.315194,0.289244 z"
     id="path3482"
     style="fill:#ffffff;fill-rule:nonzero;stroke:none" />
</svg>
