<!--
    Bowline Loop Diagram
    Copyright © 2014, Alex Westphal. All rights reserved
-->
<svg version="1.1" baseProfile="full" width="400" height="200" viewBox="0 0 200 100" xmlns="http://www.w3.org/2000/svg">

    <!-- Standing End -->
    <path d="M 200 70 H 155 " stroke="black" stroke-width="9" fill="transparent"/>
    <path d="M 200 70 H 155" stroke="#D44" stroke-width="8" fill="transparent"/>

    <!-- Section 2 -->
    <path d="M 110 50 C 90 50, 90 90, 110 90" stroke="black" stroke-width="9" fill="transparent"/>
    <path d="M 110 50 C 90 50, 90 90, 110 90" stroke="#D44" stroke-width="8" fill="transparent"/>

    <!-- Section 4 -->
    <path d="M 70 65 H 80 C 120 65, 120 50, 140 50 C 170 50, 170 90, 140 90 C 120 90, 120 75, 100 75" stroke="black" stroke-width="9" fill="transparent"/>
    <path d="M 70 65 H 80 C 120 65, 120 50, 140 50 C 170 50, 170 90, 140 90 C 120 90, 120 75, 100 75" stroke="#D44" stroke-width="8" fill="transparent"/>

    <!-- Section 3 -->
    <path d="M 110 90 C 130 90, 140 70, 140 50 C 140 30, 120 10, 100 10 C 80 10, 20 10, 20 40 C 20 100, 80 75, 100 75" stroke="black" stroke-width="9" fill="transparent"/>
    <path d="M 110 90 C 130 90, 140 70, 140 50 C 140 30, 120 10, 100 10 C 80 10, 20 10, 20 40 C 20 100, 80 75, 100 75" stroke="#D44" stroke-width="8" fill="transparent"/>

    <!-- Section 1-->
    <path d="M 155 70 C 130 70, 130 50, 110 50" stroke="black" stroke-width="9" fill="transparent"/>
    <path d="M 155 70 C 130 70, 130 50, 110 50" stroke="#D44" stroke-width="8" fill="transparent"/>

    <!-- Running End Cap -->
    <path d="M 70 61 v 8" stroke="black" stroke-width="1" fill="transparent"/>

    <!-- Running End Marks -->
    <path d="M 72 61 v 8" stroke="black" stroke-width="1" fill="transparent" stroke-opacity="0.8"/>
    <path d="M 74 61 v 8" stroke="black" stroke-width="1" fill="transparent" stroke-opacity="0.8"/>
    <path d="M 76 61 v 8" stroke="black" stroke-width="1" fill="transparent" stroke-opacity="0.8"/>

</svg>