<!--
    Carrick Bend Diagram
    Copyright © 2014, Alex Westphal. All rights reserved
-->
<svg version="1.1" baseProfile="full" width="400" height="200" viewBox="0 0 200 100" xmlns="http://www.w3.org/2000/svg">

    <!-- Blue Rope - Standing End -->
    <path d="M 200 20 C 180 20, 150 20, 130 40" stroke="black" stroke-width="9" fill="transparent"/>
    <path d="M 200 20 C 180 20, 150 20, 130 40" stroke="#22D" stroke-width="8" fill="transparent"/>

    <!-- Red Rope - Standing End -->
    <path d="M 0 80 C 20 80, 50 80, 70 60" stroke="black" stroke-width="9" fill="transparent"/>
    <path d="M 0 80 C 20 80, 50 80, 70 60" stroke="#D44" stroke-width="8" fill="transparent"/>

    <!-- Red Rope - Section 2 -->
    <path d="M 140 70 A 20 20, 180,0,0, 100 30 L 90 40" stroke="black" stroke-width="9" fill="transparent"/>
    <path d="M 140 70 A 20 20, 180,0,0, 100 30 L 90 40" stroke="#D44" stroke-width="8" fill="transparent"/>

    <!-- Blue Rope - Section 2 -->
    <path d="M 60 30 A 20 20, 180,0,0, 100 70 L 110 60" stroke="black" stroke-width="9" fill="transparent"/>
    <path d="M 60 30 A 20 20, 180,0,0, 100 70 L 110 60" stroke="#22D" stroke-width="8" fill="transparent"/>

    <!-- Red Rope - Section 3 -->
    <path d="M 140 70 Q 120 90, 100 70" stroke="black" stroke-width="9" fill="transparent"/>
    <path d="M 140 70 Q 120 90, 100 70" stroke="#D44" stroke-width="8" fill="transparent"/>

    <!-- Blue Rope - Section 3 -->
    <path d="M 60 30 Q 80 10, 100 30" stroke="black" stroke-width="9" fill="transparent"/>
    <path d="M 60 30 Q 80 10, 100 30" stroke="#22D" stroke-width="8" fill="transparent"/>

    <!-- Blue Rope - Running End -->
    <path d="M 100 30 L 130 60 C 150 80, 160 80, 180 80" stroke="black" stroke-width="9" fill="transparent"/>
    <path d="M 100 30 L 130 60 C 150 80, 160 80, 180 80" stroke="#22D" stroke-width="8" fill="transparent"/>

    <!-- Red Rope - Running End -->
    <path d="M 100 70 L 70 40 C 50 20, 40 20, 20 20" stroke="black" stroke-width="9" fill="transparent"/>
    <path d="M 100 70 L 70 40 C 50 20, 40 20, 20 20" stroke="#D44" stroke-width="8" fill="transparent"/>

    <!-- Red Rope - Section 1 -->
    <path d="M 70 60 L 90 40" stroke="black" stroke-width="9" fill="transparent"/>
    <path d="M 70 60 L 90 40" stroke="#D44" stroke-width="8" fill="transparent"/>

    <!-- Blue Rope - Section 1 -->
    <path d="M 130 40 L 110 60" stroke="black" stroke-width="9" fill="transparent"/>
    <path d="M 130 40 L 110 60" stroke="#22D" stroke-width="8" fill="transparent"/>

    <!-- Red Rope - Running End Marks -->
    <path d="M 20 16 v 8 m 2 -8 v 8 m 2 -8 v 8 m 2 -8 v 8" stroke="black" stroke-width="1" stroke-opacity="0.8" fill="transparent"/>

    <!-- Blue Rope - Running End Marks -->
    <path d="M 180 76 v 8 m -2 -8 v 8 m -2 -8 v 8 m -2 -8 v 8" stroke="black" stroke-width="1" stroke-opacity="0.8" fill="transparent"/>
</svg>