<!--
    Clove Hitch Diagram
    Copyright © 2014, Alex Westphal. All rights reserved
-->
<svg version="1.1" baseProfile="full" width="400" height="200" viewBox="0 0 200 100" xmlns="http://www.w3.org/2000/svg">
    <defs>
        <linearGradient id="PipeGradient" x1="0" x2="0" y1="0" y2="1">
            <stop offset="0%" stop-color="#666"/>
            <stop offset="50%" stop-color="#CCC"/>
            <stop offset="100%" stop-color="#888"/>
        </linearGradient>
      </defs>

    <!-- Pipe -->
    <rect x="0" y="40" width="200" height="20" stroke="black" stroke-width="0.25" fill="url(#PipeGradient)"/>

    <!-- Standing End -->
    <path d="M 105 100 V 50 C 105 30, 115 30, 115 40" stroke="black" stroke-width="5" fill="transparent"/>
    <path d="M 105 100 V 50 C 105 30, 115 30, 115 40" stroke="#D44" stroke-width="4" fill="transparent"/>

    <!-- Running End -->
    <path d="M 95 20 V 50 C 95 70, 85 70, 85 60" stroke="black" stroke-width="5" fill="transparent"/>
    <path d="M 95 20 V 50 C 95 70, 85 70, 85 60" stroke="#D44" stroke-width="4" fill="transparent"/>

    <!-- Cross Section -->
    <path d="M 85 40 C 85 15, 115 85, 115 60" stroke="black" stroke-width="5" fill="transparent"/>
    <path d="M 85 40 C 85 15, 115 85, 115 60" stroke="#D44" stroke-width="4" fill="transparent"/>

    <!-- Running End Cap -->
    <path d="M 93 20 h 4" stroke="black" stroke-width="1" fill="transparent"/>

</svg>