<!--
    Figure Eight Loop (Inline)
    Copyright © 2014, Alex Westphal. All rights reserved
-->
<svg version="1.1" baseProfile="full" width="200" height="400" viewBox="0 0 100 200" xmlns="http://www.w3.org/2000/svg">

    <!-- Border Rectangle -->
    <rect x="0" y="0" width="100" height="200" stroke="#888" fill="transparent"/>

    <!-- Horizontal Grid Line -->
    <line x1="0" x2="100" y1="10" y2="10" stroke="#BBB" stroke-width="0.5" fill="transparent"/>
    <line x1="0" x2="100" y1="20" y2="20" stroke="#BBB" stroke-width="0.5" fill="transparent"/>
    <line x1="0" x2="100" y1="30" y2="30" stroke="#BBB" stroke-width="0.5" fill="transparent"/>
    <line x1="0" x2="100" y1="40" y2="40" stroke="#BBB" stroke-width="0.5" fill="transparent"/>
    <line x1="0" x2="100" y1="50" y2="50" stroke="#BBB" stroke-width="0.5" fill="transparent"/>
    <line x1="0" x2="100" y1="60" y2="60" stroke="#BBB" stroke-width="0.5" fill="transparent"/>
    <line x1="0" x2="100" y1="70" y2="70" stroke="#BBB" stroke-width="0.5" fill="transparent"/>
    <line x1="0" x2="100" y1="80" y2="80" stroke="#BBB" stroke-width="0.5" fill="transparent"/>
    <line x1="0" x2="100" y1="90" y2="90" stroke="#BBB" stroke-width="0.5" fill="transparent"/>
    <line x1="0" x2="100" y1="100" y2="100" stroke="#BBB" stroke-width="0.5" fill="transparent"/>
    <line x1="0" x2="100" y1="110" y2="110" stroke="#BBB" stroke-width="0.5" fill="transparent"/>
    <line x1="0" x2="100" y1="120" y2="120" stroke="#BBB" stroke-width="0.5" fill="transparent"/>
    <line x1="0" x2="100" y1="130" y2="130" stroke="#BBB" stroke-width="0.5" fill="transparent"/>
    <line x1="0" x2="100" y1="140" y2="140" stroke="#BBB" stroke-width="0.5" fill="transparent"/>
    <line x1="0" x2="100" y1="150" y2="150" stroke="#BBB" stroke-width="0.5" fill="transparent"/>
    <line x1="0" x2="100" y1="160" y2="160" stroke="#BBB" stroke-width="0.5" fill="transparent"/>
    <line x1="0" x2="100" y1="170" y2="170" stroke="#BBB" stroke-width="0.5" fill="transparent"/>
    <line x1="0" x2="100" y1="180" y2="180" stroke="#BBB" stroke-width="0.5" fill="transparent"/>
    <line x1="0" x2="100" y1="190" y2="190" stroke="#BBB" stroke-width="0.5" fill="transparent"/>

    <!-- Vertical Grid Line -->
    <line x1="10" x2="10" y1="0" y2="200" stroke="#BBB" stroke-width="0.5" fill="transparent"/>
    <line x1="20" x2="20" y1="0" y2="200" stroke="#BBB" stroke-width="0.5" fill="transparent"/>
    <line x1="30" x2="30" y1="0" y2="200" stroke="#BBB" stroke-width="0.5" fill="transparent"/>
    <line x1="40" x2="40" y1="0" y2="200" stroke="#BBB" stroke-width="0.5" fill="transparent"/>
    <line x1="50" x2="50" y1="0" y2="200" stroke="#BBB" stroke-width="0.5" fill="transparent"/>
    <line x1="60" x2="60" y1="0" y2="200" stroke="#BBB" stroke-width="0.5" fill="transparent"/>
    <line x1="70" x2="70" y1="0" y2="200" stroke="#BBB" stroke-width="0.5" fill="transparent"/>
    <line x1="80" x2="80" y1="0" y2="200" stroke="#BBB" stroke-width="0.5" fill="transparent"/>
    <line x1="90" x2="90" y1="0" y2="200" stroke="#BBB" stroke-width="0.5" fill="transparent"/>

    <path d="M 40 0 V 120 A 10 10, 180, 0, 0, 60 120 C 60 100, 30 100, 30 80 A 10 10, 180, 0, 1, 50 80 V 200" stroke="black" stroke-width="2" fill="transparent"/>
</svg>