<!--
    Reef Knot Diagram
    Copyright © 2014, Alex Westphal. All rights reserved
-->
<svg version="1.1" baseProfile="full" width="400" height="200" viewBox="0 0 200 100" xmlns="http://www.w3.org/2000/svg">

    <!-- Running End Curve -->
    <path d="M 70 60 C 40 60, 40 25, 70 25" stroke="black" stroke-width="9" fill="transparent"/>
    <path d="M 70 60 C 40 60, 40 25, 70 25" stroke="#D44" stroke-width="8" fill="transparent"/>

    <!-- Standing End -->
    <path d="M 0 40 H 110" stroke="black" stroke-width="9" fill="transparent"/>
    <path d="M 0 40 H 110" stroke="#D44" stroke-width="8" fill="transparent"/>

    <!-- Middle Section -->
    <path d="M 70 25 C 100 25, 80 75, 110 75" stroke="black" stroke-width="9" fill="transparent"/>
    <path d="M 70 25 C 100 25, 80 75, 110 75" stroke="#D44" stroke-width="8" fill="transparent"/>

    <!-- Running End -->
    <path d="M 70 60 H 180" stroke="black" stroke-width="9" fill="transparent"/>
    <path d="M 70 60 H 180" stroke="#D44" stroke-width="8" fill="transparent"/>

    <!-- Standing End Curve -->
    <path d="M 110 40 C 140 40, 140 75, 110 75" stroke="black" stroke-width="9" fill="transparent"/>
    <path d="M 110 40 C 140 40, 140 75, 110 75" stroke="#D44" stroke-width="8" fill="transparent"/>

    <!-- Running End Cap -->
    <path d="M 180 56 v 8" stroke="black" stroke-width="1" fill="transparent"/>

    <!-- Running End Marks -->
    <path d="M 178 56 v 8" stroke="black" stroke-width="1" fill="transparent" stroke-opacity="0.8"/>
    <path d="M 176 56 v 8" stroke="black" stroke-width="1" fill="transparent" stroke-opacity="0.8"/>
    <path d="M 174 56 v 8" stroke="black" stroke-width="1" fill="transparent" stroke-opacity="0.8"/>
</svg>