<!--
    Reef Knot Diagram
    Copyright © 2014, Alex Westphal. All rights reserved
-->
<svg version="1.1" baseProfile="full" width="400" height="200" viewBox="0 0 200 100" xmlns="http://www.w3.org/2000/svg">

    <!-- Red Rope - Running End Curve -->
    <path d="M 50 65 C 20 65, 20 10, 50 10" stroke="black" stroke-width="9" fill="transparent"/>
    <path d="M 50 65 C 20 65, 20 10, 50 10" stroke="#D44" stroke-width="8" fill="transparent"/>

    <!-- Blue Rope - Standing End Curve -->
    <path d="M 50 55 C 35 55, 35 20, 50 20" stroke="black" stroke-width="9" fill="transparent"/>
    <path d="M 50 55 C 35 55, 35 20, 50 20" stroke="#22D" stroke-width="8" fill="transparent"/>

    <!-- Red Rope - Standing End -->
    <path d="M 0 45 H 140" stroke="black" stroke-width="9" fill="transparent"/>
    <path d="M 0 45 H 140" stroke="#D44" stroke-width="8" fill="transparent"/>

    <!-- Blue Rope Running End -->
    <path d="M 10 35 H 140" stroke="black" stroke-width="9" fill="transparent"/>
    <path d="M 10 35 H 140" stroke="#22D" stroke-width="8" fill="transparent"/>

    <!-- Red Rope - Middle Section -->
    <path d="M 50 10 C 100 10, 110 80, 140 80" stroke="black" stroke-width="9" fill="transparent"/>
    <path d="M 50 10 C 100 10, 110 80, 140 80" stroke="#D44" stroke-width="8" fill="transparent"/>

    <!-- Blue Rope - Middle Section -->
    <path d="M 50 20 C 95 20, 100 90, 140 90" stroke="black" stroke-width="9" fill="transparent"/>
    <path d="M 50 20 C 95 20, 100 90, 140 90" stroke="#22D" stroke-width="8" fill="transparent"/>

    <!-- Red Rope - Running End -->
    <path d="M 50 65 H 190" stroke="black" stroke-width="9" fill="transparent"/>
    <path d="M 50 65 H 190" stroke="#D44" stroke-width="8" fill="transparent"/>

    <!-- Blue Rope - Standing End -->
    <path d="M 50 55 H 200" stroke="black" stroke-width="9" fill="transparent"/>
    <path d="M 50 55 H 200" stroke="#22D" stroke-width="8" fill="transparent"/>

    <!-- Red Rope - Standing End Curve -->
    <path d="M 140 45 C 170 45, 170 80, 140 80" stroke="black" stroke-width="9" fill="transparent"/>
    <path d="M 140 45 C 170 45, 170 80, 140 80" stroke="#D44" stroke-width="8" fill="transparent"/>

    <!-- Blue Rope - Running End Curve -->
    <path d="M 140 35 C 185 35, 185 90, 140 90" stroke="black" stroke-width="9" fill="transparent"/>
    <path d="M 140 35 C 185 35, 185 90, 140 90" stroke="#22D" stroke-width="8" fill="transparent"/>

    <!-- Red Rope - Running End Cap -->
    <path d="M 190 61 v 8" stroke="black" stroke-width="1" fill="transparent"/>

    <!-- Blue Rope - Running End Cap -->
    <path d="M 10 31 v 8" stroke="black" stroke-width="1" fill="transparent"/>

    <!-- Red Rope - Running End Marks -->
    <path d="M 188 61 v 8" stroke="black" stroke-width="1" fill="transparent" stroke-opacity="0.8"/>
    <path d="M 186 61 v 8" stroke="black" stroke-width="1" fill="transparent" stroke-opacity="0.8"/>
    <path d="M 184 61 v 8" stroke="black" stroke-width="1" fill="transparent" stroke-opacity="0.8"/>

    <!-- Blue Rope - Running End Marks -->
    <path d="M 12 31 v 8" stroke="black" stroke-width="1" fill="transparent" stroke-opacity="0.8"/>
    <path d="M 14 31 v 8" stroke="black" stroke-width="1" fill="transparent" stroke-opacity="0.8"/>
    <path d="M 16 31 v 8" stroke="black" stroke-width="1" fill="transparent" stroke-opacity="0.8"/>


</svg>