<!--
    Knot: k1
    Copyright © 2014, Alex Westphal. All rights reserved
-->
<svg version="1.1" baseProfile="full" width="200" height="80" viewBox="0 0 100 40" xmlns="http://www.w3.org/2000/svg">

    <defs>
        <marker id='head' orient='auto' markerWidth='2' markerHeight='4'
                refX='0.1' refY='2'>
          <path d='M0,0 V4 L2,2 Z' fill='black' />
        </marker>
    </defs>

    <!-- Direction Arrow (Under) -->
    <path d="M 70 20 H 50" stroke="black" stroke-width="1.5" fill="transparent"/>

    <!-- Left Leg -->
    <path d="M 0 10 H 30 C 50 10, 60 10, 60 20" stroke="black" stroke-width="5" fill="transparent"/>
    <path d="M 0 10 H 30 C 50 10, 60 10, 60 20" stroke="#D44" stroke-width="4" fill="transparent"/>

    <!-- Right Leg -->
    <path d="M 70 10 C 50 10, 40 10, 40 20" stroke="black" stroke-width="5" fill="transparent"/>
    <path d="M 70 10 C 50 10, 40 10, 40 20" stroke="#D44" stroke-width="4" fill="transparent"/>

    <!-- Cap Arc -->
    <path d="M 40 20 A 10 10, 180,0,0, 60 20" stroke="black" stroke-width="5" fill="transparent"/>
    <path d="M 40 20 A 10 10, 180,0,0, 60 20" stroke="#D44" stroke-width="4" fill="transparent"/>

    <!-- Running End -->
    <path d="M 70 10 A 5 5, 180,0,1, 70 20" stroke="black" stroke-width="5" fill="transparent"/>
    <path d="M 70 10 A 5 5, 180,0,1, 70 20" stroke="#D44" stroke-width="4" fill="transparent"/>

    <!-- Running End Cap -->
    <path d="M 70 18 v 4" stroke="black" stroke-width="1" fill="transparent"/>

    <!-- Direction Arrow (Over) -->
    <path d="M 50 20 H 20" stroke="black" stroke-width="1.5" fill="transparent" marker-end="url(#head)"/>
</svg>