<!--
    Kamikaze Knot Diagram
    Copyright © 2014, Alex Westphal. All rights reserved
-->
<svg version="1.1" baseProfile="full" width="400" height="200" viewBox="0 0 200 100" xmlns="http://www.w3.org/2000/svg">

    <!-- Section 7 -->
    <path d="M 150 20 C 130 20, 120 60, 140 60" stroke="black" stroke-width="9" fill="transparent"/>
    <path d="M 150 20 C 130 20, 120 60, 140 60" stroke="#22D" stroke-width="8" fill="transparent"/>

    <!-- Section 2 -->
    <path d="M 50 80 C 70 80, 80 40, 60 40" stroke="black" stroke-width="9" fill="transparent"/>
    <path d="M 50 80 C 70 80, 80 40, 60 40" stroke="#D44" stroke-width="8" fill="transparent"/>

    <!-- Section 4 -->
    <path d="M 60 30 H 170 C 190 30, 190 50, 170 50 H 102" stroke="black" stroke-width="9" fill="transparent"/>
    <path d="M 60 30 H 170 C 190 30, 190 50, 170 50 H 102" stroke="#D44" stroke-width="8" fill="transparent"/>

    <!-- Section 5 -->
    <path d="M 98 50 H 30 C 10 50, 10 70, 30 70 H 140" stroke="black" stroke-width="9" fill="transparent"/>
    <path d="M 98 50 H 30 C 10 50, 10 70, 30 70 H 140" stroke="#22D" stroke-width="8" fill="transparent"/>

    <!-- Section 6 -->
    <path d="M 140 70 C 170 70, 170 20, 150 20" stroke="black" stroke-width="9" fill="transparent"/>
    <path d="M 140 70 C 170 70, 170 20, 150 20" stroke="#22D" stroke-width="8" fill="transparent"/>

    <!-- Section 3 -->
    <path d="M 60 30 C 30 30, 30 80, 50 80" stroke="black" stroke-width="9" fill="transparent"/>
    <path d="M 60 30 C 30 30, 30 80, 50 80" stroke="#D44" stroke-width="8" fill="transparent"/>

    <!-- Section 8 -->
    <path d="M 140 60 H 200" stroke="black" stroke-width="9" fill="transparent"/>
    <path d="M 140 60 H 200" stroke="#22D" stroke-width="8" fill="transparent"/>

    <!-- Section 1 -->
    <path d="M 0 40 H 60" stroke="black" stroke-width="9" fill="transparent"/>
    <path d="M 0 40 H 60" stroke="#D44" stroke-width="8" fill="transparent"/>

    <!-- Section 5 End Cap -->
    <path d="M 102 46 v 8" stroke="black" stroke-width="1" fill="transparent"/>

    <!-- Section 4 End Marks -->
    <path d="M 104 46 v 8" stroke="black" stroke-width="1" fill="transparent" stroke-opacity="0.8"/>
    <path d="M 106 46 v 8" stroke="black" stroke-width="1" fill="transparent" stroke-opacity="0.8"/>
    <path d="M 108 46 v 8" stroke="black" stroke-width="1" fill="transparent" stroke-opacity="0.8"/>

    <!-- Section 5 End Cap -->
    <path d="M 98 46 v 8" stroke="black" stroke-width="1" fill="transparent"/>

    <!-- Section 5 End Marks -->
    <path d="M 96 46 v 8" stroke="black" stroke-width="1" fill="transparent" stroke-opacity="0.8"/>
    <path d="M 94 46 v 8" stroke="black" stroke-width="1" fill="transparent" stroke-opacity="0.8"/>
    <path d="M 92 46 v 8" stroke="black" stroke-width="1" fill="transparent" stroke-opacity="0.8"/>
</svg>