<!--
    Prussick Knot Diagram
    Copyright © 2014, Alex Westphal. All rights reserved
-->
<svg version="1.1" baseProfile="full" width="400" height="200" viewBox="0 0 200 100" xmlns="http://www.w3.org/2000/svg">
     <defs>
        <linearGradient id="PipeGradient" x1="0" x2="1" y1="0" y2="0">
            <stop offset="0%" stop-color="#666"/>
            <stop offset="50%" stop-color="#CCC"/>
            <stop offset="100%" stop-color="#888"/>
        </linearGradient>
      </defs>

    <!-- Pipe -->
    <rect x="120" y="0" width="20" height="100" stroke="black" stroke-width="0.25" fill="url(#PipeGradient)"/>

    <!-- Big Loop -->
    <path d="M 140 25 C 150 25 140 15, 120 15 A 25 35, 180,0,0, 120 85 C 140 85, 150 75, 140 75" stroke="black" stroke-width="5" fill="transparent"/>
    <path d="M 140 25 C 150 25 140 15, 120 15 A 25 35, 180,0,0, 120 85 C 140 85, 150 75, 140 75" stroke="#D44" stroke-width="4" fill="transparent"/>

    <!-- Wrap 1 -->
    <path d="M 140 35 C 160 35, 100 25, 120 25" stroke="black" stroke-width="5" fill="transparent"/>
    <path d="M 140 35 C 160 35, 100 25, 120 25" stroke="#D44" stroke-width="4" fill="transparent"/>

    <!-- Wrap 2 -->
    <path d="M 140 45 C 160 45, 100 35, 120 35" stroke="black" stroke-width="5" fill="transparent"/>
    <path d="M 140 45 C 160 45, 100 35, 120 35" stroke="#D44" stroke-width="4" fill="transparent"/>

    <!-- Wrap 3 -->
    <path d="M 140 55 C 160 55, 100 65, 120 65" stroke="black" stroke-width="5" fill="transparent"/>
    <path d="M 140 55 C 160 55, 100 65, 120 65" stroke="#D44" stroke-width="4" fill="transparent"/>

    <!-- Wrap 4 -->
    <path d="M 140 65 C 160 65, 100 75, 120 75" stroke="black" stroke-width="5" fill="transparent"/>
    <path d="M 140 65 C 160 65, 100 75, 120 75" stroke="#D44" stroke-width="4" fill="transparent"/>

    <!-- Free End Loop -->
    <path d="M 120 45 C 70 45, 70 30, 40 30 C 10 30, 10 70, 40 70 C 70 70, 70 55, 120 55" stroke="black" stroke-width="5" fill="transparent"/>
    <path d="M 120 45 C 70 45, 70 30, 40 30 C 10 30, 10 70, 40 70 C 70 70, 70 55, 120 55" stroke="#D44" stroke-width="4" fill="transparent"/>
</svg>