<!--
    Prussick Knot Diagram
    Copyright © 2014, Alex Westphal. All rights reserved
-->
<svg version="1.1" baseProfile="full" width="400" height="200" viewBox="0 0 200 100" xmlns="http://www.w3.org/2000/svg">
     <defs>
        <linearGradient id="PipeGradient" x1="0" x2="1" y1="0" y2="0">
            <stop offset="0%" stop-color="#666"/>
            <stop offset="50%" stop-color="#CCC"/>
            <stop offset="100%" stop-color="#888"/>
        </linearGradient>
      </defs>

    <!-- Pipe -->
    <rect x="120" y="0" width="20" height="100" stroke="black" stroke-width="0.25" fill="url(#PipeGradient)"/>

    <!-- Big Loop -->
    <path d="M 140 20 C 160 20 140 7.5, 120 7.5 C 95 7.5, 95 92.5, 120 92.5 C 140 92.5, 160 80, 140 80" stroke="black" stroke-width="9" fill="transparent"/>
    <path d="M 140 20 C 160 20 140 7.5, 120 7.5 C 95 7.5, 95 92.5, 120 92.5 C 140 92.5, 160 80, 140 80" stroke="#D44" stroke-width="8" fill="transparent"/>

    <!-- Wrap 1 -->
    <path d="M 140 32.5 C 160 32.5, 100 20, 120 20" stroke="black" stroke-width="9" fill="transparent"/>
    <path d="M 140 32.5 C 160 32.5, 100 20, 120 20" stroke="#D44" stroke-width="8" fill="transparent"/>

    <!-- Wrap 2 -->
    <path d="M 140 45 C 160 45, 100 32.5, 120 32.5" stroke="black" stroke-width="9" fill="transparent"/>
    <path d="M 140 45 C 160 45, 100 32.5, 120 32.5" stroke="#D44" stroke-width="8" fill="transparent"/>

    <!-- Wrap 3 -->
    <path d="M 140 55 C 160 55, 100 67.5, 120 67.5" stroke="black" stroke-width="9" fill="transparent"/>
    <path d="M 140 55 C 160 55, 100 67.5, 120 67.5" stroke="#D44" stroke-width="8" fill="transparent"/>

    <!-- Wrap 4 -->
    <path d="M 140 67.5 C 160 67.5, 100 80, 120 80" stroke="black" stroke-width="9" fill="transparent"/>
    <path d="M 140 67.5 C 160 67.5, 100 80, 120 80" stroke="#D44" stroke-width="8" fill="transparent"/>

    <!-- Free End Loop -->
    <path d="M 120 45 C 70 45, 70 30, 40 30 C 10 30, 10 70, 40 70 C 70 70, 70 55, 120 55" stroke="black" stroke-width="9" fill="transparent"/>
    <path d="M 120 45 C 70 45, 70 30, 40 30 C 10 30, 10 70, 40 70 C 70 70, 70 55, 120 55" stroke="#D44" stroke-width="8" fill="transparent"/>
</svg>