<!--
    Rabbit Method 1
    Copyright © 2014, Alex Westphal. All rights reserved
-->
<svg version="1.1" baseProfile="full" width="400" height="400" viewBox="0 0 200 200" xmlns="http://www.w3.org/2000/svg">

    <!-- Border Rectangle -->
    <rect x="0" y="0" width="200" height="200" stroke="#888" fill="transparent"/>

    <!-- Ground Plane -->
    <g opacity="0.4">
        <rect x="20" y="20" width="160" height="160" fill="#BBB"/>

        <line x1="20" x2="180" y1="30" y2="30" stroke="black" stroke-width="0.5" fill="transparent"/>
        <line x1="20" x2="180" y1="40" y2="40" stroke="black" stroke-width="0.5" fill="transparent"/>
        <line x1="20" x2="180" y1="50" y2="50" stroke="black" stroke-width="0.5" fill="transparent"/>
        <line x1="20" x2="180" y1="60" y2="60" stroke="black" stroke-width="0.5" fill="transparent"/>
        <line x1="20" x2="180" y1="70" y2="70" stroke="black" stroke-width="0.5" fill="transparent"/>
        <line x1="20" x2="180" y1="80" y2="80" stroke="black" stroke-width="0.5" fill="transparent"/>
        <line x1="20" x2="180" y1="90" y2="90" stroke="black" stroke-width="0.5" fill="transparent"/>
        <line x1="20" x2="180" y1="100" y2="100" stroke="black" stroke-width="0.5" fill="transparent"/>
        <line x1="20" x2="180" y1="110" y2="110" stroke="black" stroke-width="0.5" fill="transparent"/>
        <line x1="20" x2="180" y1="120" y2="120" stroke="black" stroke-width="0.5" fill="transparent"/>
        <line x1="20" x2="180" y1="130" y2="130" stroke="black" stroke-width="0.5" fill="transparent"/>
        <line x1="20" x2="180" y1="140" y2="140" stroke="black" stroke-width="0.5" fill="transparent"/>
        <line x1="20" x2="180" y1="150" y2="150" stroke="black" stroke-width="0.5" fill="transparent"/>
        <line x1="20" x2="180" y1="160" y2="160" stroke="black" stroke-width="0.5" fill="transparent"/>
        <line x1="20" x2="180" y1="170" y2="170" stroke="black" stroke-width="0.5" fill="transparent"/>

        <line x1="30" x2="30" y1="20" y2="180" stroke="black" stroke-width="0.5" fill="transparent"/>
        <line x1="40" x2="40" y1="20" y2="180" stroke="black" stroke-width="0.5" fill="transparent"/>
        <line x1="50" x2="50" y1="20" y2="180" stroke="black" stroke-width="0.5" fill="transparent"/>
        <line x1="60" x2="60" y1="20" y2="180" stroke="black" stroke-width="0.5" fill="transparent"/>
        <line x1="70" x2="70" y1="20" y2="180" stroke="black" stroke-width="0.5" fill="transparent"/>
        <line x1="80" x2="80" y1="20" y2="180" stroke="black" stroke-width="0.5" fill="transparent"/>
        <line x1="90" x2="90" y1="20" y2="180" stroke="black" stroke-width="0.5" fill="transparent"/>
        <line x1="100" x2="100" y1="20" y2="180" stroke="black" stroke-width="0.5" fill="transparent"/>
        <line x1="110" x2="110" y1="20" y2="180" stroke="black" stroke-width="0.5" fill="transparent"/>
        <line x1="120" x2="120" y1="20" y2="180" stroke="black" stroke-width="0.5" fill="transparent"/>
        <line x1="130" x2="130" y1="20" y2="180" stroke="black" stroke-width="0.5" fill="transparent"/>
        <line x1="140" x2="140" y1="20" y2="180" stroke="black" stroke-width="0.5" fill="transparent"/>
        <line x1="150" x2="150" y1="20" y2="180" stroke="black" stroke-width="0.5" fill="transparent"/>
        <line x1="160" x2="160" y1="20" y2="180" stroke="black" stroke-width="0.5" fill="transparent"/>
        <line x1="170" x2="170" y1="20" y2="180" stroke="black" stroke-width="0.5" fill="transparent"/>

        <circle cx="100" cy="80" r="25" fill="white" />

        <!-- Standing End -->
        <path d="M 100 0 V 30 C 100 55, 125 55, 125 80 A 25 25, 270, 1, 1, 100 55" stroke="black" stroke-width="9" fill="transparent"/>
        <path d="M 100 0 V 30 C 100 55, 125 55, 125 80 A 25 25, 270, 1, 1, 100 55" stroke="#AAA" stroke-width="8" fill="transparent"/>
    </g>

    <!-- Loop -->
</svg>