<!--
    Reef Knot Capsize Diagram - Step 3
    Copyright © 2014, Alex Westphal. All rights reserved
-->
<svg version="1.1" baseProfile="full" width="400" height="200" viewBox="0 0 200 100" xmlns="http://www.w3.org/2000/svg">
    <defs>
        <marker id='head' orient='auto' markerWidth='2' markerHeight='4'
                refX='0.1' refY='2'>
          <path d='M0,0 V4 L2,2 Z' fill='black' />
        </marker>
    </defs>

    <!-- Blue Rope - Bight -->
    <path d="M 140 20 C 170 20, 170 80, 140 80" stroke="black" stroke-width="9" fill="transparent"/>
    <path d="M 140 20 C 170 20, 170 80, 140 80" stroke="#22D" stroke-width="8" fill="transparent"/>

    <!-- Blue Rope - Running End -->
    <path d="M 180 60 H 160 C 120 60, 110 50, 110 40" stroke="black" stroke-width="9" fill="transparent"/>
    <path d="M 180 60 H 160 C 120 60, 110 50, 110 40" stroke="#22D" stroke-width="8" fill="transparent"/>

    <!-- Blue Rope - Standing End -->
    <path d="M 200 40 H 160 C 120 40, 110 50, 110 60" stroke="black" stroke-width="9" fill="transparent"/>
    <path d="M 200 40 H 160 C 120 40, 110 50, 110 60" stroke="#22D" stroke-width="8" fill="transparent"/>

    <!-- Red Rope -->
    <path d="M 130 30 V 100" stroke="black" stroke-width="9" fill="transparent"/>
    <path d="M 130 30 V 100" stroke="#D44" stroke-width="8" fill="transparent"/>

    <!-- Direction Arrow -->
    <path d="M 130 60 V 90" stroke="black" stroke-width="1" fill="transparent" marker-end="url(#head)"/>

    <!-- Blue Rope - Running End Mid -->
    <path d="M 110 40 C 110 20, 120 20, 140 20" stroke="black" stroke-width="9" fill="transparent"/>
    <path d="M 110 40 C 110 20, 120 20, 140 20" stroke="#22D" stroke-width="9" fill="transparent"/>

    <!-- Blue Rope - Standing End Mid -->
    <path d="M 110 60 C 110 80, 120 80, 140 80" stroke="black" stroke-width="9" fill="transparent"/>
    <path d="M 110 60 C 110 80, 120 80, 140 80" stroke="#22D" stroke-width="9" fill="transparent"/>

    <!-- Red Rope - Running End Cap -->
    <path d="M 126 30 h 8" stroke="black" stroke-width="1" fill="transparent"/>

    <!-- Blue Rope - Running End Cap -->
    <path d="M 180 56 v 8" stroke="black" stroke-width="1" fill="transparent"/>

    <!-- Red Rope - Running End Marks -->
    <path d="M 126 32 h 8" stroke="black" stroke-width="1" fill="transparent" stroke-opacity="0.8"/>
    <path d="M 126 34 h 8" stroke="black" stroke-width="1" fill="transparent" stroke-opacity="0.8"/>
    <path d="M 126 36 h 8.5" stroke="black" stroke-width="1" fill="transparent" stroke-opacity="0.8"/>

    <!-- Blue Rope - Running End Marks -->
    <path d="M 178 56 v 8" stroke="black" stroke-width="1" fill="transparent" stroke-opacity="0.8"/>
    <path d="M 176 56 v 8" stroke="black" stroke-width="1" fill="transparent" stroke-opacity="0.8"/>
    <path d="M 174 56 v 8" stroke="black" stroke-width="1" fill="transparent" stroke-opacity="0.8"/>

</svg>