<!--
    Reef Knot Capsize Diagram - Step 2
    Copyright © 2014, Alex Westphal. All rights reserved
-->
<svg version="1.1" baseProfile="full" width="400" height="200" viewBox="0 0 200 100" xmlns="http://www.w3.org/2000/svg">

    <!-- Blue Rope - Bight -->
    <path d="M 140 20 C 170 20, 170 80, 140 80" stroke="black" stroke-width="9" fill="transparent"/>
    <path d="M 140 20 C 170 20, 170 80, 140 80" stroke="#22D" stroke-width="8" fill="transparent"/>

    <!-- Red Rope - Standing End -->
    <path d="M 0 60 H 60 C 70 60, 80 70, 80 70 S 90 80, 110 80" stroke="black" stroke-width="9" fill="transparent"/>
    <path d="M 0 60 H 60 C 70 60, 80 70, 80 70 S 90 80, 110 80" stroke="#D44" stroke-width="8" fill="transparent"/>

    <!-- Blue Rope - Running End -->
    <path d="M 180 60 H 160 C 120 60, 110 50, 110 40" stroke="black" stroke-width="9" fill="transparent"/>
    <path d="M 180 60 H 160 C 120 60, 110 50, 110 40" stroke="#22D" stroke-width="8" fill="transparent"/>

    <!-- Blue Rope - Standing End -->
    <path d="M 200 40 H 160 C 120 40, 110 50, 110 60" stroke="black" stroke-width="9" fill="transparent"/>
    <path d="M 200 40 H 160 C 120 40, 110 50, 110 60" stroke="#22D" stroke-width="8" fill="transparent"/>

    <!-- Red Rope - Running End -->
    <path d="M 130 5 C 130 20, 140 80, 110 80" stroke="black" stroke-width="9" fill="transparent"/>
    <path d="M 130 5 C 130 20, 140 80, 110 80" stroke="#D44" stroke-width="8" fill="transparent"/>

    <!-- Blue Rope - Running End Mid -->
    <path d="M 110 40 C 110 20, 120 20, 140 20" stroke="black" stroke-width="9" fill="transparent"/>
    <path d="M 110 40 C 110 20, 120 20, 140 20" stroke="#22D" stroke-width="9" fill="transparent"/>

    <!-- Blue Rope - Standing End Mid -->
    <path d="M 110 60 C 110 80, 120 80, 140 80" stroke="black" stroke-width="9" fill="transparent"/>
    <path d="M 110 60 C 110 80, 120 80, 140 80" stroke="#22D" stroke-width="9" fill="transparent"/>

    <!-- Red Rope - Running End Cap -->
    <path d="M 126 5 h 8" stroke="black" stroke-width="1" fill="transparent"/>

    <!-- Blue Rope - Running End Cap -->
    <path d="M 180 56 v 8" stroke="black" stroke-width="1" fill="transparent"/>

    <!-- Red Rope - Running End Marks -->
    <path d="M 126 7 h 8" stroke="black" stroke-width="1" fill="transparent" stroke-opacity="0.8"/>
    <path d="M 126 9 h 8" stroke="black" stroke-width="1" fill="transparent" stroke-opacity="0.8"/>
    <path d="M 126 11 h 8.5" stroke="black" stroke-width="1" fill="transparent" stroke-opacity="0.8"/>

    <!-- Blue Rope - Running End Marks -->
    <path d="M 178 56 v 8" stroke="black" stroke-width="1" fill="transparent" stroke-opacity="0.8"/>
    <path d="M 176 56 v 8" stroke="black" stroke-width="1" fill="transparent" stroke-opacity="0.8"/>
    <path d="M 174 56 v 8" stroke="black" stroke-width="1" fill="transparent" stroke-opacity="0.8"/>

</svg>