<!-- Basic Reef Knot  © Alex Westphal. All Rights Reserved -->
<svg version="1.1" baseProfile="full" width="200" height="100" xmlns="http://www.w3.org/2000/svg">

    <path d="M 80 20 C 50 20, 50 80, 80 80" stroke="#22D" stroke-width="8" stroke-linejoin="round" fill="transparent"/>

    <path d="M 20 40 H 60 C 80 40, 90 30, 90 30 S 100 20, 120 20" stroke="#D22" stroke-width="8" stroke-linejoin="round" fill="transparent"/>
    <path d="M 0 60 H 60 C 80 60, 90 70, 90 70 S 100 80, 120 80" stroke="#D22" stroke-width="8" stroke-linejoin="round" fill="transparent"/>

    <path d="M 180 40 H 140 C 120 40, 110 30, 110 30 S 100 20, 80 20" stroke="#22D" stroke-width="8" stroke-linejoin="round" fill="transparent"/>
    <path d="M 200 60 H 140 C 120 60, 110 70, 110 70 S 100 80, 80 80" stroke="#22D" stroke-width="8" stroke-linejoin="round" fill="transparent"/>

    <path d="M 120 20 C 150 20, 150 80, 120 80" stroke="#D22" stroke-width="8" stroke-linejoin="round" fill="transparent"/>

    <!-- Running End Marks (Red Rope) -->
    <path d="M 22 36 v 8" stroke="black" stroke-width="0.5" fill="transparent" stroke-opacity="0.6"/>
    <path d="M 23 36 v 8" stroke="black" stroke-width="0.5" fill="transparent" stroke-opacity="0.6"/>
    <path d="M 24 36 v 8" stroke="black" stroke-width="0.5" fill="transparent" stroke-opacity="0.6"/>
    <path d="M 25 36 v 8" stroke="black" stroke-width="0.5" fill="transparent" stroke-opacity="0.6"/>

    <!-- Running End Marks (Blue Rope) -->
    <path d="M 175 36 v 8" stroke="black" stroke-width="0.5" fill="transparent" stroke-opacity="0.6"/>
    <path d="M 176 36 v 8" stroke="black" stroke-width="0.5" fill="transparent" stroke-opacity="0.6"/>
    <path d="M 177 36 v 8" stroke="black" stroke-width="0.5" fill="transparent" stroke-opacity="0.6"/>
    <path d="M 178 36 v 8" stroke="black" stroke-width="0.5" fill="transparent" stroke-opacity="0.6"/>
</svg>