<!--
    Reef Knot Diagram
    Copyright © 2014, Alex Westphal. All rights reserved
-->
<svg version="1.1" baseProfile="full" width="400" height="200" viewBox="0 0 200 100" xmlns="http://www.w3.org/2000/svg">

    <!-- Blue Rope - Bight -->
    <path d="M 80 20 C 50 20, 50 80, 80 80" stroke="black" stroke-width="9" fill="transparent"/>
    <path d="M 80 20 C 50 20, 50 80, 80 80" stroke="#22D" stroke-width="8" fill="transparent"/>

    <!-- Red Rope - Running End -->
    <path d="M 30 40 H 60 Q 80 40, 90 30 T 120 20" stroke="black" stroke-width="9" fill="transparent"/>
    <path d="M 30 40 H 60 Q 80 40, 90 30 T 120 20" stroke="#D44" stroke-width="8" fill="transparent"/>

    <!-- Red Rope - Standing End -->
    <path d="M 0 60 H 60 Q 80 60, 90 70 T 120 80" stroke="black" stroke-width="9" fill="transparent"/>
    <path d="M 0 60 H 60 Q 80 60, 90 70 T 120 80" stroke="#D44" stroke-width="8" fill="transparent"/>

    <!-- Blue Rope - Running End -->
    <path d="M 170 40 H 140 Q 120 40, 110 30 T 80 20" stroke="black" stroke-width="9" fill="transparent"/>
    <path d="M 170 40 H 140 Q 120 40, 110 30 T 80 20" stroke="#22D" stroke-width="8" fill="transparent"/>

    <!-- Blue Rope - Standing End -->
    <path d="M 200 60 H 140 Q 120 60, 110 70 T 80 80" stroke="black" stroke-width="9" fill="transparent"/>
    <path d="M 200 60 H 140 Q 120 60, 110 70 T 80 80" stroke="#22D" stroke-width="8" fill="transparent"/>

    <!-- Red Rope - Bight -->
    <path d="M 120 20 C 150 20, 150 80, 120 80" stroke="black" stroke-width="9" fill="transparent"/>
    <path d="M 120 20 C 150 20, 150 80, 120 80" stroke="#D44" stroke-width="8" fill="transparent"/>

    <!-- Red Rope - Running End Marks -->
    <path d="M 30 36 v 8 m 2 -8 v 8 m 2 -8 v 8 m 2 -8 v 8" stroke="black" stroke-width="1" stroke-opacity="0.8" fill="transparent"/>

    <!-- Blue Rope - Running End Marks -->
    <path d="M 170 36 v 8 m -2 -8 v 8 m -2 -8 v 8 m -2 -8 v 8" stroke="black" stroke-width="1" stroke-opacity="0.8" fill="transparent"/>
</svg>