<!--
    Sheet Bend Diagram
    Copyright © 2014, Alex Westphal. All rights reserved
-->
<svg version="1.1" baseProfile="full" width="400" height="200" viewBox="0 0 200 100" xmlns="http://www.w3.org/2000/svg">

    <!-- Blue Rope - Standing End -->
    <path d="M 200 50 H 130 " stroke="black" stroke-width="5" fill="transparent"/>
    <path d="M 200 50 H 130" stroke="#22D" stroke-width="4" fill="transparent"/>

    <!-- Blue Rope - Bight -->
    <path d="M 90 35 A 15 15, 180,0,0, 90 65" stroke="black" stroke-width="5" fill="transparent"/>
    <path d="M 90 35 A 15 15, 180,0,0, 90 65" stroke="#22D" stroke-width="4" fill="transparent"/>

    <!-- Red Rope -->
    <path d="M 30 45 H 80 C 100 45, 100 35, 120 35 A 15 15, 180,0,1, 120 65 C 100 65, 100 55, 80 55 H 0" stroke="black" stroke-width="5" fill="transparent"/>
    <path d="M 30 45 H 80 C 100 45, 100 35, 120 35 A 15 15, 180,0,1, 120 65 C 100 65, 100 55, 80 55 H 0" stroke="#D44" stroke-width="4" fill="transparent"/>

    <!-- Blue Rope - Running End -->
    <path d="M 90 65 C 110 65, 120 50, 120 30 V 10" stroke="black" stroke-width="5" fill="transparent"/>
    <path d="M 90 65 C 110 65, 120 50, 120 30 V 10" stroke="#22D" stroke-width="4" fill="transparent"/>

    <!-- Blue Rope - Standing End Middle -->
    <path d="M 130 50 C 110 50, 110 35, 90 35" stroke="black" stroke-width="5" fill="transparent"/>
    <path d="M 130 50 C 110 50, 110 35, 90 35" stroke="#22D" stroke-width="4" fill="transparent"/>

    <!-- Red Rope - Running End Marks -->
    <path d="M 30 43 v 4 m 2 -4 v 4 m 2 -4 v 4 m 2 -4 v 4" stroke="black" stroke-width="1" fill="transparent"/>

    <!-- Blue Rope - Running End Marks -->
    <path d="M 118 10 h 4 m -4 2 h 4 m -4 2 h 4 m -4 2 h 4" stroke="black" stroke-width="1" fill="transparent"/>

</svg>