<!--
    Truckers Hitch (Finish)
    Copyright © 2014, Alex Westphal. All rights reserved
-->
<svg version="1.1" baseProfile="full" width="200" height="300" viewBox="0 0 100 150" xmlns="http://www.w3.org/2000/svg">

    <!-- Running End -->
    <path d="M 40 105 H 80" stroke="black" stroke-width="5" fill="transparent"/>
    <path d="M 40 105 H 80" stroke="#D44" stroke-width="4" fill="transparent"/>

    <!-- Running End Markings -->
    <path d="M 80 103 v 4 m -2 -4 v 4 m -2 -4 v 4 m -2 -4 v 4" stroke="black" stroke-width="1" fill="transparent"/>

    <!-- Section 6 -->
    <path d="M 40 85 C 60 85, 55 115, 25 115" stroke="black" stroke-width="5" fill="transparent"/>
    <path d="M 40 85 C 60 85, 55 115, 25 115" stroke="#D44" stroke-width="4" fill="transparent"/>

    <!-- Section 4 -->
    <path d="M 40 95 H 25 A 5 5, 180,0,1, 25 85" stroke="black" stroke-width="5" fill="transparent"/>
    <path d="M 40 95 H 25 A 5 5, 180,0,1, 25 85" stroke="#D44" stroke-width="4" fill="transparent"/>

    <!-- Standing End -->
    <path d="M 30 0 V 20" stroke="black" stroke-width="5" fill="transparent"/>
    <path d="M 30 0 V 20" stroke="#D44" stroke-width="4" fill="transparent"/>

    <!-- Section 1 -->
    <path d="M 30 60 V 130" stroke="black" stroke-width="5" fill="transparent"/>
    <path d="M 30 60 V 130" stroke="#D44" stroke-width="4" fill="transparent"/>

    <!-- Anchor/Ring -->
    <rect x="0" y="145" width="80" height="5" fill="#666"/>
    <path d="M 10 145 A 10 10, 180,0,1, 50 145" stroke="black" stroke-width="5" fill="transparent"/>
    <path d="M 10 145 A 10 10, 180,0,1, 50 145" stroke="#666" stroke-width="4" fill="transparent"/>

    <!-- Section 2 -->
    <path d="M 30 130 C 30 150, 30 73, 45 73" stroke="black" stroke-width="5" fill="transparent"/>
    <path d="M 30 130 C 30 150, 30 73, 45 73" stroke="#D44" stroke-width="4" fill="transparent"/>

    <!-- Loop -->
    <path d="M 37 60 V 70 A 5 5, 180,0,0, 55 70 C 57 65, 40 40, 40 40" stroke="black" stroke-width="5" fill="transparent"/>
    <path d="M 37 60 V 70 A 5 5, 180,0,0, 55 70 C 57 65, 40 40, 40 40" stroke="#D44" stroke-width="4" fill="transparent"/>

    <!-- Section 5 -->
    <path d="M 25 85 H 40" stroke="black" stroke-width="5" fill="transparent"/>
    <path d="M 25 85 H 40" stroke="#D44" stroke-width="4" fill="transparent"/>

    <!-- Section 3 -->
    <path d="M 45 73 C 60 73, 60 95, 40 95" stroke="black" stroke-width="5" fill="transparent"/>
    <path d="M 45 73 C 60 73, 60 95, 40 95" stroke="#D44" stroke-width="4" fill="transparent"/>

    <!-- Section 7 -->
    <path d="M 25 115 A 5 5, 180,0,1, 25 105 H 40" stroke="black" stroke-width="5" fill="transparent"/>
    <path d="M 25 115 A 5 5, 180,0,1, 25 105 H 40" stroke="#D44" stroke-width="4" fill="transparent"/>

     <!-- Cloud -->
    <path d="M 20 20 a 10 5, 180,0,1, 20 0 a 10 10, 180,0,1, 10 20 a 10 10, 180,0,1, -10 20 a 10 5, 180,0,1, -20 0 a 10 10, 180,0,1, -10 -20 a 10 10, 180,0,1, 10 -20" stroke="#EAEAEA" stroke-width="1" fill="#EFEFEF"/>

    <!-- Cloud Text -->
    <text x="18" y="35" font-family="Verdana" font-size="10">Loop</text>
    <text x="18" y="48" font-family="Verdana" font-size="10">Knot</text>

</svg>