<!--
    Truckers Hitch (Alpine Butterfly Variant)
    Copyright © 2014, Alex Westphal. All rights reserved
-->
<svg version="1.1" baseProfile="full" width="200" height="300" viewBox="0 0 100 150" xmlns="http://www.w3.org/2000/svg">

    <!-- Standing End -->
    <path d="M 22.5 0 V 27.5" stroke="black" stroke-width="5" fill="transparent"/>
    <path d="M 22.5 0 V 27.5" stroke="#D44" stroke-width="4" fill="transparent"/>

    <!-- Section 2 -->
    <path d="M 10 45 C 10 55, 45 55, 45 45" stroke="black" stroke-width="5" fill="transparent"/>
    <path d="M 10 45 C 10 55, 45 55, 45 45" stroke="#D44" stroke-width="4" fill="transparent"/>

    <!-- Section 6-->
    <path d="M 7.5 30 C 7.5 40, 20 40, 20 60 V 135" stroke="black" stroke-width="5" fill="transparent"/>
    <path d="M 7.5 30 C 7.5 40, 20 40, 20 60 V 135" stroke="#D44" stroke-width="4" fill="transparent"/>

    <!-- Anchor/Ring -->
    <path d="M 0 150 A 20 20, 180,0,1, 40 150" stroke="#666" stroke-width="5" fill="transparent"/>

    <!-- Section 7 -->
    <path d="M 20 135 C 20 155, 30 85, 40 85" stroke="black" stroke-width="5" fill="transparent"/>
    <path d="M 20 135 C 20 155, 30 85, 40 85" stroke="#D44" stroke-width="4" fill="transparent"/>

    <!-- Section 4 -->
    <path d="M 22.5 37.5 A 7.5 7.5, 270,1,1, 30 30" stroke="black" stroke-width="5" fill="transparent"/>
    <path d="M 22.5 37.5 A 7.5 7.5, 270,1,1, 30 30" stroke="#D44" stroke-width="4" fill="transparent"/>

    <!-- Section 5-->
    <path d="M 30 30 V 80 A 10 10, 180,0,0, 50 80 C 50 60, 37.5 60, 37.5 40 V 30 A 15 15, 180,0,0, 7.5 30" stroke="black" stroke-width="5" fill="transparent"/>
    <path d="M 30 30 V 80 A 10 10, 180,0,0, 50 80 C 50 60, 37.5 60, 37.5 40 V 30 A 15 15, 180,0,0, 7.5 30" stroke="#D44" stroke-width="4" fill="transparent"/>

    <!-- Section 1 -->
    <path d="M 22.5 27.5 C 22.5 35, 10 35, 10 45" stroke="black" stroke-width="5" fill="transparent"/>
    <path d="M 22.5 27.5 C 22.5 35, 10 35, 10 45" stroke="#D44" stroke-width="4" fill="transparent"/>

    <!-- Section 3 -->
    <path d="M 45 45 C 45 35, 30 37.5, 22.5 37.5" stroke="black" stroke-width="5" fill="transparent"/>
    <path d="M 45 45 C 45 35, 30 37.5, 22.5 37.5" stroke="#D44" stroke-width="4" fill="transparent"/>

    <!-- Running End -->
    <path d="M 40 85 C 50 85, 60 110, 60 130" stroke="black" stroke-width="5" fill="transparent"/>
    <path d="M 40 85 C 50 85, 60 110, 60 130" stroke="#D44" stroke-width="4" fill="transparent"/>

    <!-- Running End Markings -->
    <path d="M 58 130 h 4 m -4 -2 h 4 m -4 -2 h 4 m -4 -2 h 4" stroke="black" stroke-width="1" fill="transparent"/>
</svg>