<!--
    Water Knot Diagram
    Copyright © 2014, Alex Westphal. All rights reserved
-->
<svg version="1.1" baseProfile="full" width="400" height="200" viewBox="0 0 200 100" xmlns="http://www.w3.org/2000/svg">

    <!-- Red Rope - Running End Loop-->
    <path d="M 80 30 C 50 30, 50 70, 100 70" stroke="black" stroke-width="9" fill="transparent"/>
    <path d="M 80 30 C 50 30, 50 70, 100 70" stroke="#D44" stroke-width="8" fill="transparent"/>

    <!-- Blue Rope - Standing End Loop-->
    <path d="M 80 20 C 35 20, 35 80, 100 80" stroke="black" stroke-width="9" fill="transparent"/>
    <path d="M 80 20 C 35 20, 35 80, 100 80" stroke="#22D" stroke-width="8" fill="transparent"/>

    <!-- Red Rope - Standing End -->
    <path d="M 0 60 H 40 C 90 60, 100 30, 120 30" stroke="black" stroke-width="9" fill="transparent"/>
    <path d="M 0 60 H 40 C 90 60, 100 30, 120 30" stroke="#D44" stroke-width="8" fill="transparent"/>

    <!-- Blue Rope - Running End -->
    <path d="M 30 50 H 40 C 90 50, 90 20, 120 20" stroke="black" stroke-width="9" fill="transparent"/>
    <path d="M 30 50 H 40 C 90 50, 90 20, 120 20" stroke="#22D" stroke-width="8" fill="transparent"/>

    <!-- Red Rope - Running End -->
    <path d="M 170 60 H 160 C 110 60, 100 30, 80 30" stroke="black" stroke-width="9" fill="transparent"/>
    <path d="M 170 60 H 160 C 110 60, 100 30, 80 30" stroke="#D44" stroke-width="8" fill="transparent"/>

    <!-- Blue Rope - Standing End -->
    <path d="M 200 50 H 160 C 110 50, 110 20, 80 20" stroke="black" stroke-width="9" fill="transparent"/>
    <path d="M 200 50 H 160 C 110 50, 110 20, 80 20" stroke="#22D" stroke-width="8" fill="transparent"/>

    <!-- Red Rope - Standing End Loop-->
    <path d="M 120 30 C 150 30, 150 70, 100 70" stroke="black" stroke-width="9" fill="transparent"/>
    <path d="M 120 30 C 150 30, 150 70, 100 70" stroke="#D44" stroke-width="8" fill="transparent"/>

    <!-- Blue Rope - Running End Loop-->
    <path d="M 120 20 C 165 20, 165 80, 100 80" stroke="black" stroke-width="9" fill="transparent"/>
    <path d="M 120 20 C 165 20, 165 80, 100 80" stroke="#22D" stroke-width="8" fill="transparent"/>

    <!-- Red Rope - Running End Cap -->
    <path d="M 170 56 v 8" stroke="black" stroke-width="1" fill="transparent"/>

    <!-- Blue Rope - Running End Cap -->
    <path d="M 30 46 v 8" stroke="black" stroke-width="1" fill="transparent"/>

    <!-- Red Rope - Running End Marks -->
    <path d="M 168 56 v 8" stroke="black" stroke-width="1" fill="transparent" stroke-opacity="0.8"/>
    <path d="M 166 56 v 8" stroke="black" stroke-width="1" fill="transparent" stroke-opacity="0.8"/>
    <path d="M 164 56 v 8" stroke="black" stroke-width="1" fill="transparent" stroke-opacity="0.8"/>

    <!-- Red Rope - Running End Marks -->
    <path d="M 32 46 v 8" stroke="black" stroke-width="1" fill="transparent" stroke-opacity="0.8"/>
    <path d="M 34 46 v 8" stroke="black" stroke-width="1" fill="transparent" stroke-opacity="0.8"/>
    <path d="M 36 46 v 8" stroke="black" stroke-width="1" fill="transparent" stroke-opacity="0.8"/>
</svg>